<svg width="747" height="747" viewBox="0 0 747 747" fill="none" xmlns="http://www.w3.org/2000/svg">
<path d="M372.501 244.704C389.532 262.414 389.261 290.514 371.713 307.89L320.17 358.922L320.126 358.966L320.088 359.015C316.945 363.011 315.07 368.045 315.069 373.514V373.515C315.07 378.738 316.783 383.563 319.675 387.468L319.72 387.528L319.773 387.582L372.722 440.197C372.803 440.278 372.82 440.299 372.925 440.404L373.628 441.113L374.338 440.41L431.734 383.521L433.459 381.81H393.052L427.608 343.382H471.319C488.352 360.659 488.219 388.397 470.956 405.508L373.824 501.783L373.68 501.639L373.453 501.866L275.004 404.036C257.927 387.066 257.667 359.689 274.236 342.402L274.245 342.393C274.634 341.976 275.029 341.566 275.433 341.164L372.501 244.704Z" stroke="url(#paint0_linear_15123_24720)" stroke-width="2"/>
<g clip-path="url(#paint1_diamond_15123_24720_clip_path)" data-figma-skip-parse="true"><g transform="matrix(0.000429357 0.44 -0.44 0.000429357 373.571 373.285)"><rect x="0" y="0" width="678.179" height="678.179" fill="url(#paint1_diamond_15123_24720)" opacity="0.8" shape-rendering="crispEdges"/><rect x="0" y="0" width="678.179" height="678.179" transform="scale(1 -1)" fill="url(#paint1_diamond_15123_24720)" opacity="0.8" shape-rendering="crispEdges"/><rect x="0" y="0" width="678.179" height="678.179" transform="scale(-1 1)" fill="url(#paint1_diamond_15123_24720)" opacity="0.8" shape-rendering="crispEdges"/><rect x="0" y="0" width="678.179" height="678.179" transform="scale(-1)" fill="url(#paint1_diamond_15123_24720)" opacity="0.8" shape-rendering="crispEdges"/></g></g><rect x="79.4142" y="373.285" width="416" height="416" transform="rotate(-45 79.4142 373.285)" data-figma-gradient-fill="{&#34;type&#34;:&#34;GRADIENT_DIAMOND&#34;,&#34;stops&#34;:[{&#34;color&#34;:{&#34;r&#34;:0.22804862260818481,&#34;g&#34;:0.16175875067710876,&#34;b&#34;:0.31250,&#34;a&#34;:0.0},&#34;position&#34;:0.25480768084526062},{&#34;color&#34;:{&#34;r&#34;:0.0,&#34;g&#34;:0.0,&#34;b&#34;:0.0,&#34;a&#34;:0.69999998807907104},&#34;position&#34;:1.0}],&#34;stopsVar&#34;:[{&#34;color&#34;:{&#34;r&#34;:0.22804862260818481,&#34;g&#34;:0.16175875067710876,&#34;b&#34;:0.31250,&#34;a&#34;:0.0},&#34;position&#34;:0.25480768084526062},{&#34;color&#34;:{&#34;r&#34;:0.0,&#34;g&#34;:0.0,&#34;b&#34;:0.0,&#34;a&#34;:0.69999998807907104},&#34;position&#34;:1.0}],&#34;transform&#34;:{&#34;m00&#34;:0.85871410369873047,&#34;m01&#34;:-880.00006103515625,&#34;m02&#34;:813.14129638671875,&#34;m10&#34;:880.00006103515625,&#34;m11&#34;:0.85871410369873047,&#34;m12&#34;:-67.144241333007812},&#34;opacity&#34;:0.80000001192092896,&#34;blendMode&#34;:&#34;NORMAL&#34;,&#34;visible&#34;:true}" stroke="#A259FF" stroke-width="2"/>
<rect x="55.0607" y="373.285" width="449.734" height="449.734" transform="rotate(-45 55.0607 373.285)" stroke="#A259FF" stroke-opacity="0.3" stroke-width="1.5"/>
<rect x="31.0607" y="373.285" width="484.989" height="483.585" transform="rotate(-45 31.0607 373.285)" stroke="#A259FF" stroke-opacity="0.3" stroke-width="1.5"/>
<rect x="0.707107" y="373.285" width="526.905" height="526.905" transform="rotate(-45 0.707107 373.285)" stroke="#A259FF" stroke-opacity="0.5"/>
<defs>
<clipPath id="paint1_diamond_15123_24720_clip_path"><rect x="79.4142" y="373.285" width="416" height="416" transform="rotate(-45 79.4142 373.285)"/></clipPath><linearGradient id="paint0_linear_15123_24720" x1="373" y1="243.285" x2="373" y2="503.285" gradientUnits="userSpaceOnUse">
<stop stop-color="#A259FF"/>
<stop offset="1" stop-color="#613599"/>
</linearGradient>
<linearGradient id="paint1_diamond_15123_24720" x1="0" y1="0" x2="500" y2="500" gradientUnits="userSpaceOnUse">
<stop offset="0.254808" stop-color="#3A2950" stop-opacity="0"/>
<stop offset="1" stop-opacity="0.7"/>
</linearGradient>
</defs>
</svg>
