<svg width="42" height="34" viewBox="0 0 42 34" fill="none" xmlns="http://www.w3.org/2000/svg">
<g clip-path="url(#clip0_289_75)">
<path d="M21.8944 19.1171C21.9726 17.721 22.6591 16.4908 23.6937 15.6189C24.7852 14.727 26.1533 14.2395 27.5649 14.2395C28.9765 14.2395 30.3446 14.727 31.4361 15.6189C32.4698 16.4908 33.1564 17.721 33.2354 19.1154C33.3136 20.55 32.7312 21.8791 31.7227 22.8698C30.6882 23.8748 29.2158 24.5054 27.5678 24.5054C25.9198 24.5054 24.445 23.8748 23.4105 22.8698C22.3919 21.8825 21.8154 20.55 21.8944 19.1171Z" fill="black"/>
<path d="M12.8646 21.9418C12.8739 22.4878 13.0487 23.5498 13.3109 24.3789C13.8773 26.1649 14.8284 27.8061 16.0976 29.1877C17.4583 30.6792 19.1192 31.8683 20.9719 32.6774C22.993 33.5563 25.1752 34.0078 27.3804 34.0034C29.5857 33.9989 31.766 33.5386 33.7835 32.6515C35.6362 31.8343 37.2966 30.6396 38.6578 29.1441C39.9252 27.7578 40.8757 26.114 41.4437 24.3261C41.7194 23.4522 41.8953 22.5501 41.9681 21.6369C42.0375 20.746 42.0093 19.8502 41.884 18.9654C41.6381 17.2438 41.0326 15.5928 40.1066 14.1189C39.2481 12.7481 38.15 11.5418 36.8644 10.5571L23.7409 0.519064C23.7292 0.509851 23.7191 0.500639 23.7065 0.492264C22.8459 -0.165995 21.3979 -0.163482 20.4517 0.492264C19.5054 1.14801 19.3852 2.2627 20.2365 2.95948L25.7083 7.39812L9.02996 7.41571H9.00727C7.62567 7.42073 6.30291 8.32186 6.03818 9.46335C5.76842 10.6241 6.70461 11.5872 8.13915 11.5922V11.5972L16.5934 11.5813L1.5043 23.1143L1.44631 23.157C0.0235365 24.2465 -0.436995 26.0521 0.459697 27.1953C1.369 28.3569 3.30357 28.3594 4.74567 27.202L12.9815 20.4871C12.9147 20.9694 12.8757 21.4551 12.8646 21.9418ZM34.0205 24.9735C32.3246 26.6953 29.9497 27.6718 27.3815 27.6769C24.8133 27.6819 22.4324 26.7138 20.7365 24.9969C19.9348 24.195 19.3162 23.23 18.923 22.1679C18.5524 21.1577 18.4089 20.0788 18.5028 19.0073C18.5926 17.9616 18.9027 16.9465 19.4129 16.0283C19.9255 15.11 20.6102 14.2983 21.4299 13.6373C23.0787 12.2974 25.178 11.573 27.3739 11.5704C29.5698 11.5679 31.67 12.2857 33.3205 13.6206C34.1402 14.2786 34.825 15.0879 35.3374 16.0041C35.8478 16.9208 36.1587 17.9344 36.2501 18.9788C36.3434 20.0497 36.2 21.128 35.8299 22.1378C35.4378 23.2014 34.8207 24.1685 34.0205 24.9735Z" fill="black"/>
</g>
<defs>
<clipPath id="clip0_289_75">
<rect width="42" height="34" fill="white"/>
</clipPath>
</defs>
</svg>
