<svg width="45" height="45" viewBox="0 0 45 45" fill="none" xmlns="http://www.w3.org/2000/svg">
<path d="M24.4235 1.03497C24.0005 1.06872 23.6855 1.10472 23.663 1.11822C23.6495 1.12722 23.4718 1.14522 23.267 1.16097C23.0623 1.17672 22.853 1.19922 22.8035 1.21272C22.754 1.22622 22.628 1.23747 22.5223 1.23747C22.3895 1.23747 22.2613 1.25547 22.106 1.29597C21.9823 1.32972 21.8158 1.36572 21.7348 1.37697C21.6538 1.38822 21.548 1.41072 21.4985 1.42872C21.449 1.44447 21.3275 1.46472 21.2308 1.47372C21.1318 1.48047 21.0328 1.49847 21.0103 1.50972C20.9225 1.55697 20.306 1.70997 20.2048 1.70997C20.1598 1.70997 20.1058 1.72347 20.081 1.73922C20.0248 1.77747 19.8425 1.84497 19.7998 1.84497C19.7818 1.84497 19.7368 1.86072 19.6985 1.88097C19.6625 1.89897 19.5815 1.92147 19.5185 1.92822C19.4578 1.93722 19.3858 1.95522 19.3588 1.97322C19.2935 2.01372 18.9538 2.13747 18.8435 2.15772C18.794 2.16897 18.6905 2.20722 18.614 2.24772C18.5375 2.28597 18.461 2.31747 18.4453 2.31747C18.4273 2.31747 18.3958 2.33097 18.371 2.34897C18.3463 2.36472 18.2765 2.38497 18.2158 2.39397C18.1505 2.40522 18.0695 2.43672 18.0155 2.47722C17.966 2.51322 17.9098 2.54247 17.8895 2.54247C17.8693 2.54247 17.8333 2.55822 17.8108 2.57622C17.786 2.59422 17.741 2.60997 17.7095 2.60997C17.678 2.60997 17.6263 2.62572 17.5948 2.64372C17.5633 2.66172 17.5025 2.69322 17.4598 2.71122C17.417 2.73147 17.336 2.76972 17.2798 2.79447C17.2235 2.81922 17.138 2.84622 17.0885 2.85072C17.039 2.85747 16.9535 2.89122 16.8973 2.92497C16.841 2.96097 16.769 2.99697 16.7353 3.00372C16.7015 3.01272 16.6633 3.03297 16.6475 3.05097C16.634 3.06897 16.5823 3.08247 16.535 3.08247C16.49 3.08247 16.436 3.09822 16.4158 3.11622C16.3663 3.16797 16.094 3.28272 15.9478 3.31872C15.878 3.33447 15.7903 3.36822 15.7565 3.39297C15.671 3.45372 15.41 3.55497 15.3403 3.55497C15.3088 3.55497 15.266 3.57522 15.2435 3.59997C15.221 3.62472 15.194 3.64497 15.1828 3.64497C15.1715 3.64497 15.0973 3.67422 15.0185 3.71247C14.9398 3.74847 14.852 3.77997 14.8273 3.77997C14.8025 3.77997 14.7283 3.80697 14.663 3.84072C14.492 3.92847 14.321 3.99822 14.2265 4.01622C14.1815 4.02522 14.114 4.05447 14.078 4.08597C14.0443 4.11522 13.9745 4.14897 13.9273 4.16247C13.8778 4.17597 13.8328 4.19397 13.826 4.20522C13.8193 4.21647 13.763 4.23222 13.7023 4.24122C13.6415 4.25022 13.583 4.26597 13.5763 4.27947C13.5538 4.31547 13.2455 4.45047 13.1465 4.46847C13.0993 4.47522 13.016 4.51122 12.962 4.54722C12.908 4.58322 12.8293 4.61697 12.7888 4.62597C12.7483 4.63272 12.7033 4.65297 12.6875 4.67097C12.674 4.68897 12.629 4.70247 12.5908 4.70247C12.5525 4.70247 12.4963 4.71822 12.4648 4.73622C12.404 4.76997 12.2488 4.84422 12.1385 4.89372C12.1025 4.90947 12.0305 4.92972 11.981 4.93872C11.9338 4.94772 11.8663 4.97247 11.8325 4.99722C11.7538 5.05122 11.468 5.17497 11.4163 5.17497C11.3938 5.17497 11.2745 5.22447 11.1508 5.28522C11.0248 5.34372 10.8853 5.39997 10.8358 5.40672C10.7885 5.41347 10.7323 5.43597 10.712 5.45397C10.6648 5.49672 10.3633 5.61597 10.2575 5.63397C10.2103 5.64297 10.163 5.66322 10.1495 5.67897C10.1225 5.71272 9.82103 5.83647 9.70853 5.86347C9.67253 5.87022 9.59378 5.90622 9.53303 5.94222C9.47453 5.97822 9.41378 6.00747 9.39803 6.00747C9.38228 6.00747 9.33278 6.02772 9.28553 6.05247C9.24053 6.07722 9.16853 6.09747 9.12578 6.09747C9.08528 6.09747 9.03803 6.11097 9.02453 6.12897C8.98853 6.17172 8.63303 6.32247 8.56778 6.32247C8.53853 6.32247 8.45978 6.35847 8.39228 6.40122C8.32478 6.44397 8.25278 6.47997 8.23478 6.47997C8.21678 6.47997 8.17403 6.49347 8.14253 6.51147C8.11103 6.52722 8.03678 6.54747 7.97828 6.55647C7.92203 6.56547 7.87478 6.58347 7.87478 6.59472C7.87478 6.60822 7.82753 6.63747 7.76903 6.66222C7.70828 6.68697 7.63403 6.72297 7.60028 6.74097C7.56878 6.75672 7.51703 6.77247 7.48553 6.77247C7.45628 6.77247 7.36178 6.80622 7.27628 6.84897C7.19078 6.89172 7.08278 6.93672 7.03778 6.95247C6.99053 6.96597 6.94778 6.98847 6.94103 6.99972C6.93203 7.01097 6.88928 7.01997 6.84203 7.01997C6.78578 7.01997 6.74303 7.03572 6.71603 7.06497C6.69578 7.08747 6.63053 7.12572 6.57203 7.14597C6.51578 7.16847 6.44828 7.19997 6.42353 7.21572C6.39878 7.23147 6.35378 7.24497 6.32228 7.24497C6.27053 7.24497 6.21653 7.26972 5.94878 7.41597C5.90153 7.44297 5.82053 7.46997 5.77328 7.47897C5.72378 7.48797 5.65403 7.51947 5.61578 7.54872C5.54153 7.60497 5.30753 7.71747 5.26478 7.71747C5.24003 7.71747 5.10728 7.80072 5.08478 7.83222C5.06678 7.85472 4.88678 7.94247 4.85753 7.94247C4.84403 7.94247 4.80353 7.96497 4.76753 7.99197C4.59428 8.12922 4.56503 8.14722 4.49528 8.17197C4.45703 8.18547 4.40078 8.22372 4.37378 8.25522C4.34678 8.28897 4.27478 8.33847 4.21628 8.36997C4.15553 8.39922 4.04753 8.47122 3.97553 8.53197C3.90353 8.59047 3.83153 8.63997 3.81353 8.63997C3.79778 8.63997 3.75503 8.67372 3.71903 8.71647C3.68528 8.75922 3.61778 8.81547 3.57278 8.84247C3.52778 8.86722 3.47603 8.91447 3.45578 8.94147C3.43778 8.97072 3.38378 9.01797 3.33653 9.04722C3.28928 9.07647 3.08903 9.26772 2.88878 9.47247C2.68853 9.67722 2.47928 9.89097 2.42078 9.94947C2.36453 10.008 2.31728 10.0665 2.31728 10.08C2.31728 10.0912 2.26778 10.1542 2.20478 10.2172C2.14403 10.2802 2.09228 10.341 2.09228 10.3545C2.09228 10.3657 2.04278 10.4287 1.98428 10.4917C1.87853 10.6042 1.70528 10.8517 1.60628 11.0272C1.57928 11.0745 1.52078 11.1577 1.47578 11.2117C1.43078 11.2657 1.39478 11.3242 1.39478 11.3377C1.39478 11.3535 1.37453 11.3917 1.34978 11.4232C1.32503 11.4547 1.30478 11.493 1.30478 11.5087C1.30478 11.5245 1.27553 11.5762 1.23728 11.628C1.20128 11.6775 1.16528 11.7495 1.15628 11.7832C1.14728 11.817 1.12928 11.862 1.11353 11.88C1.10003 11.898 1.07528 11.9452 1.05953 11.9857C1.04378 12.024 1.01228 12.0735 0.987531 12.096C0.965031 12.1162 0.940281 12.1702 0.931281 12.2152C0.924531 12.2602 0.904281 12.3187 0.886281 12.3457C0.868281 12.3727 0.854781 12.4087 0.854781 12.4267C0.854781 12.4425 0.818781 12.51 0.776031 12.5775C0.728781 12.6517 0.697281 12.7305 0.697281 12.7732C0.697281 12.8137 0.677031 12.897 0.652281 12.96C0.627531 13.023 0.607281 13.0905 0.607281 13.113C0.607281 13.1332 0.575781 13.212 0.539781 13.284C0.490281 13.3785 0.472281 13.4482 0.472281 13.5315C0.472281 13.5945 0.461031 13.6845 0.447531 13.7317C0.436281 13.7767 0.411531 13.8982 0.393531 14.0017C0.375531 14.103 0.335031 14.328 0.301281 14.5012C0.240531 14.8117 0.240531 14.8297 0.238281 15.7162C0.238281 16.3777 0.245031 16.6567 0.267531 16.7737C0.296781 16.9245 0.404781 17.4195 0.449781 17.6062C0.461031 17.6557 0.472281 17.7412 0.472281 17.793C0.472281 17.8537 0.499281 17.9482 0.539781 18.0382C0.575781 18.117 0.607281 18.2002 0.607281 18.2205C0.607281 18.2407 0.623031 18.288 0.643281 18.3262C0.663531 18.3622 0.683781 18.45 0.690531 18.5175C0.697281 18.5962 0.724281 18.6772 0.764781 18.7425C0.836781 18.864 0.913281 19.0575 0.933531 19.1767C0.940281 19.224 0.960531 19.2667 0.978531 19.2735C0.994281 19.2802 1.02578 19.3275 1.04603 19.3792C1.06628 19.431 1.09553 19.4895 1.11128 19.5075C1.12928 19.5255 1.14728 19.5817 1.15403 19.6312C1.16303 19.6807 1.18328 19.7302 1.19903 19.7437C1.21703 19.755 1.24853 19.8022 1.27103 19.845C1.29353 19.8877 1.32953 19.9485 1.35203 19.9777C1.37678 20.007 1.39478 20.0587 1.39478 20.0947C1.39478 20.1375 1.41503 20.1712 1.45778 20.2027C1.49378 20.2275 1.55003 20.3062 1.58153 20.3805C1.61528 20.4525 1.68728 20.5582 1.74353 20.6145C1.79978 20.6707 1.84478 20.7382 1.84478 20.7652C1.84478 20.7922 1.86728 20.8327 1.89653 20.8575C2.01353 20.9677 2.04953 21.006 2.06078 21.0487C2.06978 21.0735 2.11253 21.1365 2.15753 21.186C2.20253 21.2377 2.25878 21.3075 2.28353 21.3412C2.30828 21.3772 2.37578 21.4537 2.43653 21.5145C2.49503 21.573 2.54228 21.6315 2.54228 21.6427C2.54228 21.654 2.58953 21.7057 2.64803 21.7575C2.70878 21.8092 2.77178 21.8835 2.78978 21.9217C2.80778 21.9622 2.85728 22.0095 2.90003 22.0297C2.94503 22.05 2.99228 22.0972 3.01253 22.1422C3.03278 22.1872 3.08453 22.2367 3.13403 22.2637C3.17903 22.2885 3.22403 22.329 3.23078 22.3537C3.25103 22.4167 3.32978 22.5 3.37028 22.5C3.39053 22.5 3.45353 22.5472 3.50978 22.6057C3.62453 22.7227 3.86978 22.923 4.02278 23.0265C4.07453 23.0602 4.12853 23.1097 4.14203 23.1345C4.15553 23.1592 4.19828 23.193 4.24103 23.2087C4.28153 23.2267 4.35353 23.2807 4.40078 23.3325C4.44803 23.382 4.50203 23.4225 4.51778 23.4225C4.55378 23.4225 4.84853 23.6092 4.87103 23.6475C4.87778 23.6587 4.90028 23.67 4.91828 23.67C4.93628 23.67 5.00378 23.7105 5.06903 23.7577C5.13428 23.805 5.25578 23.877 5.33903 23.9152C5.42453 23.9535 5.52803 24.0142 5.57078 24.0525C5.61353 24.0885 5.67428 24.12 5.70353 24.12C5.73278 24.12 5.76428 24.1312 5.77328 24.1447C5.78003 24.1582 5.83178 24.1875 5.88353 24.21C5.93753 24.2325 5.99378 24.273 6.00728 24.2977C6.02303 24.3292 6.05453 24.345 6.09503 24.345C6.16478 24.345 6.37628 24.435 6.50228 24.516C6.54503 24.5452 6.62828 24.579 6.68903 24.5925C6.74753 24.6037 6.88253 24.66 6.99053 24.7162C7.11653 24.7815 7.21328 24.8175 7.26503 24.8175C7.31003 24.8175 7.36628 24.831 7.39103 24.849C7.41578 24.8647 7.47653 24.8917 7.52603 24.9075C7.57553 24.9232 7.65878 24.9592 7.71053 24.9862C7.76003 25.0155 7.86353 25.0447 7.93553 25.0515C8.00753 25.0605 8.13803 25.092 8.22803 25.1235C8.31578 25.1527 8.40353 25.1775 8.41928 25.1775C8.43728 25.1775 8.49128 25.1977 8.53853 25.2225C8.59703 25.254 8.69153 25.2742 8.80853 25.281C8.90753 25.2877 9.03353 25.308 9.08978 25.3237C9.14603 25.3417 9.27653 25.371 9.38228 25.3912C9.48803 25.4115 9.63428 25.4475 9.70853 25.47C9.81203 25.5015 9.94028 25.515 10.271 25.524C10.5073 25.5307 10.7368 25.5465 10.7863 25.5622C10.8763 25.587 12.3005 25.5757 12.476 25.5487C12.5255 25.5397 12.746 25.5262 12.9643 25.5172C13.214 25.506 13.3738 25.4902 13.394 25.4745C13.4278 25.4475 13.5538 25.4137 13.772 25.38C13.8418 25.3687 13.9273 25.3485 13.9633 25.3327C13.9993 25.3192 14.1208 25.299 14.2355 25.29C14.3638 25.2787 14.4785 25.254 14.5393 25.227C14.672 25.164 14.9938 25.0695 15.1423 25.0515C15.2098 25.0425 15.338 25.002 15.4258 24.9592C15.5158 24.9187 15.6013 24.885 15.6193 24.885C15.6373 24.885 15.671 24.8692 15.6958 24.8512C15.7183 24.8332 15.779 24.8175 15.8308 24.8175C15.8938 24.8175 15.9365 24.804 15.9635 24.7725C15.986 24.7477 16.0175 24.7275 16.031 24.7275C16.0468 24.7275 16.1188 24.6982 16.1908 24.66C16.2628 24.624 16.346 24.5925 16.373 24.5925C16.4023 24.5925 16.526 24.5407 16.6475 24.4777C16.7848 24.408 16.9153 24.3585 16.9783 24.3495C17.0345 24.3427 17.0863 24.3247 17.093 24.3067C17.1088 24.264 17.4103 24.12 17.4845 24.12C17.5183 24.12 17.552 24.111 17.561 24.0975C17.5813 24.0637 17.9345 23.895 17.9863 23.895C18.011 23.895 18.056 23.8815 18.083 23.8657C18.299 23.7442 18.452 23.6745 18.5285 23.6587C18.578 23.652 18.6343 23.6295 18.6545 23.6115C18.7153 23.5575 18.9628 23.4472 19.055 23.4315C19.1045 23.4225 19.163 23.3977 19.1833 23.3752C19.2035 23.3527 19.2575 23.3235 19.3025 23.3077C19.3475 23.2942 19.3993 23.2672 19.4195 23.2515C19.4375 23.2335 19.5028 23.211 19.5613 23.1997C19.6198 23.1885 19.685 23.1637 19.7075 23.1435C19.73 23.1232 19.757 23.1075 19.7683 23.1075C19.7818 23.1075 19.8358 23.0782 19.892 23.0445C19.946 23.0085 20.0338 22.9725 20.0855 22.9657C20.1373 22.9567 20.2408 22.914 20.3173 22.869C20.3938 22.8217 20.522 22.7677 20.603 22.7452C20.6863 22.7227 20.774 22.6845 20.7988 22.6597C20.8258 22.6372 20.8708 22.6102 20.9023 22.6012C20.9338 22.5922 20.99 22.5652 21.0283 22.5427C21.0665 22.518 21.134 22.5 21.1745 22.5C21.2263 22.5 21.26 22.4865 21.2803 22.455C21.296 22.4302 21.323 22.41 21.341 22.41C21.3793 22.41 21.4445 22.3762 21.53 22.3132C21.5593 22.293 21.6088 22.275 21.6403 22.275C21.6718 22.275 21.7865 22.23 21.8923 22.1737C22.0003 22.1197 22.1375 22.0635 22.1983 22.05C22.259 22.0365 22.322 22.0117 22.3423 21.9937C22.3963 21.9442 22.7068 21.8025 22.7608 21.8025C22.7878 21.8025 22.8328 21.7845 22.862 21.762C22.9475 21.6967 23.213 21.5775 23.2715 21.5775C23.3008 21.5775 23.3503 21.5595 23.3795 21.537C23.4673 21.4717 23.7125 21.3525 23.7598 21.3525C23.7845 21.3525 23.897 21.303 24.0118 21.2422C24.1265 21.1815 24.2615 21.1252 24.311 21.1162C24.3583 21.1072 24.4258 21.0825 24.4573 21.06C24.554 20.9925 24.7565 20.9047 24.8578 20.889C24.9163 20.88 24.9635 20.8575 24.9748 20.8327C24.9883 20.8125 25.0355 20.781 25.0805 20.7652C25.1278 20.7517 25.1908 20.7202 25.22 20.6977C25.2493 20.673 25.3078 20.655 25.3483 20.655C25.3888 20.655 25.436 20.6415 25.4518 20.6257C25.5013 20.5807 25.769 20.4547 25.8523 20.4367C25.895 20.43 26.0075 20.3805 26.0998 20.3265C26.192 20.2725 26.3203 20.2162 26.381 20.2005C26.444 20.187 26.5093 20.16 26.5273 20.1442C26.6128 20.0745 26.8738 19.9575 26.9435 19.9575C26.9863 19.9575 27.029 19.944 27.038 19.926C27.0628 19.8855 27.3778 19.7325 27.4408 19.7325C27.4678 19.7325 27.5038 19.71 27.524 19.6807C27.542 19.6537 27.6163 19.5952 27.6883 19.5525C27.7625 19.5097 27.8705 19.4265 27.929 19.368C27.9875 19.3072 28.0505 19.26 28.0685 19.26C28.1045 19.26 28.2148 19.134 28.2148 19.089C28.2148 19.071 28.2238 19.0575 28.2373 19.0575C28.2688 19.0575 28.4173 18.9157 28.4173 18.8865C28.4173 18.873 28.4375 18.8437 28.4623 18.8212C28.4893 18.7965 28.532 18.7402 28.5568 18.693C28.5838 18.6457 28.613 18.6075 28.622 18.6075C28.6333 18.6075 28.6513 18.567 28.6648 18.5175C28.6783 18.468 28.712 18.3915 28.739 18.3487C28.8785 18.1305 28.8898 18.1057 28.8898 18.0135C28.8898 17.9617 28.901 17.9077 28.9145 17.8942C28.928 17.8807 28.9595 17.7705 28.9843 17.649C29.0495 17.3295 29.0495 16.7872 28.9843 16.4925C28.9573 16.3755 28.9258 16.2225 28.9123 16.155C28.8965 16.0875 28.8695 15.9997 28.8515 15.9637C28.7255 15.7207 28.6648 15.588 28.6648 15.5565C28.6648 15.5362 28.6175 15.4597 28.5613 15.3855C28.505 15.3112 28.4488 15.2257 28.4353 15.1965C28.3835 15.0862 27.7423 14.4405 27.6523 14.4112C27.6343 14.4045 27.569 14.355 27.5105 14.2987C27.452 14.2425 27.389 14.1975 27.3733 14.1975C27.3575 14.1975 27.317 14.1772 27.2855 14.1525C27.254 14.1277 27.2203 14.1075 27.2068 14.1075C27.1955 14.1075 27.1438 14.076 27.0898 14.0377C27.038 13.9995 26.9615 13.9635 26.9188 13.9567C26.8783 13.95 26.831 13.9297 26.8175 13.914C26.804 13.896 26.7815 13.8825 26.7703 13.8825C26.7523 13.8825 26.6083 13.824 26.4935 13.7677C26.4688 13.7565 26.399 13.734 26.336 13.716C26.2753 13.7002 26.102 13.6485 25.9535 13.6035C25.6048 13.4955 25.3303 13.4685 24.7115 13.4865C24.3223 13.4977 24.2143 13.5067 24.1153 13.5427C23.9015 13.6192 23.564 13.725 23.5325 13.725C23.5055 13.725 23.2895 13.8217 23.1028 13.9185C23.0713 13.9365 23.024 13.95 22.997 13.95C22.9723 13.95 22.844 14.0017 22.7158 14.0625C22.5853 14.1255 22.448 14.1817 22.4075 14.1907C22.367 14.1975 22.2995 14.229 22.259 14.256C22.2163 14.283 22.133 14.3235 22.0723 14.3437C22.0093 14.364 21.9553 14.391 21.9485 14.4022C21.9395 14.4135 21.908 14.4225 21.8743 14.4225C21.8405 14.4225 21.7685 14.454 21.7145 14.49C21.6605 14.5282 21.5975 14.5575 21.575 14.5575C21.5525 14.5575 21.5188 14.5732 21.5008 14.5935C21.4805 14.6115 21.4265 14.634 21.3815 14.6407C21.3343 14.6475 21.2803 14.6655 21.2623 14.6812C21.2038 14.7307 20.9608 14.8455 20.8573 14.8725C20.7425 14.9017 20.5715 14.9782 20.5513 15.0097C20.5445 15.021 20.522 15.03 20.5018 15.03C20.4793 15.03 20.4253 15.0502 20.378 15.075C20.333 15.0997 20.2723 15.12 20.2453 15.12C20.216 15.12 20.153 15.1515 20.1058 15.1875C20.0563 15.2257 19.9955 15.255 19.9663 15.255C19.9393 15.255 19.9055 15.2707 19.8898 15.2887C19.874 15.3067 19.8268 15.327 19.784 15.336C19.739 15.345 19.6063 15.399 19.487 15.4597C19.3678 15.5205 19.244 15.57 19.2125 15.57C19.1788 15.57 19.1293 15.588 19.1 15.6105C19.0258 15.669 18.7963 15.7747 18.6748 15.8062C18.6185 15.822 18.533 15.8602 18.4858 15.894C18.4385 15.9255 18.3845 15.9525 18.3688 15.9525C18.3508 15.9525 18.299 15.9727 18.254 15.9975C18.2068 16.0222 18.146 16.0425 18.1168 16.0425C18.0875 16.0425 18.0358 16.0605 18.0043 16.0852C17.921 16.1437 17.642 16.2675 17.5925 16.2675C17.57 16.2675 17.5093 16.2967 17.4553 16.3327C17.4013 16.3687 17.3338 16.4047 17.3023 16.4137C17.2708 16.4227 17.2258 16.4452 17.201 16.461C17.1763 16.479 17.1313 16.4925 17.0998 16.4925C17.0683 16.4925 17.0075 16.5127 16.9648 16.5375C16.8343 16.614 16.616 16.7107 16.544 16.7265C16.508 16.7355 16.3775 16.7917 16.2538 16.8525C16.1323 16.9155 16.0085 16.965 15.9815 16.965C15.9545 16.965 15.9275 16.974 15.9185 16.9852C15.8983 17.019 15.5765 17.1652 15.4685 17.19C15.4145 17.2012 15.3223 17.2417 15.2615 17.28C15.203 17.316 15.1333 17.3475 15.1063 17.3475C15.0793 17.3475 15.0455 17.361 15.032 17.379C15.0185 17.3947 14.978 17.415 14.942 17.4217C14.906 17.4285 14.8295 17.4667 14.7688 17.505C14.7103 17.541 14.645 17.5725 14.6225 17.5725C14.6023 17.5725 14.573 17.586 14.5595 17.604C14.546 17.6197 14.4988 17.64 14.4538 17.6467C14.4088 17.6535 14.285 17.7052 14.177 17.7615C14.069 17.8177 13.9318 17.874 13.8733 17.8875C13.8148 17.901 13.7293 17.9347 13.6798 17.9662C13.6325 17.9955 13.565 18.027 13.529 18.036C13.4953 18.045 13.4503 18.063 13.4323 18.0787C13.4143 18.0945 13.3648 18.1125 13.3243 18.1192C13.2838 18.1282 13.2185 18.1597 13.178 18.189C13.1375 18.2182 13.0768 18.252 13.0385 18.261C13.0025 18.2677 12.9553 18.288 12.9373 18.3037C12.9193 18.3195 12.8563 18.3375 12.8 18.3442C12.7438 18.351 12.6448 18.3847 12.5795 18.4162C12.5165 18.45 12.4265 18.4815 12.3793 18.4882C12.3343 18.495 12.2668 18.5175 12.2285 18.5377C12.1273 18.5917 10.8133 18.5917 10.6648 18.5355C10.6085 18.5152 10.5275 18.4927 10.4825 18.486C10.4375 18.477 10.352 18.4455 10.2913 18.4162C10.2305 18.3847 10.136 18.3532 10.0798 18.3442C10.0235 18.3375 9.96278 18.3195 9.94478 18.3015C9.92678 18.2857 9.88403 18.2677 9.85028 18.2587C9.81878 18.2497 9.76478 18.2137 9.73328 18.1777C9.69278 18.135 9.65228 18.1125 9.60953 18.1125C9.56453 18.1125 9.51503 18.0855 9.45653 18.0315C9.40928 17.9865 9.34628 17.9347 9.31478 17.9145C9.16403 17.8222 9.04478 17.739 9.04478 17.7255C9.04478 17.7165 8.95478 17.6197 8.84453 17.5095C8.73428 17.397 8.63753 17.2867 8.62853 17.2597C8.62178 17.2327 8.60603 17.2125 8.59478 17.2125C8.58353 17.2125 8.56778 17.19 8.56103 17.1652C8.55203 17.1382 8.50028 17.0595 8.44628 16.9897C8.39453 16.92 8.34278 16.8322 8.33378 16.7962C8.32478 16.758 8.28428 16.668 8.24603 16.5937C8.10428 16.3215 8.09528 16.2675 8.09528 15.6735V15.1312L8.16728 14.9175C8.20778 14.8005 8.25953 14.6857 8.28203 14.6632C8.30453 14.6407 8.32478 14.5935 8.32478 14.5575C8.32478 14.5147 8.36078 14.4495 8.44178 14.3482C8.50703 14.2672 8.57678 14.1795 8.59478 14.1502C8.63303 14.0872 9.13478 13.59 9.15728 13.59C9.16628 13.59 9.20003 13.5652 9.23378 13.5337C9.26753 13.5022 9.31253 13.4775 9.33503 13.4775C9.35528 13.4775 9.40253 13.4482 9.44078 13.4145C9.52178 13.3335 9.63203 13.2817 9.77153 13.2547C9.83228 13.2435 9.90203 13.2165 9.92903 13.1917C10.0123 13.1197 10.2148 13.0275 10.2935 13.0275C10.334 13.0275 10.3903 13.0095 10.4195 12.987C10.4915 12.9307 10.7705 12.8092 10.8605 12.7935C10.901 12.7867 10.973 12.7575 11.0225 12.726C11.1418 12.6495 11.3713 12.555 11.4343 12.555C11.4635 12.555 11.5108 12.5392 11.54 12.519C11.6458 12.4447 11.8483 12.3525 11.936 12.339C11.9855 12.33 12.0508 12.3075 12.0823 12.2895C12.2083 12.2085 12.4378 12.1117 12.5278 12.0982C12.5818 12.0915 12.6425 12.0712 12.6628 12.0532C12.728 11.9947 12.9665 11.88 13.025 11.88C13.0543 11.88 13.1803 11.8305 13.3018 11.7675C13.4233 11.7067 13.565 11.6482 13.619 11.6415C13.6708 11.6347 13.7428 11.6077 13.7765 11.583C13.8778 11.5132 14.114 11.4075 14.1725 11.4075C14.2018 11.4075 14.3075 11.3602 14.4065 11.304C14.5078 11.2477 14.636 11.1937 14.6945 11.1825C14.7508 11.1712 14.8813 11.1172 14.987 11.0632C15.0905 11.007 15.221 10.9552 15.2773 10.9462C15.3335 10.9372 15.4078 10.908 15.446 10.8832C15.545 10.8112 15.77 10.71 15.8263 10.71C15.8533 10.71 15.977 10.6582 16.0985 10.5975C16.22 10.5345 16.346 10.485 16.3775 10.485C16.409 10.485 16.4563 10.4715 16.4833 10.4557C16.67 10.3477 16.8568 10.2622 16.9423 10.2487C16.9985 10.2397 17.0593 10.2195 17.0773 10.2015C17.0975 10.1857 17.1605 10.1497 17.2168 10.125C17.2753 10.1002 17.3293 10.071 17.3338 10.0597C17.3405 10.0485 17.4013 10.0327 17.471 10.0237C17.5385 10.017 17.5993 10.0012 17.606 9.98997C17.6263 9.95622 17.9908 9.78747 18.0403 9.78747C18.065 9.78747 18.173 9.74022 18.2833 9.68172C18.3913 9.62322 18.5308 9.56922 18.5938 9.56022C18.6545 9.54897 18.7108 9.53322 18.7175 9.52197C18.7445 9.48147 19.064 9.33972 19.1608 9.32397C19.2148 9.31722 19.2665 9.30147 19.271 9.29022C19.2935 9.25647 19.5905 9.11472 19.6783 9.09897C19.7278 9.08997 19.8605 9.03372 19.9753 8.97297C20.1058 8.90547 20.2138 8.86497 20.261 8.86497C20.3038 8.86497 20.342 8.85597 20.351 8.84247C20.3713 8.80872 20.7043 8.64897 20.7898 8.63097C20.8325 8.62422 20.954 8.57247 21.062 8.51622C21.1678 8.46222 21.3005 8.41047 21.3545 8.40147C21.4085 8.39247 21.4805 8.36322 21.5143 8.33397C21.548 8.30697 21.6065 8.27772 21.6425 8.26872C21.6785 8.26197 21.7213 8.23947 21.7348 8.22372C21.7483 8.20572 21.809 8.18547 21.8653 8.17872C21.9238 8.16972 21.9958 8.14722 22.0273 8.12472C22.124 8.05722 22.3715 7.96272 22.4975 7.94022C22.565 7.93122 22.6348 7.90647 22.655 7.89072C22.7113 7.84122 23.1028 7.72422 23.2558 7.70847C23.33 7.70172 23.4425 7.67472 23.5033 7.64772C23.6923 7.56672 24.1108 7.46997 24.2795 7.46997C24.365 7.46997 24.473 7.45422 24.518 7.43622C24.7408 7.35072 25.4675 7.30572 26.4148 7.31922C27.1618 7.33047 27.299 7.34172 27.6793 7.42722C27.7873 7.44972 27.938 7.46997 28.0168 7.46997C28.0955 7.46997 28.2328 7.49022 28.325 7.51497C28.4173 7.53972 28.5118 7.55997 28.5365 7.55997C28.559 7.55997 28.6625 7.58922 28.7638 7.62522C28.865 7.66122 29.018 7.69722 29.1035 7.70622C29.1913 7.71522 29.2925 7.73547 29.3285 7.75122C29.3668 7.76472 29.4568 7.79622 29.531 7.81872C29.6053 7.84347 29.702 7.87947 29.7448 7.90197C29.7875 7.92447 29.864 7.94247 29.9158 7.94247C29.9698 7.94247 30.0215 7.95597 30.0373 7.97622C30.053 7.99422 30.1003 8.01447 30.143 8.02347C30.1858 8.03247 30.2488 8.06172 30.2848 8.09322C30.323 8.12472 30.3973 8.15397 30.4693 8.16747C30.5345 8.17647 30.6965 8.23722 30.8293 8.30022C30.962 8.36322 31.0948 8.41497 31.1263 8.41497C31.1578 8.41497 31.1893 8.42622 31.196 8.43747C31.205 8.45097 31.2523 8.48247 31.304 8.50722C31.3558 8.53422 31.4165 8.57472 31.439 8.59722C31.4615 8.62197 31.4975 8.63997 31.5223 8.63997C31.5673 8.63997 31.8485 8.78622 31.9003 8.83572C31.916 8.85147 31.9475 8.86497 31.9678 8.86497C32.006 8.86497 32.0465 8.88747 32.231 9.01572C32.2873 9.05622 32.3458 9.08997 32.3593 9.08997C32.4043 9.08997 32.5775 9.21147 32.6 9.26097C32.6113 9.28797 32.6495 9.31497 32.6923 9.32397C32.7328 9.33072 32.8228 9.38697 32.8925 9.44547C32.9623 9.50622 33.059 9.57822 33.1085 9.60747C33.158 9.63672 33.2233 9.68847 33.2548 9.71997C33.2863 9.75147 33.3493 9.80322 33.3965 9.83022C33.4438 9.85947 33.4955 9.91122 33.5135 9.94497C33.5338 9.98322 33.5765 10.0192 33.626 10.035C33.68 10.053 33.725 10.0912 33.761 10.1497C33.7925 10.197 33.842 10.242 33.8713 10.251C33.9005 10.2577 33.9568 10.3027 33.995 10.3522C34.0355 10.3995 34.0963 10.4557 34.1345 10.4737C34.1705 10.494 34.211 10.5345 34.2223 10.5637C34.2335 10.593 34.2853 10.6492 34.3393 10.6875C34.391 10.7257 34.4473 10.7865 34.463 10.8247C34.4788 10.8607 34.5215 10.908 34.5575 10.9305C34.5958 10.9507 34.643 11.0025 34.6655 11.043C34.688 11.0835 34.7443 11.1465 34.7915 11.1847C34.8365 11.2207 34.8883 11.286 34.9063 11.3287C34.9243 11.3692 34.9558 11.4097 34.9805 11.4165C35.003 11.4255 35.0458 11.4682 35.0773 11.511C35.1088 11.556 35.165 11.6302 35.201 11.6752C35.2393 11.7202 35.318 11.8282 35.3765 11.916C35.435 12.0037 35.507 12.0982 35.5385 12.1275C35.57 12.1567 35.5948 12.1927 35.5948 12.2085C35.5948 12.222 35.6263 12.2737 35.6645 12.321C35.75 12.4312 36.0425 12.924 36.074 13.0162C36.0875 13.0522 36.119 13.1197 36.146 13.1625C36.1955 13.2435 36.2203 13.293 36.371 13.635C36.4183 13.7407 36.4655 13.8442 36.4768 13.8667C36.5398 13.9905 36.8233 14.8545 36.8548 15.0187C36.8705 15.093 36.8953 15.2235 36.9133 15.3112C36.929 15.3967 36.9515 15.5137 36.965 15.57C37.0528 15.9637 37.0663 16.1235 37.0663 16.8412C37.0685 17.424 37.0618 17.6017 37.0303 17.775C37.01 17.892 36.9808 18.054 36.9673 18.135C36.9088 18.4882 36.8773 18.6502 36.8458 18.7762C36.7715 19.071 36.758 19.1182 36.7175 19.2262C36.695 19.2892 36.6748 19.3545 36.6748 19.3747C36.6748 19.3927 36.6455 19.4535 36.6118 19.5097C36.5758 19.5637 36.542 19.647 36.533 19.6942C36.5173 19.8 36.416 20.0137 36.3463 20.0992C36.317 20.1352 36.2923 20.1847 36.2923 20.2095C36.2923 20.2657 36.2023 20.4525 36.1753 20.4525C36.1663 20.4525 36.1573 20.466 36.1573 20.4817C36.1573 20.4997 36.137 20.5357 36.1123 20.565C36.0875 20.5942 36.0673 20.6302 36.0673 20.6482C36.0673 20.6955 35.966 20.862 35.8985 20.925C35.867 20.9542 35.8423 20.9992 35.8423 21.0262C35.8423 21.0532 35.822 21.0982 35.7973 21.1275C35.7725 21.1567 35.7523 21.1905 35.7523 21.204C35.7523 21.2152 35.7208 21.258 35.6848 21.2962C35.6465 21.3367 35.597 21.402 35.5745 21.4447C35.552 21.4875 35.5048 21.5415 35.4665 21.5662C35.4305 21.591 35.381 21.654 35.3608 21.7057C35.3383 21.7597 35.3113 21.8025 35.3023 21.8025C35.2753 21.8025 35.1448 21.942 35.1448 21.9712C35.1448 21.9825 35.0953 22.0432 35.0368 22.1062C34.9783 22.167 34.8905 22.266 34.8433 22.3245C34.796 22.3852 34.742 22.4325 34.7263 22.4325C34.7083 22.4325 34.6948 22.4392 34.6948 22.4482C34.6948 22.491 34.2088 22.9455 34.1345 22.9747C34.1143 22.9837 34.058 23.0355 34.0063 23.0917C33.9523 23.1525 33.887 23.1975 33.8443 23.2087C33.806 23.2155 33.7678 23.2425 33.761 23.265C33.7543 23.2875 33.7003 23.337 33.6418 23.3752C33.536 23.4427 33.4235 23.5237 33.302 23.6182C33.266 23.6475 33.2165 23.67 33.194 23.67C33.1693 23.67 33.1265 23.6947 33.0973 23.7262C33.0365 23.7915 32.8678 23.895 32.825 23.895C32.8003 23.895 32.6315 23.9962 32.6023 24.0322C32.5685 24.0705 32.474 24.12 32.4335 24.12C32.4088 24.12 32.366 24.1335 32.3413 24.1492C32.0668 24.3067 31.9948 24.3427 31.925 24.354C31.8778 24.363 31.8148 24.39 31.7833 24.4147C31.7 24.48 31.4818 24.5835 31.3895 24.6015C31.3468 24.6082 31.2815 24.6375 31.2433 24.6667C31.1713 24.7185 30.9733 24.8017 30.8653 24.8265C30.8338 24.8332 30.7753 24.8647 30.7393 24.8962C30.701 24.9277 30.6403 24.9592 30.602 24.966C30.5638 24.975 30.521 24.9952 30.5075 25.011C30.494 25.029 30.4423 25.0492 30.395 25.056C30.3478 25.065 30.2915 25.0897 30.2713 25.1122C30.251 25.137 30.224 25.155 30.2128 25.155C30.2015 25.155 30.1273 25.1842 30.0485 25.2225C29.9698 25.2585 29.8888 25.29 29.8708 25.29C29.8505 25.29 29.7515 25.335 29.6503 25.3912C29.549 25.4475 29.4298 25.5015 29.3848 25.5127C29.342 25.5217 29.2633 25.5577 29.2138 25.5892C29.1035 25.659 28.8605 25.7625 28.811 25.7625C28.7908 25.7625 28.73 25.7917 28.676 25.83C28.622 25.866 28.568 25.8975 28.5545 25.8975C28.541 25.8975 28.4915 25.9177 28.4465 25.9425C28.3993 25.9672 28.343 25.9875 28.3228 25.9875C28.3003 25.9875 28.2395 26.019 28.1878 26.055C28.1383 26.0932 28.0775 26.1225 28.0573 26.1225C28.0348 26.1225 28.0055 26.136 27.992 26.154C27.9785 26.172 27.9223 26.1967 27.8683 26.2102C27.8143 26.2237 27.758 26.2485 27.7423 26.2687C27.7265 26.2867 27.704 26.3025 27.6928 26.3025C27.6815 26.3025 27.6118 26.3317 27.5353 26.37C27.461 26.406 27.389 26.4375 27.3733 26.4375C27.3598 26.4375 27.2473 26.4892 27.1258 26.55C27.0043 26.613 26.8873 26.6625 26.867 26.6625C26.8468 26.6625 26.8063 26.6782 26.7748 26.6962C26.6015 26.7952 26.3585 26.91 26.3225 26.91C26.3 26.91 26.2168 26.946 26.138 26.9887C26.0593 27.0315 25.9783 27.0675 25.9603 27.0675C25.94 27.0675 25.913 27.0832 25.8973 27.1012C25.8815 27.1192 25.8433 27.135 25.8095 27.135C25.7758 27.135 25.7263 27.1507 25.697 27.171C25.589 27.2475 25.3528 27.36 25.301 27.36C25.2718 27.36 25.2403 27.3712 25.2335 27.3847C25.2133 27.4162 24.8735 27.5782 24.7835 27.5985C24.7475 27.6075 24.7025 27.6232 24.6868 27.6367C24.635 27.6772 24.2908 27.8325 24.2503 27.8325C24.23 27.8325 24.167 27.8617 24.113 27.9C24.0568 27.936 24.0028 27.9675 23.9938 27.9675C23.9825 27.9697 23.933 27.9877 23.8835 28.0125C23.834 28.0372 23.7755 28.0552 23.7508 28.0575C23.7283 28.0575 23.6518 28.0935 23.5798 28.1362C23.5078 28.179 23.4358 28.215 23.4155 28.215C23.3975 28.215 23.3705 28.2285 23.357 28.2465C23.3435 28.2645 23.285 28.2847 23.231 28.2937C23.1748 28.3005 23.1298 28.3185 23.1298 28.3297C23.1298 28.341 23.1028 28.3612 23.069 28.3747C23.0353 28.3882 22.9588 28.422 22.898 28.4535C22.8373 28.4827 22.7765 28.5075 22.763 28.5075C22.7473 28.5075 22.7113 28.521 22.6798 28.539C22.6483 28.5547 22.5448 28.611 22.4503 28.6605C22.3558 28.7122 22.259 28.755 22.2365 28.755C22.214 28.755 22.1038 28.8 21.9935 28.8562C21.881 28.9125 21.7393 28.9732 21.6785 28.9912C21.6155 29.0092 21.5435 29.043 21.5188 29.0655C21.494 29.0902 21.4355 29.1217 21.3905 29.1352C21.3455 29.151 21.3028 29.1712 21.296 29.1825C21.2893 29.1915 21.2465 29.2072 21.2015 29.2162C21.1543 29.2252 21.0913 29.25 21.0598 29.2725C20.9653 29.3377 20.7043 29.4525 20.648 29.4525C20.6165 29.4525 20.5805 29.4682 20.5648 29.4862C20.5243 29.5357 20.2295 29.6775 20.1688 29.6775C20.1395 29.6775 20.1103 29.6865 20.1035 29.7C20.0878 29.7247 19.721 29.9025 19.685 29.9025C19.6648 29.9025 19.4938 29.9812 19.3948 30.0352C19.3115 30.0825 19.1428 30.15 19.1135 30.15C19.0933 30.15 19.0415 30.1725 18.9943 30.2017C18.8773 30.276 18.6545 30.375 18.6073 30.375C18.587 30.375 18.542 30.3952 18.5128 30.42C18.4363 30.4785 18.173 30.6 18.1168 30.6C18.092 30.6 18.0493 30.618 18.02 30.6405C17.9593 30.6855 17.813 30.7575 17.7793 30.7575C17.768 30.7575 17.7455 30.7732 17.7298 30.7912C17.714 30.8092 17.6758 30.825 17.642 30.825C17.6105 30.825 17.561 30.8385 17.534 30.8542C17.3383 30.9645 17.165 31.05 17.1358 31.05C17.1088 31.05 16.9288 31.1332 16.6678 31.266C16.6363 31.284 16.58 31.2975 16.544 31.2975C16.5035 31.2975 16.4495 31.3222 16.4045 31.3627C16.3618 31.401 16.301 31.437 16.265 31.4437C16.2313 31.4527 16.1908 31.473 16.175 31.491C16.1615 31.509 16.1165 31.5225 16.076 31.5225C16.0355 31.5225 15.9793 31.5405 15.95 31.563C15.8713 31.6237 15.617 31.743 15.5248 31.7587C15.482 31.7677 15.4303 31.788 15.4123 31.8037C15.3493 31.8555 15.1085 31.9747 15.032 31.9905C14.9825 32.0017 14.9308 32.0377 14.888 32.0917L14.8183 32.175L14.8768 32.238C14.9105 32.2717 14.9623 32.3482 14.9938 32.409C15.0253 32.4697 15.095 32.571 15.149 32.634C15.203 32.697 15.2548 32.778 15.2638 32.814C15.2728 32.8477 15.3065 32.8995 15.3403 32.9287C15.374 32.958 15.4213 33.0187 15.4438 33.0682C15.5068 33.1897 15.6283 33.3765 15.6688 33.4102C15.6868 33.426 15.7093 33.471 15.7183 33.5092C15.725 33.5497 15.761 33.606 15.797 33.6375C15.8308 33.669 15.8915 33.7545 15.9275 33.831C15.9658 33.9052 16.0378 34.0132 16.0873 34.0695C16.1368 34.128 16.1773 34.1932 16.1773 34.218C16.1773 34.245 16.1998 34.281 16.229 34.3012C16.2785 34.335 16.3505 34.4407 16.4135 34.5712C16.4293 34.6072 16.49 34.695 16.5463 34.7625C16.6025 34.83 16.6498 34.9065 16.6498 34.9335C16.6498 34.9582 16.6768 34.9987 16.7128 35.0257C16.7465 35.0505 16.8028 35.1315 16.841 35.2035C16.877 35.2755 16.949 35.3857 17.003 35.4487C17.057 35.5095 17.0998 35.5837 17.0998 35.6107C17.0998 35.6377 17.12 35.6737 17.147 35.6917C17.1875 35.721 17.3473 35.9415 17.3473 35.9685C17.3473 35.9752 17.399 36.045 17.4598 36.126C17.5228 36.207 17.5723 36.2902 17.5723 36.3127C17.5723 36.3352 17.597 36.3712 17.6263 36.3892C17.6555 36.4095 17.723 36.504 17.777 36.6007C17.8288 36.6952 17.9053 36.81 17.9458 36.855C17.9863 36.9 18.0245 36.9607 18.0335 36.9922C18.0403 37.0237 18.074 37.0755 18.1078 37.107C18.1415 37.1385 18.2 37.224 18.236 37.296C18.272 37.3702 18.3395 37.4692 18.3868 37.5187C18.434 37.5682 18.4813 37.6425 18.4925 37.683C18.5038 37.7235 18.5375 37.7752 18.5668 37.7977C18.596 37.8202 18.6523 37.9057 18.6928 37.9867C18.7355 38.0677 18.8075 38.178 18.857 38.232C18.9043 38.286 18.9493 38.3557 18.956 38.3895C18.965 38.4255 18.9853 38.4615 19.0033 38.4705C19.0393 38.4907 19.1923 38.7135 19.1923 38.745C19.1923 38.7562 19.2418 38.8282 19.3048 38.9047C19.3655 38.9812 19.4173 39.06 19.4173 39.078C19.4173 39.096 19.451 39.15 19.4915 39.195C19.577 39.2962 19.6648 39.4357 19.6648 39.4717C19.6648 39.4875 19.7098 39.5482 19.766 39.6067C19.82 39.6675 19.8718 39.7462 19.8785 39.7822C19.8875 39.8182 19.9055 39.8542 19.9235 39.8632C19.9393 39.8745 19.9753 39.9217 20.0045 39.9712C20.0338 40.0207 20.0698 40.0702 20.0855 40.0792C20.1013 40.0882 20.1148 40.1197 20.1148 40.1467C20.1148 40.1737 20.1553 40.2412 20.207 40.2952C20.2565 40.347 20.3128 40.4257 20.3285 40.464C20.3465 40.5045 20.3758 40.5517 20.396 40.5675C20.4163 40.5855 20.4523 40.635 20.4748 40.68C20.4973 40.725 20.5333 40.7745 20.5513 40.7902C20.5715 40.8082 20.5873 40.842 20.5873 40.8712C20.5873 40.8982 20.621 40.9522 20.6683 40.995C20.7133 41.0355 20.7628 41.0985 20.7785 41.139C20.8055 41.202 20.8348 41.2447 20.9878 41.445C21.0125 41.4765 21.0395 41.526 21.0485 41.5575C21.0575 41.589 21.1093 41.6632 21.1633 41.7262C21.2173 41.787 21.2623 41.8545 21.2623 41.8747C21.2623 41.895 21.287 41.9377 21.3185 41.9715C21.35 42.0052 21.3905 42.0615 21.4085 42.0952C21.4265 42.1312 21.4558 42.165 21.476 42.1717C21.494 42.1807 21.5098 42.2077 21.5098 42.2347C21.5098 42.2617 21.557 42.327 21.6223 42.39C21.6853 42.4507 21.7348 42.5182 21.7348 42.543C21.7348 42.57 21.7663 42.606 21.8135 42.6352C21.8563 42.66 21.9125 42.714 21.9373 42.7545C21.9598 42.795 22.0183 42.849 22.0655 42.8737C22.115 42.9007 22.1645 42.9502 22.1848 42.9907C22.2073 43.0402 22.241 43.0717 22.2883 43.0852C22.3265 43.0965 22.4053 43.1505 22.4638 43.2067C22.5223 43.263 22.5965 43.3147 22.628 43.3237C22.7023 43.3417 22.8485 43.434 22.8868 43.488C22.9025 43.5127 22.9565 43.5375 23.0105 43.5442C23.1028 43.56 23.1973 43.605 23.3548 43.7085C23.402 43.74 23.4943 43.7692 23.5865 43.7827C23.672 43.794 23.762 43.8187 23.789 43.8367C23.816 43.8547 23.8745 43.8772 23.9173 43.8862C23.96 43.8952 24.0365 43.9245 24.086 43.9492C24.1625 43.9897 24.239 43.9987 24.581 44.0167C25.112 44.0415 25.1255 44.0415 25.571 44.0212C25.895 44.0077 25.9715 43.9965 26.0773 43.9537C26.2438 43.884 26.3923 43.8345 26.5903 43.7872C26.6803 43.7647 26.7703 43.731 26.7928 43.7107C26.858 43.6545 27.0988 43.5375 27.1505 43.5375C27.1775 43.5375 27.2338 43.5037 27.2743 43.461C27.3148 43.4182 27.38 43.3642 27.4183 43.3417C27.6523 43.2045 28.1135 42.7725 28.2643 42.5475C28.3115 42.48 28.3678 42.4102 28.3948 42.3945C28.4195 42.3787 28.4398 42.3427 28.4398 42.3135C28.4398 42.2842 28.4713 42.2235 28.5073 42.1762C28.5455 42.129 28.5748 42.0817 28.5748 42.0705C28.5748 42.057 28.595 42.0232 28.6198 41.9917C28.6445 41.9602 28.6648 41.9062 28.6648 41.8747C28.6648 41.8432 28.6828 41.7802 28.7075 41.7375C28.73 41.6947 28.7548 41.6272 28.7638 41.5867C28.7728 41.5462 28.802 41.4877 28.8268 41.454C28.865 41.4067 28.8785 41.346 28.892 41.1547C28.9033 41.0242 28.9213 40.8577 28.937 40.788C28.9753 40.5967 28.91 39.6472 28.8515 39.5752C28.838 39.5572 28.8043 39.4717 28.775 39.3862C28.748 39.2985 28.712 39.2085 28.694 39.1837C28.6783 39.159 28.6648 39.096 28.6648 39.0442C28.6648 38.97 28.6535 38.943 28.6175 38.925C28.5928 38.9115 28.5523 38.8552 28.5298 38.8012C28.5073 38.7495 28.478 38.6977 28.4668 38.691C28.4533 38.6842 28.4375 38.646 28.4285 38.61C28.4195 38.574 28.37 38.4952 28.3138 38.439C28.2598 38.3805 28.2148 38.3175 28.2148 38.2972C28.2148 38.2612 28.0798 38.0677 28.0033 37.989C27.983 37.971 27.9673 37.935 27.9673 37.9102C27.9673 37.8855 27.9268 37.827 27.8795 37.7775C27.83 37.7302 27.776 37.656 27.758 37.6155C27.7243 37.5345 27.5713 37.3207 27.5375 37.3095C27.5263 37.305 27.5128 37.269 27.5038 37.2285C27.497 37.1812 27.4543 37.1182 27.3913 37.0575C27.3373 37.0057 27.2923 36.945 27.2923 36.9225C27.2923 36.9022 27.2653 36.8617 27.2338 36.8302C27.2023 36.801 27.1595 36.747 27.1415 36.7087C27.1213 36.6727 27.092 36.63 27.0763 36.612C27.0583 36.5962 27.0448 36.567 27.0448 36.549C27.0448 36.5332 26.9953 36.4612 26.9323 36.3937C26.8715 36.3262 26.8198 36.2542 26.8198 36.234C26.8198 36.2137 26.7838 36.1575 26.741 36.1102C26.6983 36.0607 26.6623 36.0112 26.6623 36C26.6623 35.9685 26.516 35.7592 26.435 35.6737C26.399 35.6355 26.3653 35.5725 26.3563 35.5342C26.3473 35.4937 26.3248 35.4555 26.3023 35.4487C26.2798 35.442 26.2438 35.3992 26.2235 35.3565C26.1808 35.2665 26.1988 35.226 26.291 35.2035C26.3225 35.1945 26.3473 35.1787 26.3473 35.1675C26.3473 35.136 26.6623 34.9875 26.732 34.9875C26.7635 34.9875 26.804 34.9717 26.8198 34.9537C26.8603 34.9042 27.155 34.7625 27.2158 34.7625C27.2428 34.7625 27.2878 34.7445 27.317 34.722C27.4003 34.659 27.6343 34.5375 27.6725 34.5375C27.7198 34.5375 27.9133 34.4452 28.0168 34.3755C28.064 34.344 28.1383 34.3102 28.1855 34.3035C28.2328 34.2945 28.307 34.2652 28.3498 34.236C28.4555 34.1685 28.613 34.0965 28.7143 34.0695C28.7593 34.056 28.8313 34.0222 28.8718 33.9907C28.9505 33.9322 29.126 33.8535 29.2363 33.8287C29.2723 33.822 29.333 33.7905 29.369 33.759C29.405 33.7275 29.4658 33.696 29.4995 33.6892C29.5355 33.6825 29.576 33.6622 29.5895 33.6465C29.603 33.6285 29.6503 33.615 29.693 33.615C29.7493 33.615 29.7965 33.5947 29.8505 33.5475C29.891 33.5115 29.9383 33.48 29.954 33.48C29.9698 33.48 30.017 33.4552 30.0598 33.4237C30.1025 33.3922 30.1633 33.3675 30.1948 33.3675C30.2285 33.3675 30.278 33.3472 30.3073 33.3225C30.3365 33.2977 30.3748 33.2775 30.395 33.2775C30.4153 33.2775 30.476 33.246 30.53 33.21C30.584 33.1717 30.6538 33.1425 30.683 33.1425C30.7123 33.1425 30.8135 33.0975 30.9103 33.0435C31.0048 32.9872 31.1285 32.931 31.1848 32.9175C31.241 32.9017 31.3018 32.877 31.3198 32.8612C31.385 32.805 31.6078 32.6992 31.6933 32.6812C31.7428 32.6745 31.8148 32.6407 31.8553 32.6115C31.9453 32.5417 32.1365 32.4562 32.2445 32.436C32.2895 32.4292 32.348 32.3977 32.3773 32.3662C32.4043 32.337 32.456 32.3055 32.492 32.2987C32.5258 32.2897 32.5663 32.2695 32.582 32.2515C32.5955 32.2335 32.6405 32.22 32.681 32.22C32.726 32.22 32.7823 32.1997 32.8205 32.1682C32.8543 32.139 32.9195 32.103 32.9623 32.085C33.005 32.0692 33.0568 32.0422 33.077 32.0242C33.095 32.0085 33.1378 31.995 33.1693 31.995C33.2008 31.995 33.2525 31.9747 33.284 31.95C33.3155 31.923 33.3875 31.8825 33.4438 31.8577C33.5 31.833 33.5518 31.8037 33.5585 31.7925C33.5653 31.779 33.5945 31.77 33.6215 31.77C33.6485 31.77 33.707 31.7497 33.7498 31.725C33.9388 31.617 34.1345 31.5225 34.1705 31.5202C34.193 31.5202 34.2628 31.491 34.3235 31.455C34.4743 31.365 34.5755 31.3222 34.6768 31.2997C34.724 31.2885 34.8095 31.248 34.868 31.212C35.0075 31.122 35.165 31.05 35.2258 31.05C35.2505 31.05 35.3113 31.0207 35.3608 30.9825C35.408 30.9465 35.4598 30.915 35.471 30.915C35.4845 30.915 35.5318 30.8947 35.579 30.87C35.624 30.8452 35.6938 30.825 35.7298 30.825C35.7725 30.825 35.804 30.8115 35.813 30.789C35.8198 30.7687 35.8805 30.7282 35.9458 30.699C36.011 30.672 36.0695 30.636 36.0785 30.6247C36.0853 30.6112 36.1213 30.6 36.155 30.6C36.191 30.6 36.254 30.5707 36.3035 30.5325C36.3485 30.4965 36.407 30.4605 36.434 30.4515C36.461 30.4447 36.4993 30.4245 36.5173 30.4087C36.5353 30.393 36.587 30.375 36.632 30.366C36.677 30.357 36.74 30.3232 36.776 30.285C36.812 30.2467 36.857 30.2175 36.875 30.2175C36.8953 30.2175 36.9425 30.1972 36.9785 30.1725C37.0168 30.1477 37.0618 30.1275 37.0798 30.1275C37.1 30.1275 37.1495 30.0982 37.1923 30.0622C37.28 29.9902 37.4375 29.9025 37.4758 29.9025C37.4893 29.9025 37.5658 29.853 37.6445 29.79C37.7233 29.7292 37.811 29.6775 37.838 29.6775C37.865 29.6775 37.8988 29.6572 37.91 29.6347C37.9235 29.6122 37.9798 29.5695 38.036 29.5425C38.0923 29.5155 38.1373 29.4862 38.1373 29.475C38.1373 29.466 38.1598 29.4525 38.189 29.4435C38.216 29.4367 38.297 29.3805 38.369 29.3175C38.441 29.2567 38.5153 29.205 38.5333 29.205C38.5513 29.205 38.5873 29.1802 38.6143 29.1487C38.6413 29.1172 38.7088 29.0655 38.765 29.0317C38.8235 28.998 38.9315 28.9192 39.0103 28.8517C39.089 28.7865 39.161 28.7325 39.17 28.7325C39.1813 28.7325 39.2398 28.6875 39.2983 28.6312C39.359 28.575 39.431 28.5232 39.458 28.5165C39.485 28.5097 39.5143 28.485 39.521 28.4625C39.5345 28.422 39.6538 28.305 39.6853 28.305C39.6965 28.305 39.7348 28.2712 39.7708 28.233C39.8068 28.1925 39.9058 28.1025 39.9913 28.035C40.0745 27.9675 40.196 27.8595 40.2613 27.7987C40.3265 27.7357 40.4143 27.6547 40.457 27.6142C40.4998 27.5737 40.5448 27.5287 40.5583 27.513C40.5718 27.4972 40.6078 27.4612 40.637 27.4365C40.6663 27.4095 40.7563 27.3127 40.8373 27.2227C40.9183 27.1305 41.0218 27.0202 41.069 26.973C41.114 26.928 41.1523 26.8785 41.1523 26.8672C41.1523 26.856 41.1995 26.7952 41.2603 26.7345C41.3188 26.676 41.3953 26.5837 41.429 26.5342C41.465 26.4825 41.5123 26.4375 41.537 26.4307C41.5618 26.424 41.5955 26.3835 41.6135 26.3407C41.6315 26.298 41.6855 26.2215 41.7373 26.172C41.7868 26.1202 41.8273 26.0707 41.8273 26.0595C41.8273 26.0505 41.8745 25.9785 41.9353 25.8997C41.9938 25.821 42.0703 25.7107 42.104 25.6522C42.14 25.596 42.1963 25.5172 42.2323 25.4812C42.266 25.443 42.302 25.389 42.311 25.362C42.32 25.3327 42.3403 25.2922 42.3583 25.272C42.4775 25.1325 42.5225 25.0672 42.536 25.0155C42.545 24.984 42.5945 24.9075 42.6508 24.8445C42.7048 24.7837 42.7498 24.723 42.7498 24.714C42.7498 24.6712 42.8938 24.4102 42.941 24.363C42.9725 24.3337 42.9973 24.2842 42.9973 24.2527C42.9973 24.219 43.0175 24.1672 43.0423 24.1357C43.067 24.1042 43.0873 24.066 43.0873 24.048C43.0873 24.03 43.1165 23.9827 43.1548 23.94C43.1908 23.8972 43.22 23.8432 43.2223 23.8207C43.2223 23.7667 43.3708 23.4585 43.4135 23.4225C43.4315 23.409 43.4518 23.3595 43.4608 23.3122C43.4698 23.2672 43.4878 23.2155 43.5035 23.1975C43.5193 23.1795 43.5373 23.13 43.544 23.0895C43.553 23.049 43.5845 22.9815 43.616 22.941C43.6498 22.896 43.6813 22.815 43.6925 22.7475C43.7038 22.6845 43.7218 22.6215 43.7375 22.6057C43.751 22.5922 43.7623 22.5652 43.7623 22.5427C43.7623 22.5225 43.7938 22.446 43.8298 22.374C43.868 22.302 43.9085 22.1962 43.9198 22.14C43.9558 21.9577 44.0323 21.7035 44.0885 21.5887C44.1178 21.5257 44.1493 21.411 44.1583 21.33C44.165 21.249 44.1875 21.1635 44.2033 21.1387C44.2213 21.114 44.2348 21.069 44.2348 21.0375C44.2348 21.006 44.264 20.8935 44.3 20.79C44.3405 20.6775 44.3743 20.5245 44.381 20.4187C44.39 20.3197 44.4103 20.196 44.4283 20.142C44.4463 20.0902 44.4598 19.971 44.4598 19.881C44.4598 19.791 44.471 19.6605 44.4823 19.5952C44.4958 19.5277 44.5295 19.3117 44.5565 19.1137C44.6015 18.7852 44.606 18.6637 44.606 17.7412C44.606 16.6995 44.588 16.416 44.4913 15.9007C44.4755 15.8062 44.4598 15.6487 44.4598 15.552C44.4598 15.4552 44.4463 15.3202 44.4283 15.2527C44.4103 15.1852 44.3878 15.039 44.3788 14.9287C44.3698 14.8162 44.3518 14.7015 44.336 14.67C44.3203 14.6385 44.291 14.5372 44.2685 14.445C44.2483 14.3527 44.2168 14.2402 44.1988 14.1975C44.183 14.1547 44.1628 14.0467 44.1538 13.9612C44.147 13.8735 44.1268 13.7812 44.1088 13.7542C44.0548 13.6687 43.9198 13.248 43.9198 13.167C43.9198 13.1197 43.9018 13.068 43.877 13.041C43.8545 13.014 43.8185 12.942 43.796 12.8812C43.7735 12.8182 43.7398 12.7485 43.724 12.7237C43.7083 12.699 43.6948 12.6495 43.6948 12.6112C43.6948 12.5752 43.6588 12.4672 43.6138 12.375C43.5688 12.2827 43.517 12.177 43.5013 12.1432C43.4833 12.1072 43.4698 12.042 43.4698 11.9947C43.4698 11.934 43.454 11.8957 43.4135 11.8575C43.382 11.8282 43.3573 11.7922 43.3573 11.7787C43.3573 11.763 43.3325 11.7135 43.301 11.6685C43.2695 11.6235 43.238 11.5447 43.2313 11.4952C43.2223 11.4457 43.202 11.3917 43.1863 11.3737C43.1705 11.358 43.1345 11.304 43.1053 11.2522C43.076 11.2005 43.04 11.1352 43.0265 11.1082C43.0108 11.0812 42.9973 11.0385 42.9973 11.0115C42.9973 10.9867 42.977 10.9462 42.9545 10.926C42.9298 10.9035 42.8983 10.854 42.8825 10.8157C42.8668 10.7752 42.8353 10.719 42.8128 10.6897C42.7903 10.6605 42.7723 10.6155 42.7723 10.593C42.7723 10.5682 42.743 10.521 42.7093 10.4895C42.6283 10.4107 42.5585 10.3095 42.536 10.2375C42.527 10.206 42.4753 10.1295 42.4213 10.0665C42.3695 10.0035 42.3178 9.92247 42.3088 9.88647C42.302 9.85047 42.2773 9.80547 42.2548 9.78747C42.2098 9.74697 42.0748 9.54672 42.0748 9.51747C42.0748 9.50847 42.0253 9.43872 41.9623 9.36672C41.9015 9.29472 41.8453 9.20922 41.8385 9.17772C41.8318 9.14622 41.8003 9.10572 41.7733 9.08997C41.744 9.07422 41.6923 9.00897 41.6585 8.94372C41.627 8.87847 41.5483 8.77047 41.4875 8.70297C41.4268 8.63772 41.3773 8.57022 41.3773 8.55222C41.3773 8.53422 41.3278 8.46672 41.2648 8.40147C41.2018 8.33622 41.1523 8.26647 41.1523 8.24847C41.1523 8.23047 41.1163 8.18772 41.0735 8.15622C41.0308 8.12247 40.9655 8.04597 40.9273 7.98522C40.8913 7.92447 40.8508 7.87497 40.8395 7.87497C40.8305 7.87497 40.7945 7.83672 40.7653 7.78947C40.6933 7.68372 40.4728 7.43847 40.1465 7.10547C40.088 7.04472 39.6695 6.63972 39.5525 6.52947C39.5345 6.51372 39.4828 6.46197 39.4355 6.41697C39.215 6.20097 39.0665 6.06597 39.0148 6.03447C38.9383 5.98497 38.6548 5.73972 38.603 5.67447C38.5805 5.64747 38.549 5.62497 38.5355 5.62497C38.495 5.62497 38.3623 5.49672 38.3623 5.45847C38.3623 5.44047 38.3285 5.41347 38.2858 5.39997C38.243 5.38647 38.162 5.33022 38.1058 5.27622C38.0495 5.21997 37.9888 5.17497 37.9708 5.17497C37.9528 5.17497 37.928 5.16147 37.919 5.14347C37.91 5.12772 37.8583 5.08722 37.8065 5.05347C37.7525 5.02197 37.7098 4.98597 37.7098 4.97472C37.7098 4.96347 37.6805 4.94322 37.6445 4.93197C37.6108 4.92072 37.5343 4.86222 37.4758 4.80597C37.415 4.74972 37.3475 4.70247 37.3228 4.70247C37.298 4.70247 37.244 4.67547 37.2035 4.63947C37.0888 4.54497 37.0123 4.49322 36.8998 4.43697C36.8435 4.40772 36.7693 4.35597 36.731 4.31997C36.695 4.28397 36.6365 4.24797 36.6028 4.24122C36.569 4.23222 36.5375 4.21197 36.5308 4.19397C36.524 4.17597 36.5038 4.16247 36.4858 4.16247C36.4678 4.16247 36.4093 4.12872 36.3553 4.08822C36.3013 4.04772 36.2293 4.00272 36.1955 3.98697C36.1618 3.97347 36.0785 3.91947 36.011 3.86997C35.9435 3.82047 35.876 3.77997 35.8603 3.77997C35.8108 3.77997 35.6555 3.68997 35.5835 3.62022C35.5453 3.58422 35.4913 3.55497 35.462 3.55497C35.4328 3.55497 35.3855 3.53472 35.354 3.50997C35.3225 3.48522 35.282 3.46497 35.2663 3.46497C35.2505 3.46497 35.2033 3.43572 35.1628 3.39972C35.1223 3.36372 35.0525 3.32772 35.0098 3.31872C34.967 3.30972 34.9153 3.28947 34.8973 3.27372C34.8793 3.25797 34.8388 3.23772 34.8095 3.22872C34.778 3.21972 34.715 3.18372 34.6655 3.14772C34.616 3.11172 34.553 3.08247 34.526 3.08247C34.4968 3.08247 34.463 3.06672 34.4473 3.04872C34.4315 3.03072 34.4023 3.01497 34.382 3.01497C34.3618 3.01497 34.2898 2.97897 34.2223 2.93622C34.1548 2.89347 34.076 2.85747 34.049 2.85747C34.022 2.85747 33.9725 2.84172 33.9365 2.82372C33.9028 2.80572 33.833 2.77422 33.7835 2.75172C33.734 2.73147 33.6665 2.69547 33.635 2.67522C33.6035 2.65272 33.5315 2.62797 33.4775 2.61897C33.4235 2.60997 33.3223 2.57397 33.2503 2.53797C33.1805 2.50422 33.113 2.47497 33.1018 2.47497C33.0905 2.47497 33.068 2.45922 33.0523 2.44122C33.0388 2.42547 32.9803 2.40297 32.924 2.39397C32.8678 2.38497 32.7935 2.36472 32.762 2.34897C32.7305 2.33097 32.6923 2.31747 32.6765 2.31747C32.663 2.31747 32.6225 2.30397 32.5865 2.28597C32.4178 2.20272 32.312 2.15997 32.2693 2.15997C32.2423 2.15997 32.1703 2.13972 32.1073 2.11497C32.0443 2.09022 31.979 2.06997 31.961 2.06997C31.943 2.06997 31.862 2.03847 31.7855 2.00247C31.7068 1.96422 31.6123 1.93497 31.5763 1.93497C31.5403 1.93497 31.4503 1.91472 31.376 1.88997C31.3018 1.86747 31.1758 1.82922 31.0948 1.80897C31.0138 1.78872 30.908 1.75947 30.8585 1.74147C30.809 1.72572 30.7235 1.70772 30.6695 1.69872C30.6133 1.69197 30.5233 1.67172 30.467 1.65597C30.4108 1.63797 30.2825 1.60647 30.1835 1.58397C30.0845 1.56372 29.9788 1.53222 29.9473 1.51647C29.9158 1.50072 29.8033 1.48272 29.6998 1.47372C29.594 1.46472 29.468 1.44447 29.4185 1.42647C29.369 1.41072 29.279 1.39047 29.216 1.38372C29.1553 1.37472 28.9865 1.33872 28.8448 1.30497C28.6648 1.26222 28.5028 1.23972 28.3138 1.23072C28.163 1.22397 28.0213 1.21047 27.9988 1.19697C27.974 1.18572 27.7985 1.16772 27.6073 1.16097C27.416 1.15197 27.1685 1.13172 27.056 1.11372C26.9458 1.09572 26.768 1.06872 26.6623 1.05522C26.4328 1.02372 24.7475 1.00797 24.4235 1.03497Z" fill="black"/>
</svg>
