<svg width="45" height="44" viewBox="0 0 45 44" fill="none" xmlns="http://www.w3.org/2000/svg">
<path d="M24.1853 0.0137978C23.7623 0.0475502 23.4473 0.0835495 23.4248 0.0970497C23.4113 0.106049 23.2335 0.12405 23.0288 0.139801C22.824 0.155548 22.6148 0.178051 22.5653 0.191551C22.5158 0.205048 22.3898 0.216301 22.284 0.216301C22.1513 0.216301 22.023 0.234299 21.8678 0.274799C21.744 0.308548 21.5775 0.344551 21.4965 0.355801C21.4155 0.36705 21.3098 0.389549 21.2603 0.407551C21.2108 0.423298 21.0893 0.44355 20.9925 0.452549C20.8935 0.459301 20.7945 0.477299 20.772 0.488548C20.6843 0.535801 20.0678 0.688801 19.9665 0.688801C19.9215 0.688801 19.8675 0.702301 19.8428 0.718048C19.7865 0.756298 19.6043 0.823799 19.5615 0.823799C19.5435 0.823799 19.4985 0.83955 19.4603 0.859798C19.4243 0.8778 19.3433 0.900299 19.2803 0.907051C19.2195 0.91605 19.1475 0.934048 19.1205 0.952049C19.0553 0.99255 18.7155 1.1163 18.6053 1.13655C18.5558 1.1478 18.4523 1.18605 18.3758 1.22655C18.2993 1.2648 18.2228 1.2963 18.207 1.2963C18.189 1.2963 18.1575 1.3098 18.1328 1.3278C18.108 1.34355 18.0383 1.3638 17.9775 1.3728C17.9123 1.38405 17.8313 1.41555 17.7773 1.45605C17.7278 1.49205 17.6715 1.5213 17.6513 1.5213C17.631 1.5213 17.595 1.53705 17.5725 1.55505C17.5478 1.57305 17.5028 1.5888 17.4713 1.5888C17.4398 1.5888 17.388 1.60455 17.3565 1.62255C17.325 1.64055 17.2643 1.67205 17.2215 1.69005C17.1788 1.7103 17.0978 1.74855 17.0415 1.7733C16.9853 1.79805 16.8998 1.82505 16.8503 1.82955C16.8008 1.8363 16.7153 1.87005 16.659 1.9038C16.6028 1.9398 16.5308 1.9758 16.497 1.98255C16.4633 1.99155 16.425 2.0118 16.4093 2.0298C16.3958 2.0478 16.344 2.0613 16.2968 2.0613C16.2518 2.0613 16.1978 2.07705 16.1775 2.09505C16.128 2.1468 15.8558 2.26155 15.7095 2.29755C15.6398 2.3133 15.552 2.34705 15.5183 2.3718C15.4328 2.43255 15.1718 2.5338 15.102 2.5338C15.0705 2.5338 15.0278 2.55405 15.0053 2.5788C14.9828 2.60355 14.9558 2.6238 14.9445 2.6238C14.9333 2.6238 14.859 2.65305 14.7803 2.6913C14.7015 2.7273 14.6138 2.7588 14.589 2.7588C14.5643 2.7588 14.49 2.7858 14.4248 2.81955C14.2538 2.9073 14.0828 2.97705 13.9883 2.99505C13.9433 3.00405 13.8758 3.0333 13.8398 3.0648C13.806 3.09405 13.7363 3.1278 13.689 3.1413C13.6395 3.1548 13.5945 3.1728 13.5878 3.18405C13.581 3.1953 13.5248 3.21105 13.464 3.22005C13.4033 3.22905 13.3448 3.2448 13.338 3.2583C13.3155 3.2943 13.0073 3.4293 12.9083 3.4473C12.861 3.45405 12.7778 3.49005 12.7238 3.52605C12.6698 3.56205 12.591 3.5958 12.5505 3.6048C12.51 3.61155 12.465 3.6318 12.4493 3.6498C12.4358 3.6678 12.3908 3.6813 12.3525 3.6813C12.3143 3.6813 12.258 3.69705 12.2265 3.71505C12.1658 3.7488 12.0105 3.82305 11.9003 3.87255C11.8643 3.8883 11.7923 3.90855 11.7428 3.91755C11.6955 3.92655 11.628 3.9513 11.5943 3.97605C11.5155 4.03005 11.2298 4.1538 11.178 4.1538C11.1555 4.1538 11.0363 4.2033 10.9125 4.26405C10.7865 4.32255 10.647 4.3788 10.5975 4.38555C10.5503 4.3923 10.494 4.4148 10.4738 4.4328C10.4265 4.47555 10.125 4.5948 10.0193 4.6128C9.972 4.6218 9.92475 4.64205 9.91125 4.6578C9.88425 4.69155 9.58275 4.8153 9.47025 4.8423C9.43425 4.84905 9.3555 4.88505 9.29475 4.92105C9.23625 4.95705 9.1755 4.9863 9.15975 4.9863C9.144 4.9863 9.0945 5.00655 9.04725 5.0313C9.00225 5.05605 8.93025 5.0763 8.8875 5.0763C8.847 5.0763 8.79975 5.0898 8.78625 5.1078C8.75025 5.15055 8.39475 5.3013 8.3295 5.3013C8.30025 5.3013 8.2215 5.3373 8.154 5.38005C8.0865 5.4228 8.0145 5.4588 7.9965 5.4588C7.9785 5.4588 7.93575 5.4723 7.90425 5.4903C7.87275 5.50605 7.7985 5.5263 7.74 5.5353C7.68375 5.5443 7.6365 5.5623 7.6365 5.57355C7.6365 5.58705 7.58925 5.6163 7.53075 5.64105C7.47 5.6658 7.39575 5.7018 7.362 5.7198C7.3305 5.73555 7.27875 5.7513 7.24725 5.7513C7.218 5.7513 7.1235 5.78505 7.038 5.8278C6.9525 5.87055 6.8445 5.91555 6.7995 5.9313C6.75225 5.9448 6.7095 5.9673 6.70275 5.97855C6.69375 5.9898 6.651 5.9988 6.60375 5.9988C6.5475 5.9988 6.50475 6.01455 6.47775 6.0438C6.4575 6.0663 6.39225 6.10455 6.33375 6.1248C6.2775 6.1473 6.21 6.1788 6.18525 6.19455C6.1605 6.2103 6.1155 6.2238 6.084 6.2238C6.03225 6.2238 5.97825 6.24855 5.7105 6.3948C5.66325 6.4218 5.58225 6.4488 5.535 6.4578C5.4855 6.4668 5.41575 6.4983 5.3775 6.52755C5.30325 6.5838 5.06925 6.6963 5.0265 6.6963C5.00175 6.6963 4.869 6.77955 4.8465 6.81105C4.8285 6.83355 4.6485 6.9213 4.61925 6.9213C4.60575 6.9213 4.56525 6.9438 4.52925 6.9708C4.356 7.10805 4.32675 7.12605 4.257 7.1508C4.21875 7.1643 4.1625 7.20255 4.1355 7.23405C4.1085 7.2678 4.0365 7.3173 3.978 7.3488C3.91725 7.37805 3.80925 7.45005 3.73725 7.5108C3.66525 7.5693 3.59325 7.6188 3.57525 7.6188C3.5595 7.6188 3.51675 7.65255 3.48075 7.6953C3.447 7.73805 3.3795 7.7943 3.3345 7.8213C3.2895 7.84605 3.23775 7.8933 3.2175 7.9203C3.1995 7.94955 3.1455 7.9968 3.09825 8.02605C3.051 8.0553 2.85075 8.24655 2.6505 8.4513C2.45025 8.65605 2.241 8.8698 2.1825 8.9283C2.12625 8.9868 2.079 9.0453 2.079 9.0588C2.079 9.07005 2.0295 9.13305 1.9665 9.19605C1.90575 9.25905 1.854 9.3198 1.854 9.3333C1.854 9.34455 1.8045 9.40755 1.746 9.47055C1.64025 9.58305 1.467 9.83055 1.368 10.0061C1.341 10.0533 1.2825 10.1366 1.2375 10.1906C1.1925 10.2446 1.1565 10.3031 1.1565 10.3166C1.1565 10.3323 1.13625 10.3706 1.1115 10.4021C1.08675 10.4336 1.0665 10.4718 1.0665 10.4876C1.0665 10.5033 1.03725 10.5551 0.999 10.6068C0.963 10.6563 0.927 10.7283 0.918 10.7621C0.909 10.7958 0.891 10.8408 0.87525 10.8588C0.86175 10.8768 0.837 10.9241 0.82125 10.9646C0.8055 11.0028 0.774 11.0523 0.74925 11.0748C0.72675 11.0951 0.702 11.1491 0.693 11.1941C0.68625 11.2391 0.666 11.2976 0.648 11.3246C0.63 11.3516 0.6165 11.3876 0.6165 11.4056C0.6165 11.4213 0.5805 11.4888 0.53775 11.5563C0.4905 11.6306 0.459 11.7093 0.459 11.7521C0.459 11.7926 0.43875 11.8758 0.414 11.9388C0.38925 12.0018 0.369 12.0693 0.369 12.0918C0.369 12.1121 0.3375 12.1908 0.3015 12.2628C0.252 12.3573 0.234 12.4271 0.234 12.5103C0.234 12.5733 0.22275 12.6633 0.20925 12.7106C0.198 12.7556 0.17325 12.8771 0.15525 12.9806C0.13725 13.0818 0.09675 13.3068 0.063 13.4801C0.00225 13.7906 0.00225 13.8086 0 14.6951C0 15.3566 0.00675 15.6356 0.02925 15.7526C0.0585 15.9033 0.1665 16.3983 0.2115 16.5851C0.22275 16.6346 0.234 16.7201 0.234 16.7718C0.234 16.8326 0.261 16.9271 0.3015 17.0171C0.3375 17.0958 0.369 17.1791 0.369 17.1993C0.369 17.2196 0.38475 17.2668 0.405 17.3051C0.42525 17.3411 0.4455 17.4288 0.45225 17.4963C0.459 17.5751 0.486 17.6561 0.5265 17.7213C0.5985 17.8428 0.675 18.0363 0.69525 18.1556C0.702 18.2028 0.72225 18.2456 0.74025 18.2523C0.756 18.2591 0.7875 18.3063 0.80775 18.3581C0.828 18.4098 0.85725 18.4683 0.873 18.4863C0.891 18.5043 0.909 18.5606 0.91575 18.6101C0.92475 18.6596 0.945 18.7091 0.96075 18.7226C0.97875 18.7338 1.01025 18.7811 1.03275 18.8238C1.05525 18.8666 1.09125 18.9273 1.11375 18.9566C1.1385 18.9858 1.1565 19.0376 1.1565 19.0736C1.1565 19.1163 1.17675 19.1501 1.2195 19.1816C1.2555 19.2063 1.31175 19.2851 1.34325 19.3593C1.377 19.4313 1.449 19.5371 1.50525 19.5933C1.5615 19.6496 1.6065 19.7171 1.6065 19.7441C1.6065 19.7711 1.629 19.8116 1.65825 19.8363C1.77525 19.9466 1.81125 19.9848 1.8225 20.0276C1.8315 20.0523 1.87425 20.1153 1.91925 20.1648C1.96425 20.2166 2.0205 20.2863 2.04525 20.3201C2.07 20.3561 2.1375 20.4326 2.19825 20.4933C2.25675 20.5518 2.304 20.6103 2.304 20.6216C2.304 20.6328 2.35125 20.6846 2.40975 20.7363C2.4705 20.7881 2.5335 20.8623 2.5515 20.9006C2.5695 20.9411 2.619 20.9883 2.66175 21.0086C2.70675 21.0288 2.754 21.0761 2.77425 21.1211C2.7945 21.1661 2.84625 21.2156 2.89575 21.2426C2.94075 21.2673 2.98575 21.3078 2.9925 21.3326C3.01275 21.3956 3.0915 21.4788 3.132 21.4788C3.15225 21.4788 3.21525 21.5261 3.2715 21.5846C3.38625 21.7016 3.6315 21.9018 3.7845 22.0053C3.83625 22.0391 3.89025 22.0886 3.90375 22.1133C3.91725 22.1381 3.96 22.1718 4.00275 22.1876C4.04325 22.2056 4.11525 22.2596 4.1625 22.3113C4.20975 22.3608 4.26375 22.4013 4.2795 22.4013C4.3155 22.4013 4.61025 22.5881 4.63275 22.6263C4.6395 22.6376 4.662 22.6488 4.68 22.6488C4.698 22.6488 4.7655 22.6893 4.83075 22.7366C4.896 22.7838 5.0175 22.8558 5.10075 22.8941C5.18625 22.9323 5.28975 22.9931 5.3325 23.0313C5.37525 23.0673 5.436 23.0988 5.46525 23.0988C5.4945 23.0988 5.526 23.1101 5.535 23.1236C5.54175 23.1371 5.5935 23.1663 5.64525 23.1888C5.69925 23.2113 5.7555 23.2518 5.769 23.2766C5.78475 23.3081 5.81625 23.3238 5.85675 23.3238C5.9265 23.3238 6.138 23.4138 6.264 23.4948C6.30675 23.5241 6.39 23.5578 6.45075 23.5713C6.50925 23.5826 6.64425 23.6388 6.75225 23.6951C6.87825 23.7603 6.975 23.7963 7.02675 23.7963C7.07175 23.7963 7.128 23.8098 7.15275 23.8278C7.1775 23.8436 7.23825 23.8706 7.28775 23.8863C7.33725 23.9021 7.4205 23.9381 7.47225 23.9651C7.52175 23.9943 7.62525 24.0236 7.69725 24.0303C7.76925 24.0393 7.89975 24.0708 7.98975 24.1023C8.0775 24.1316 8.16525 24.1563 8.181 24.1563C8.199 24.1563 8.253 24.1766 8.30025 24.2013C8.35875 24.2328 8.45325 24.2531 8.57025 24.2598C8.66925 24.2666 8.79525 24.2868 8.8515 24.3026C8.90775 24.3206 9.03825 24.3498 9.144 24.3701C9.24975 24.3903 9.396 24.4263 9.47025 24.4488C9.57375 24.4803 9.702 24.4938 10.0328 24.5028C10.269 24.5096 10.4985 24.5253 10.548 24.5411C10.638 24.5658 12.0623 24.5546 12.2378 24.5276C12.2873 24.5186 12.5078 24.5051 12.726 24.4961C12.9758 24.4848 13.1355 24.4691 13.1558 24.4533C13.1895 24.4263 13.3155 24.3926 13.5338 24.3588C13.6035 24.3476 13.689 24.3273 13.725 24.3116C13.761 24.2981 13.8825 24.2778 13.9973 24.2688C14.1255 24.2576 14.2403 24.2328 14.301 24.2058C14.4338 24.1428 14.7555 24.0483 14.904 24.0303C14.9715 24.0213 15.0998 23.9808 15.1875 23.9381C15.2775 23.8976 15.363 23.8638 15.381 23.8638C15.399 23.8638 15.4328 23.8481 15.4575 23.8301C15.48 23.8121 15.5408 23.7963 15.5925 23.7963C15.6555 23.7963 15.6983 23.7828 15.7253 23.7513C15.7478 23.7266 15.7793 23.7063 15.7928 23.7063C15.8085 23.7063 15.8805 23.6771 15.9525 23.6388C16.0245 23.6028 16.1078 23.5713 16.1348 23.5713C16.164 23.5713 16.2878 23.5196 16.4093 23.4566C16.5465 23.3868 16.677 23.3373 16.74 23.3283C16.7963 23.3216 16.848 23.3036 16.8548 23.2856C16.8705 23.2428 17.172 23.0988 17.2463 23.0988C17.28 23.0988 17.3138 23.0898 17.3228 23.0763C17.343 23.0426 17.6963 22.8738 17.748 22.8738C17.7728 22.8738 17.8178 22.8603 17.8448 22.8446C18.0608 22.7231 18.2138 22.6533 18.2903 22.6376C18.3398 22.6308 18.396 22.6083 18.4163 22.5903C18.477 22.5363 18.7245 22.4261 18.8168 22.4103C18.8663 22.4013 18.9248 22.3766 18.945 22.3541C18.9653 22.3316 19.0193 22.3023 19.0643 22.2866C19.1093 22.2731 19.161 22.2461 19.1813 22.2303C19.1993 22.2123 19.2645 22.1898 19.323 22.1786C19.3815 22.1673 19.4468 22.1426 19.4693 22.1223C19.4918 22.1021 19.5188 22.0863 19.53 22.0863C19.5435 22.0863 19.5975 22.0571 19.6538 22.0233C19.7078 21.9873 19.7955 21.9513 19.8473 21.9446C19.899 21.9356 20.0025 21.8928 20.079 21.8478C20.1555 21.8006 20.2838 21.7466 20.3648 21.7241C20.448 21.7016 20.5358 21.6633 20.5605 21.6386C20.5875 21.6161 20.6325 21.5891 20.664 21.5801C20.6955 21.5711 20.7518 21.5441 20.79 21.5216C20.8283 21.4968 20.8958 21.4788 20.9363 21.4788C20.988 21.4788 21.0218 21.4653 21.042 21.4338C21.0578 21.4091 21.0848 21.3888 21.1028 21.3888C21.141 21.3888 21.2063 21.3551 21.2918 21.2921C21.321 21.2718 21.3705 21.2538 21.402 21.2538C21.4335 21.2538 21.5483 21.2088 21.654 21.1526C21.762 21.0986 21.8993 21.0423 21.96 21.0288C22.0208 21.0153 22.0838 20.9906 22.104 20.9726C22.158 20.9231 22.4685 20.7813 22.5225 20.7813C22.5495 20.7813 22.5945 20.7633 22.6238 20.7408C22.7093 20.6756 22.9748 20.5563 23.0333 20.5563C23.0625 20.5563 23.112 20.5383 23.1413 20.5158C23.229 20.4506 23.4743 20.3313 23.5215 20.3313C23.5463 20.3313 23.6588 20.2818 23.7735 20.2211C23.8883 20.1603 24.0233 20.1041 24.0728 20.0951C24.12 20.0861 24.1875 20.0613 24.219 20.0388C24.3158 19.9713 24.5183 19.8836 24.6195 19.8678C24.678 19.8588 24.7253 19.8363 24.7365 19.8116C24.75 19.7913 24.7973 19.7598 24.8423 19.7441C24.8895 19.7306 24.9525 19.6991 24.9818 19.6766C25.011 19.6518 25.0695 19.6338 25.11 19.6338C25.1505 19.6338 25.1978 19.6203 25.2135 19.6046C25.263 19.5596 25.5308 19.4336 25.614 19.4156C25.6568 19.4088 25.7693 19.3593 25.8615 19.3053C25.9538 19.2513 26.082 19.1951 26.1428 19.1793C26.2058 19.1658 26.271 19.1388 26.289 19.1231C26.3745 19.0533 26.6355 18.9363 26.7053 18.9363C26.748 18.9363 26.7908 18.9228 26.7998 18.9048C26.8245 18.8643 27.1395 18.7113 27.2025 18.7113C27.2295 18.7113 27.2655 18.6888 27.2858 18.6596C27.3038 18.6326 27.378 18.5741 27.45 18.5313C27.5243 18.4886 27.6323 18.4053 27.6908 18.3468C27.7493 18.2861 27.8123 18.2388 27.8303 18.2388C27.8663 18.2388 27.9765 18.1128 27.9765 18.0678C27.9765 18.0498 27.9855 18.0363 27.999 18.0363C28.0305 18.0363 28.179 17.8946 28.179 17.8653C28.179 17.8518 28.1993 17.8226 28.224 17.8001C28.251 17.7753 28.2938 17.7191 28.3185 17.6718C28.3455 17.6246 28.3748 17.5863 28.3838 17.5863C28.395 17.5863 28.413 17.5458 28.4265 17.4963C28.44 17.4468 28.4738 17.3703 28.5008 17.3276C28.6403 17.1093 28.6515 17.0846 28.6515 16.9923C28.6515 16.9406 28.6628 16.8866 28.6763 16.8731C28.6898 16.8596 28.7213 16.7493 28.746 16.6278C28.8113 16.3083 28.8113 15.7661 28.746 15.4713C28.719 15.3543 28.6875 15.2013 28.674 15.1338C28.6583 15.0663 28.6313 14.9786 28.6133 14.9426C28.4873 14.6996 28.4265 14.5668 28.4265 14.5353C28.4265 14.5151 28.3793 14.4386 28.323 14.3643C28.2668 14.2901 28.2105 14.2046 28.197 14.1753C28.1453 14.0651 27.504 13.4193 27.414 13.3901C27.396 13.3833 27.3308 13.3338 27.2723 13.2776C27.2138 13.2213 27.1508 13.1763 27.135 13.1763C27.1193 13.1763 27.0788 13.1561 27.0473 13.1313C27.0158 13.1066 26.982 13.0863 26.9685 13.0863C26.9573 13.0863 26.9055 13.0548 26.8515 13.0166C26.7998 12.9783 26.7233 12.9423 26.6805 12.9356C26.64 12.9288 26.5928 12.9086 26.5793 12.8928C26.5658 12.8748 26.5433 12.8613 26.532 12.8613C26.514 12.8613 26.37 12.8028 26.2553 12.7466C26.2305 12.7353 26.1608 12.7128 26.0978 12.6948C26.037 12.6791 25.8638 12.6273 25.7153 12.5823C25.3665 12.4743 25.092 12.4473 24.4733 12.4653C24.084 12.4766 23.976 12.4856 23.877 12.5216C23.6633 12.5981 23.3258 12.7038 23.2943 12.7038C23.2673 12.7038 23.0513 12.8006 22.8645 12.8973C22.833 12.9153 22.7858 12.9288 22.7588 12.9288C22.734 12.9288 22.6058 12.9806 22.4775 13.0413C22.347 13.1043 22.2098 13.1606 22.1693 13.1696C22.1288 13.1763 22.0613 13.2078 22.0208 13.2348C21.978 13.2618 21.8948 13.3023 21.834 13.3226C21.771 13.3428 21.717 13.3698 21.7103 13.3811C21.7013 13.3923 21.6698 13.4013 21.636 13.4013C21.6023 13.4013 21.5303 13.4328 21.4763 13.4688C21.4223 13.5071 21.3593 13.5363 21.3368 13.5363C21.3143 13.5363 21.2805 13.5521 21.2625 13.5723C21.2423 13.5903 21.1883 13.6128 21.1433 13.6196C21.096 13.6263 21.042 13.6443 21.024 13.6601C20.9655 13.7096 20.7225 13.8243 20.619 13.8513C20.5043 13.8806 20.3333 13.9571 20.313 13.9886C20.3063 13.9998 20.2838 14.0088 20.2635 14.0088C20.241 14.0088 20.187 14.0291 20.1398 14.0538C20.0948 14.0786 20.034 14.0988 20.007 14.0988C19.9778 14.0988 19.9148 14.1303 19.8675 14.1663C19.818 14.2046 19.7573 14.2338 19.728 14.2338C19.701 14.2338 19.6673 14.2496 19.6515 14.2676C19.6358 14.2856 19.5885 14.3058 19.5458 14.3148C19.5008 14.3238 19.368 14.3778 19.2488 14.4386C19.1295 14.4993 19.0058 14.5488 18.9743 14.5488C18.9405 14.5488 18.891 14.5668 18.8618 14.5893C18.7875 14.6478 18.558 14.7536 18.4365 14.7851C18.3803 14.8008 18.2948 14.8391 18.2475 14.8728C18.2003 14.9043 18.1463 14.9313 18.1305 14.9313C18.1125 14.9313 18.0608 14.9516 18.0158 14.9763C17.9685 15.0011 17.9078 15.0213 17.8785 15.0213C17.8493 15.0213 17.7975 15.0393 17.766 15.0641C17.6828 15.1226 17.4038 15.2463 17.3543 15.2463C17.3318 15.2463 17.271 15.2756 17.217 15.3116C17.163 15.3476 17.0955 15.3836 17.064 15.3926C17.0325 15.4016 16.9875 15.4241 16.9628 15.4398C16.938 15.4578 16.893 15.4713 16.8615 15.4713C16.83 15.4713 16.7693 15.4916 16.7265 15.5163C16.596 15.5928 16.3778 15.6896 16.3058 15.7053C16.2698 15.7143 16.1393 15.7706 16.0155 15.8313C15.894 15.8943 15.7703 15.9438 15.7433 15.9438C15.7163 15.9438 15.6893 15.9528 15.6803 15.9641C15.66 15.9978 15.3383 16.1441 15.2303 16.1688C15.1763 16.1801 15.084 16.2206 15.0233 16.2588C14.9648 16.2948 14.895 16.3263 14.868 16.3263C14.841 16.3263 14.8073 16.3398 14.7938 16.3578C14.7803 16.3736 14.7398 16.3938 14.7038 16.4006C14.6678 16.4073 14.5913 16.4456 14.5305 16.4838C14.472 16.5198 14.4068 16.5513 14.3843 16.5513C14.364 16.5513 14.3348 16.5648 14.3213 16.5828C14.3078 16.5986 14.2605 16.6188 14.2155 16.6256C14.1705 16.6323 14.0468 16.6841 13.9388 16.7403C13.8308 16.7966 13.6935 16.8528 13.635 16.8663C13.5765 16.8798 13.491 16.9136 13.4415 16.9451C13.3943 16.9743 13.3268 17.0058 13.2908 17.0148C13.257 17.0238 13.212 17.0418 13.194 17.0576C13.176 17.0733 13.1265 17.0913 13.086 17.0981C13.0455 17.1071 12.9803 17.1386 12.9398 17.1678C12.8993 17.1971 12.8385 17.2308 12.8003 17.2398C12.7643 17.2466 12.717 17.2668 12.699 17.2826C12.681 17.2983 12.618 17.3163 12.5618 17.3231C12.5055 17.3298 12.4065 17.3636 12.3413 17.3951C12.2783 17.4288 12.1883 17.4603 12.141 17.4671C12.096 17.4738 12.0285 17.4963 11.9903 17.5166C11.889 17.5706 10.575 17.5706 10.4265 17.5143C10.3703 17.4941 10.2893 17.4716 10.2443 17.4648C10.1993 17.4558 10.1138 17.4243 10.053 17.3951C9.99225 17.3636 9.89775 17.3321 9.8415 17.3231C9.78525 17.3163 9.7245 17.2983 9.7065 17.2803C9.6885 17.2646 9.64575 17.2466 9.612 17.2376C9.5805 17.2286 9.5265 17.1926 9.495 17.1566C9.4545 17.1138 9.414 17.0913 9.37125 17.0913C9.32625 17.0913 9.27675 17.0643 9.21825 17.0103C9.171 16.9653 9.108 16.9136 9.0765 16.8933C8.92575 16.8011 8.8065 16.7178 8.8065 16.7043C8.8065 16.6953 8.7165 16.5986 8.60625 16.4883C8.496 16.3758 8.39925 16.2656 8.39025 16.2386C8.3835 16.2116 8.36775 16.1913 8.3565 16.1913C8.34525 16.1913 8.3295 16.1688 8.32275 16.1441C8.31375 16.1171 8.262 16.0383 8.208 15.9686C8.15625 15.8988 8.1045 15.8111 8.0955 15.7751C8.0865 15.7368 8.046 15.6468 8.00775 15.5726C7.866 15.3003 7.857 15.2463 7.857 14.6523V14.1101L7.929 13.8963C7.9695 13.7793 8.02125 13.6646 8.04375 13.6421C8.06625 13.6196 8.0865 13.5723 8.0865 13.5363C8.0865 13.4936 8.1225 13.4283 8.2035 13.3271C8.26875 13.2461 8.3385 13.1583 8.3565 13.1291C8.39475 13.0661 8.8965 12.5688 8.919 12.5688C8.928 12.5688 8.96175 12.5441 8.9955 12.5126C9.02925 12.4811 9.07425 12.4563 9.09675 12.4563C9.117 12.4563 9.16425 12.4271 9.2025 12.3933C9.2835 12.3123 9.39375 12.2606 9.53325 12.2336C9.594 12.2223 9.66375 12.1953 9.69075 12.1706C9.774 12.0986 9.9765 12.0063 10.0553 12.0063C10.0958 12.0063 10.152 11.9883 10.1813 11.9658C10.2533 11.9096 10.5323 11.7881 10.6223 11.7723C10.6628 11.7656 10.7348 11.7363 10.7843 11.7048C10.9035 11.6283 11.133 11.5338 11.196 11.5338C11.2253 11.5338 11.2725 11.5181 11.3018 11.4978C11.4075 11.4236 11.61 11.3313 11.6978 11.3178C11.7473 11.3088 11.8125 11.2863 11.844 11.2683C11.97 11.1873 12.1995 11.0906 12.2895 11.0771C12.3435 11.0703 12.4043 11.0501 12.4245 11.0321C12.4898 10.9736 12.7283 10.8588 12.7868 10.8588C12.816 10.8588 12.942 10.8093 13.0635 10.7463C13.185 10.6856 13.3268 10.6271 13.3808 10.6203C13.4325 10.6136 13.5045 10.5866 13.5383 10.5618C13.6395 10.4921 13.8758 10.3863 13.9343 10.3863C13.9635 10.3863 14.0693 10.3391 14.1683 10.2828C14.2695 10.2266 14.3978 10.1726 14.4563 10.1613C14.5125 10.1501 14.643 10.0961 14.7488 10.0421C14.8523 9.9858 14.9828 9.93405 15.039 9.92505C15.0953 9.91605 15.1695 9.8868 15.2078 9.86205C15.3068 9.79005 15.5318 9.6888 15.588 9.6888C15.615 9.6888 15.7388 9.63705 15.8603 9.5763C15.9818 9.5133 16.1078 9.4638 16.1393 9.4638C16.1708 9.4638 16.218 9.4503 16.245 9.43455C16.4318 9.32655 16.6185 9.24105 16.704 9.22755C16.7603 9.21855 16.821 9.1983 16.839 9.1803C16.8593 9.16455 16.9223 9.12855 16.9785 9.1038C17.037 9.07905 17.091 9.0498 17.0955 9.03855C17.1023 9.0273 17.163 9.01155 17.2328 9.00255C17.3003 8.9958 17.361 8.98005 17.3678 8.9688C17.388 8.93505 17.7525 8.7663 17.802 8.7663C17.8268 8.7663 17.9348 8.71905 18.045 8.66055C18.153 8.60205 18.2925 8.54805 18.3555 8.53905C18.4163 8.5278 18.4725 8.51205 18.4793 8.5008C18.5063 8.4603 18.8258 8.31855 18.9225 8.3028C18.9765 8.29605 19.0283 8.2803 19.0328 8.26905C19.0553 8.2353 19.3523 8.09355 19.44 8.0778C19.4895 8.0688 19.6223 8.01255 19.737 7.9518C19.8675 7.8843 19.9755 7.8438 20.0228 7.8438C20.0655 7.8438 20.1038 7.8348 20.1128 7.8213C20.133 7.78755 20.466 7.6278 20.5515 7.6098C20.5943 7.60305 20.7158 7.5513 20.8238 7.49505C20.9295 7.44105 21.0623 7.3893 21.1163 7.3803C21.1703 7.3713 21.2423 7.34205 21.276 7.3128C21.3098 7.2858 21.3683 7.25655 21.4043 7.24755C21.4403 7.2408 21.483 7.2183 21.4965 7.20255C21.51 7.18455 21.5708 7.1643 21.627 7.15755C21.6855 7.14855 21.7575 7.12605 21.789 7.10355C21.8858 7.03605 22.1333 6.94155 22.2593 6.91905C22.3268 6.91005 22.3965 6.8853 22.4168 6.86955C22.473 6.82005 22.8645 6.70305 23.0175 6.6873C23.0918 6.68055 23.2043 6.65355 23.265 6.62655C23.454 6.54555 23.8725 6.4488 24.0413 6.4488C24.1268 6.4488 24.2348 6.43305 24.2798 6.41505C24.5025 6.32955 25.2293 6.28455 26.1765 6.29805C26.9235 6.3093 27.0608 6.32055 27.441 6.40605C27.549 6.42855 27.6998 6.4488 27.7785 6.4488C27.8573 6.4488 27.9945 6.46905 28.0868 6.4938C28.179 6.51855 28.2735 6.5388 28.2983 6.5388C28.3208 6.5388 28.4243 6.56805 28.5255 6.60405C28.6268 6.64005 28.7798 6.67605 28.8653 6.68505C28.953 6.69405 29.0543 6.7143 29.0903 6.73005C29.1285 6.74355 29.2185 6.77505 29.2928 6.79755C29.367 6.8223 29.4638 6.8583 29.5065 6.8808C29.5493 6.9033 29.6258 6.9213 29.6775 6.9213C29.7315 6.9213 29.7833 6.9348 29.799 6.95505C29.8148 6.97305 29.862 6.9933 29.9048 7.0023C29.9475 7.0113 30.0105 7.04055 30.0465 7.07205C30.0848 7.10355 30.159 7.1328 30.231 7.1463C30.2963 7.1553 30.4583 7.21605 30.591 7.27905C30.7238 7.34205 30.8565 7.3938 30.888 7.3938C30.9195 7.3938 30.951 7.40505 30.9578 7.4163C30.9668 7.4298 31.014 7.4613 31.0658 7.48605C31.1175 7.51305 31.1783 7.55355 31.2008 7.57605C31.2233 7.6008 31.2593 7.6188 31.284 7.6188C31.329 7.6188 31.6103 7.76505 31.662 7.81455C31.6778 7.8303 31.7093 7.8438 31.7295 7.8438C31.7678 7.8438 31.8083 7.8663 31.9928 7.99455C32.049 8.03505 32.1075 8.0688 32.121 8.0688C32.166 8.0688 32.3393 8.1903 32.3618 8.2398C32.373 8.2668 32.4113 8.2938 32.454 8.3028C32.4945 8.30955 32.5845 8.3658 32.6543 8.4243C32.724 8.48505 32.8208 8.55705 32.8703 8.5863C32.9198 8.61555 32.985 8.6673 33.0165 8.6988C33.048 8.7303 33.111 8.78205 33.1583 8.80905C33.2055 8.8383 33.2573 8.89005 33.2753 8.9238C33.2955 8.96205 33.3383 8.99805 33.3878 9.0138C33.4418 9.0318 33.4868 9.07005 33.5228 9.12855C33.5543 9.1758 33.6038 9.2208 33.633 9.2298C33.6623 9.23655 33.7185 9.28155 33.7568 9.33105C33.7973 9.3783 33.858 9.43455 33.8963 9.45255C33.9323 9.4728 33.9728 9.5133 33.984 9.54255C33.9953 9.5718 34.047 9.62805 34.101 9.6663C34.1528 9.70455 34.209 9.7653 34.2248 9.80355C34.2405 9.83955 34.2833 9.8868 34.3193 9.9093C34.3575 9.92955 34.4048 9.9813 34.4273 10.0218C34.4498 10.0623 34.506 10.1253 34.5533 10.1636C34.5983 10.1996 34.65 10.2648 34.668 10.3076C34.686 10.3481 34.7175 10.3886 34.7423 10.3953C34.7648 10.4043 34.8075 10.4471 34.839 10.4898C34.8705 10.5348 34.9268 10.6091 34.9628 10.6541C35.001 10.6991 35.0798 10.8071 35.1383 10.8948C35.1968 10.9826 35.2688 11.0771 35.3003 11.1063C35.3318 11.1356 35.3565 11.1716 35.3565 11.1873C35.3565 11.2008 35.388 11.2526 35.4263 11.2998C35.5118 11.4101 35.8043 11.9028 35.8358 11.9951C35.8493 12.0311 35.8808 12.0986 35.9078 12.1413C35.9573 12.2223 35.982 12.2718 36.1328 12.6138C36.18 12.7196 36.2273 12.8231 36.2385 12.8456C36.3015 12.9693 36.585 13.8333 36.6165 13.9976C36.6323 14.0718 36.657 14.2023 36.675 14.2901C36.6908 14.3756 36.7133 14.4926 36.7268 14.5488C36.8145 14.9426 36.828 15.1023 36.828 15.8201C36.8303 16.4028 36.8235 16.5806 36.792 16.7538C36.7718 16.8708 36.7425 17.0328 36.729 17.1138C36.6705 17.4671 36.639 17.6291 36.6075 17.7551C36.5333 18.0498 36.5198 18.0971 36.4793 18.2051C36.4568 18.2681 36.4365 18.3333 36.4365 18.3536C36.4365 18.3716 36.4073 18.4323 36.3735 18.4886C36.3375 18.5426 36.3038 18.6258 36.2948 18.6731C36.279 18.7788 36.1778 18.9926 36.108 19.0781C36.0788 19.1141 36.054 19.1636 36.054 19.1883C36.054 19.2446 35.964 19.4313 35.937 19.4313C35.928 19.4313 35.919 19.4448 35.919 19.4606C35.919 19.4786 35.8988 19.5146 35.874 19.5438C35.8493 19.5731 35.829 19.6091 35.829 19.6271C35.829 19.6743 35.7278 19.8408 35.6603 19.9038C35.6288 19.9331 35.604 19.9781 35.604 20.0051C35.604 20.0321 35.5838 20.0771 35.559 20.1063C35.5343 20.1356 35.514 20.1693 35.514 20.1828C35.514 20.1941 35.4825 20.2368 35.4465 20.2751C35.4083 20.3156 35.3588 20.3808 35.3363 20.4236C35.3138 20.4663 35.2665 20.5203 35.2283 20.5451C35.1923 20.5698 35.1428 20.6328 35.1225 20.6846C35.1 20.7386 35.073 20.7813 35.064 20.7813C35.037 20.7813 34.9065 20.9208 34.9065 20.9501C34.9065 20.9613 34.857 21.0221 34.7985 21.0851C34.74 21.1458 34.6523 21.2448 34.605 21.3033C34.5578 21.3641 34.5038 21.4113 34.488 21.4113C34.47 21.4113 34.4565 21.4181 34.4565 21.4271C34.4565 21.4698 33.9705 21.9243 33.8963 21.9536C33.876 21.9626 33.8198 22.0143 33.768 22.0706C33.714 22.1313 33.6488 22.1763 33.606 22.1876C33.5678 22.1943 33.5295 22.2213 33.5228 22.2438C33.516 22.2663 33.462 22.3158 33.4035 22.3541C33.2978 22.4216 33.1853 22.5026 33.0638 22.5971C33.0278 22.6263 32.9783 22.6488 32.9558 22.6488C32.931 22.6488 32.8883 22.6736 32.859 22.7051C32.7983 22.7703 32.6295 22.8738 32.5868 22.8738C32.562 22.8738 32.3933 22.9751 32.364 23.0111C32.3303 23.0493 32.2358 23.0988 32.1953 23.0988C32.1705 23.0988 32.1278 23.1123 32.103 23.1281C31.8285 23.2856 31.7565 23.3216 31.6868 23.3328C31.6395 23.3418 31.5765 23.3688 31.545 23.3936C31.4618 23.4588 31.2435 23.5623 31.1513 23.5803C31.1085 23.5871 31.0433 23.6163 31.005 23.6456C30.933 23.6973 30.735 23.7806 30.627 23.8053C30.5955 23.8121 30.537 23.8436 30.501 23.8751C30.4628 23.9066 30.402 23.9381 30.3638 23.9448C30.3255 23.9538 30.2828 23.9741 30.2693 23.9898C30.2558 24.0078 30.204 24.0281 30.1568 24.0348C30.1095 24.0438 30.0533 24.0686 30.033 24.0911C30.0128 24.1158 29.9858 24.1338 29.9745 24.1338C29.9633 24.1338 29.889 24.1631 29.8103 24.2013C29.7315 24.2373 29.6505 24.2688 29.6325 24.2688C29.6123 24.2688 29.5133 24.3138 29.412 24.3701C29.3108 24.4263 29.1915 24.4803 29.1465 24.4916C29.1038 24.5006 29.025 24.5366 28.9755 24.5681C28.8653 24.6378 28.6223 24.7413 28.5728 24.7413C28.5525 24.7413 28.4918 24.7706 28.4378 24.8088C28.3838 24.8448 28.3298 24.8763 28.3163 24.8763C28.3028 24.8763 28.2533 24.8966 28.2083 24.9213C28.161 24.9461 28.1048 24.9663 28.0845 24.9663C28.062 24.9663 28.0013 24.9978 27.9495 25.0338C27.9 25.0721 27.8393 25.1013 27.819 25.1013C27.7965 25.1013 27.7673 25.1148 27.7538 25.1328C27.7403 25.1508 27.684 25.1756 27.63 25.1891C27.576 25.2026 27.5198 25.2273 27.504 25.2476C27.4883 25.2656 27.4658 25.2813 27.4545 25.2813C27.4433 25.2813 27.3735 25.3106 27.297 25.3488C27.2228 25.3848 27.1508 25.4163 27.135 25.4163C27.1215 25.4163 27.009 25.4681 26.8875 25.5288C26.766 25.5918 26.649 25.6413 26.6288 25.6413C26.6085 25.6413 26.568 25.6571 26.5365 25.6751C26.3633 25.7741 26.1203 25.8888 26.0843 25.8888C26.0618 25.8888 25.9785 25.9248 25.8998 25.9676C25.821 26.0103 25.74 26.0463 25.722 26.0463C25.7018 26.0463 25.6748 26.0621 25.659 26.0801C25.6433 26.0981 25.605 26.1138 25.5713 26.1138C25.5375 26.1138 25.488 26.1296 25.4588 26.1498C25.3508 26.2263 25.1145 26.3388 25.0628 26.3388C25.0335 26.3388 25.002 26.3501 24.9953 26.3636C24.975 26.3951 24.6353 26.5571 24.5453 26.5773C24.5093 26.5863 24.4643 26.6021 24.4485 26.6156C24.3968 26.6561 24.0525 26.8113 24.012 26.8113C23.9918 26.8113 23.9288 26.8406 23.8748 26.8788C23.8185 26.9148 23.7645 26.9463 23.7555 26.9463C23.7443 26.9486 23.6948 26.9666 23.6453 26.9913C23.5958 27.0161 23.5373 27.0341 23.5125 27.0363C23.49 27.0363 23.4135 27.0723 23.3415 27.1151C23.2695 27.1578 23.1975 27.1938 23.1773 27.1938C23.1593 27.1938 23.1323 27.2073 23.1188 27.2253C23.1053 27.2433 23.0468 27.2636 22.9928 27.2726C22.9365 27.2793 22.8915 27.2973 22.8915 27.3086C22.8915 27.3198 22.8645 27.3401 22.8308 27.3536C22.797 27.3671 22.7205 27.4008 22.6598 27.4323C22.599 27.4616 22.5383 27.4863 22.5248 27.4863C22.509 27.4863 22.473 27.4998 22.4415 27.5178C22.41 27.5336 22.3065 27.5898 22.212 27.6393C22.1175 27.6911 22.0208 27.7338 21.9983 27.7338C21.9758 27.7338 21.8655 27.7788 21.7553 27.8351C21.6428 27.8913 21.501 27.9521 21.4403 27.9701C21.3773 27.9881 21.3053 28.0218 21.2805 28.0443C21.2558 28.0691 21.1973 28.1006 21.1523 28.1141C21.1073 28.1298 21.0645 28.1501 21.0578 28.1613C21.051 28.1703 21.0083 28.1861 20.9633 28.1951C20.916 28.2041 20.853 28.2288 20.8215 28.2513C20.727 28.3166 20.466 28.4313 20.4098 28.4313C20.3783 28.4313 20.3423 28.4471 20.3265 28.4651C20.286 28.5146 19.9913 28.6563 19.9305 28.6563C19.9013 28.6563 19.872 28.6653 19.8653 28.6788C19.8495 28.7036 19.4828 28.8813 19.4468 28.8813C19.4265 28.8813 19.2555 28.9601 19.1565 29.0141C19.0733 29.0613 18.9045 29.1288 18.8753 29.1288C18.855 29.1288 18.8033 29.1513 18.756 29.1806C18.639 29.2548 18.4163 29.3538 18.369 29.3538C18.3488 29.3538 18.3038 29.3741 18.2745 29.3988C18.198 29.4573 17.9348 29.5788 17.8785 29.5788C17.8538 29.5788 17.811 29.5968 17.7818 29.6193C17.721 29.6643 17.5748 29.7363 17.541 29.7363C17.5298 29.7363 17.5073 29.7521 17.4915 29.7701C17.4758 29.7881 17.4375 29.8038 17.4038 29.8038C17.3723 29.8038 17.3228 29.8173 17.2958 29.8331C17.1 29.9433 16.9268 30.0288 16.8975 30.0288C16.8705 30.0288 16.6905 30.1121 16.4295 30.2448C16.398 30.2628 16.3418 30.2763 16.3058 30.2763C16.2653 30.2763 16.2113 30.3011 16.1663 30.3416C16.1235 30.3798 16.0628 30.4158 16.0268 30.4226C15.993 30.4316 15.9525 30.4518 15.9368 30.4698C15.9233 30.4878 15.8783 30.5013 15.8378 30.5013C15.7973 30.5013 15.741 30.5193 15.7118 30.5418C15.633 30.6026 15.3788 30.7218 15.2865 30.7376C15.2438 30.7466 15.192 30.7668 15.174 30.7826C15.111 30.8343 14.8703 30.9536 14.7938 30.9693C14.7443 30.9806 14.6925 31.0166 14.6498 31.0706L14.58 31.1538L14.6385 31.2168C14.6723 31.2506 14.724 31.3271 14.7555 31.3878C14.787 31.4486 14.8568 31.5498 14.9108 31.6128C14.9648 31.6758 15.0165 31.7568 15.0255 31.7928C15.0345 31.8266 15.0683 31.8783 15.102 31.9076C15.1358 31.9368 15.183 31.9976 15.2055 32.0471C15.2685 32.1686 15.39 32.3553 15.4305 32.3891C15.4485 32.4048 15.471 32.4498 15.48 32.4881C15.4868 32.5286 15.5228 32.5848 15.5588 32.6163C15.5925 32.6478 15.6533 32.7333 15.6893 32.8098C15.7275 32.8841 15.7995 32.9921 15.849 33.0483C15.8985 33.1068 15.939 33.1721 15.939 33.1968C15.939 33.2238 15.9615 33.2598 15.9908 33.2801C16.0403 33.3138 16.1123 33.4196 16.1753 33.5501C16.191 33.5861 16.2518 33.6738 16.308 33.7413C16.3643 33.8088 16.4115 33.8853 16.4115 33.9123C16.4115 33.9371 16.4385 33.9776 16.4745 34.0046C16.5083 34.0293 16.5645 34.1103 16.6028 34.1823C16.6388 34.2543 16.7108 34.3646 16.7648 34.4276C16.8188 34.4883 16.8615 34.5626 16.8615 34.5896C16.8615 34.6166 16.8818 34.6526 16.9088 34.6706C16.9493 34.6998 17.109 34.9203 17.109 34.9473C17.109 34.9541 17.1608 35.0238 17.2215 35.1048C17.2845 35.1858 17.334 35.2691 17.334 35.2916C17.334 35.3141 17.3588 35.3501 17.388 35.3681C17.4173 35.3883 17.4848 35.4828 17.5388 35.5796C17.5905 35.6741 17.667 35.7888 17.7075 35.8338C17.748 35.8788 17.7863 35.9396 17.7953 35.9711C17.802 36.0026 17.8358 36.0543 17.8695 36.0858C17.9033 36.1173 17.9618 36.2028 17.9978 36.2748C18.0338 36.3491 18.1013 36.4481 18.1485 36.4976C18.1958 36.5471 18.243 36.6213 18.2543 36.6618C18.2655 36.7023 18.2993 36.7541 18.3285 36.7766C18.3578 36.7991 18.414 36.8846 18.4545 36.9656C18.4973 37.0466 18.5693 37.1568 18.6188 37.2108C18.666 37.2648 18.711 37.3346 18.7178 37.3683C18.7268 37.4043 18.747 37.4403 18.765 37.4493C18.801 37.4696 18.954 37.6923 18.954 37.7238C18.954 37.7351 19.0035 37.8071 19.0665 37.8836C19.1273 37.9601 19.179 38.0388 19.179 38.0568C19.179 38.0748 19.2128 38.1288 19.2533 38.1738C19.3388 38.2751 19.4265 38.4146 19.4265 38.4506C19.4265 38.4663 19.4715 38.5271 19.5278 38.5856C19.5818 38.6463 19.6335 38.7251 19.6403 38.7611C19.6493 38.7971 19.6673 38.8331 19.6853 38.8421C19.701 38.8533 19.737 38.9006 19.7663 38.9501C19.7955 38.9996 19.8315 39.0491 19.8473 39.0581C19.863 39.0671 19.8765 39.0986 19.8765 39.1256C19.8765 39.1526 19.917 39.2201 19.9688 39.2741C20.0183 39.3258 20.0745 39.4046 20.0903 39.4428C20.1083 39.4833 20.1375 39.5306 20.1578 39.5463C20.178 39.5643 20.214 39.6138 20.2365 39.6588C20.259 39.7038 20.295 39.7533 20.313 39.7691C20.3333 39.7871 20.349 39.8208 20.349 39.8501C20.349 39.8771 20.3828 39.9311 20.43 39.9738C20.475 40.0143 20.5245 40.0773 20.5403 40.1178C20.5673 40.1808 20.5965 40.2236 20.7495 40.4238C20.7743 40.4553 20.8013 40.5048 20.8103 40.5363C20.8193 40.5678 20.871 40.6421 20.925 40.7051C20.979 40.7658 21.024 40.8333 21.024 40.8536C21.024 40.8738 21.0488 40.9166 21.0803 40.9503C21.1118 40.9841 21.1523 41.0403 21.1703 41.0741C21.1883 41.1101 21.2175 41.1438 21.2378 41.1506C21.2558 41.1596 21.2715 41.1866 21.2715 41.2136C21.2715 41.2406 21.3188 41.3058 21.384 41.3688C21.447 41.4296 21.4965 41.4971 21.4965 41.5218C21.4965 41.5488 21.528 41.5848 21.5753 41.6141C21.618 41.6388 21.6743 41.6928 21.699 41.7333C21.7215 41.7738 21.78 41.8278 21.8273 41.8526C21.8768 41.8796 21.9263 41.9291 21.9465 41.9696C21.969 42.0191 22.0028 42.0506 22.05 42.0641C22.0883 42.0753 22.167 42.1293 22.2255 42.1856C22.284 42.2418 22.3583 42.2936 22.3898 42.3026C22.464 42.3206 22.6103 42.4128 22.6485 42.4668C22.6643 42.4916 22.7183 42.5163 22.7723 42.5231C22.8645 42.5388 22.959 42.5838 23.1165 42.6873C23.1638 42.7188 23.256 42.7481 23.3483 42.7616C23.4338 42.7728 23.5238 42.7976 23.5508 42.8156C23.5778 42.8336 23.6363 42.8561 23.679 42.8651C23.7218 42.8741 23.7983 42.9033 23.8478 42.9281C23.9243 42.9686 24.0008 42.9776 24.3428 42.9956C24.8738 43.0203 24.8873 43.0203 25.3328 43.0001C25.6568 42.9866 25.7333 42.9753 25.839 42.9326C26.0055 42.8628 26.154 42.8133 26.352 42.7661C26.442 42.7436 26.532 42.7098 26.5545 42.6896C26.6198 42.6333 26.8605 42.5163 26.9123 42.5163C26.9393 42.5163 26.9955 42.4826 27.036 42.4398C27.0765 42.3971 27.1418 42.3431 27.18 42.3206C27.414 42.1833 27.8753 41.7513 28.026 41.5263C28.0733 41.4588 28.1295 41.3891 28.1565 41.3733C28.1813 41.3576 28.2015 41.3216 28.2015 41.2923C28.2015 41.2631 28.233 41.2023 28.269 41.1551C28.3073 41.1078 28.3365 41.0606 28.3365 41.0493C28.3365 41.0358 28.3568 41.0021 28.3815 40.9706C28.4063 40.9391 28.4265 40.8851 28.4265 40.8536C28.4265 40.8221 28.4445 40.7591 28.4693 40.7163C28.4918 40.6736 28.5165 40.6061 28.5255 40.5656C28.5345 40.5251 28.5638 40.4666 28.5885 40.4328C28.6268 40.3856 28.6403 40.3248 28.6538 40.1336C28.665 40.0031 28.683 39.8366 28.6988 39.7668C28.737 39.5756 28.6718 38.6261 28.6133 38.5541C28.5998 38.5361 28.566 38.4506 28.5368 38.3651C28.5098 38.2773 28.4738 38.1873 28.4558 38.1626C28.44 38.1378 28.4265 38.0748 28.4265 38.0231C28.4265 37.9488 28.4153 37.9218 28.3793 37.9038C28.3545 37.8903 28.314 37.8341 28.2915 37.7801C28.269 37.7283 28.2398 37.6766 28.2285 37.6698C28.215 37.6631 28.1993 37.6248 28.1903 37.5888C28.1813 37.5528 28.1318 37.4741 28.0755 37.4178C28.0215 37.3593 27.9765 37.2963 27.9765 37.2761C27.9765 37.2401 27.8415 37.0466 27.765 36.9678C27.7448 36.9498 27.729 36.9138 27.729 36.8891C27.729 36.8643 27.6885 36.8058 27.6413 36.7563C27.5918 36.7091 27.5378 36.6348 27.5198 36.5943C27.486 36.5133 27.333 36.2996 27.2993 36.2883C27.288 36.2838 27.2745 36.2478 27.2655 36.2073C27.2588 36.1601 27.216 36.0971 27.153 36.0363C27.099 35.9846 27.054 35.9238 27.054 35.9013C27.054 35.8811 27.027 35.8406 26.9955 35.8091C26.964 35.7798 26.9213 35.7258 26.9033 35.6876C26.883 35.6516 26.8538 35.6088 26.838 35.5908C26.82 35.5751 26.8065 35.5458 26.8065 35.5278C26.8065 35.5121 26.757 35.4401 26.694 35.3726C26.6333 35.3051 26.5815 35.2331 26.5815 35.2128C26.5815 35.1926 26.5455 35.1363 26.5028 35.0891C26.46 35.0396 26.424 34.9901 26.424 34.9788C26.424 34.9473 26.2778 34.7381 26.1968 34.6526C26.1608 34.6143 26.127 34.5513 26.118 34.5131C26.109 34.4726 26.0865 34.4343 26.064 34.4276C26.0415 34.4208 26.0055 34.3781 25.9853 34.3353C25.9425 34.2453 25.9605 34.2048 26.0528 34.1823C26.0843 34.1733 26.109 34.1576 26.109 34.1463C26.109 34.1148 26.424 33.9663 26.4938 33.9663C26.5253 33.9663 26.5658 33.9506 26.5815 33.9326C26.622 33.8831 26.9168 33.7413 26.9775 33.7413C27.0045 33.7413 27.0495 33.7233 27.0788 33.7008C27.162 33.6378 27.396 33.5163 27.4343 33.5163C27.4815 33.5163 27.675 33.4241 27.7785 33.3543C27.8258 33.3228 27.9 33.2891 27.9473 33.2823C27.9945 33.2733 28.0688 33.2441 28.1115 33.2148C28.2173 33.1473 28.3748 33.0753 28.476 33.0483C28.521 33.0348 28.593 33.0011 28.6335 32.9696C28.7123 32.9111 28.8878 32.8323 28.998 32.8076C29.034 32.8008 29.0948 32.7693 29.1308 32.7378C29.1668 32.7063 29.2275 32.6748 29.2613 32.6681C29.2973 32.6613 29.3378 32.6411 29.3513 32.6253C29.3648 32.6073 29.412 32.5938 29.4548 32.5938C29.511 32.5938 29.5583 32.5736 29.6123 32.5263C29.6528 32.4903 29.7 32.4588 29.7158 32.4588C29.7315 32.4588 29.7788 32.4341 29.8215 32.4026C29.8643 32.3711 29.925 32.3463 29.9565 32.3463C29.9903 32.3463 30.0398 32.3261 30.069 32.3013C30.0983 32.2766 30.1365 32.2563 30.1568 32.2563C30.177 32.2563 30.2378 32.2248 30.2918 32.1888C30.3458 32.1506 30.4155 32.1213 30.4448 32.1213C30.474 32.1213 30.5753 32.0763 30.672 32.0223C30.7665 31.9661 30.8903 31.9098 30.9465 31.8963C31.0028 31.8806 31.0635 31.8558 31.0815 31.8401C31.1468 31.7838 31.3695 31.6781 31.455 31.6601C31.5045 31.6533 31.5765 31.6196 31.617 31.5903C31.707 31.5206 31.8983 31.4351 32.0063 31.4148C32.0513 31.4081 32.1098 31.3766 32.139 31.3451C32.166 31.3158 32.2178 31.2843 32.2538 31.2776C32.2875 31.2686 32.328 31.2483 32.3438 31.2303C32.3573 31.2123 32.4023 31.1988 32.4428 31.1988C32.4878 31.1988 32.544 31.1786 32.5823 31.1471C32.616 31.1178 32.6813 31.0818 32.724 31.0638C32.7668 31.0481 32.8185 31.0211 32.8388 31.0031C32.8568 30.9873 32.8995 30.9738 32.931 30.9738C32.9625 30.9738 33.0143 30.9536 33.0458 30.9288C33.0773 30.9018 33.1493 30.8613 33.2055 30.8366C33.2618 30.8118 33.3135 30.7826 33.3203 30.7713C33.327 30.7578 33.3563 30.7488 33.3833 30.7488C33.4103 30.7488 33.4688 30.7286 33.5115 30.7038C33.7005 30.5958 33.8963 30.5013 33.9323 30.4991C33.9548 30.4991 34.0245 30.4698 34.0853 30.4338C34.236 30.3438 34.3373 30.3011 34.4385 30.2786C34.4858 30.2673 34.5713 30.2268 34.6298 30.1908C34.7693 30.1008 34.9268 30.0288 34.9875 30.0288C35.0123 30.0288 35.073 29.9996 35.1225 29.9613C35.1698 29.9253 35.2215 29.8938 35.2328 29.8938C35.2463 29.8938 35.2935 29.8736 35.3408 29.8488C35.3858 29.8241 35.4555 29.8038 35.4915 29.8038C35.5343 29.8038 35.5658 29.7903 35.5748 29.7678C35.5815 29.7476 35.6423 29.7071 35.7075 29.6778C35.7728 29.6508 35.8313 29.6148 35.8403 29.6036C35.847 29.5901 35.883 29.5788 35.9168 29.5788C35.9528 29.5788 36.0158 29.5496 36.0653 29.5113C36.1103 29.4753 36.1688 29.4393 36.1958 29.4303C36.2228 29.4236 36.261 29.4033 36.279 29.3876C36.297 29.3718 36.3488 29.3538 36.3938 29.3448C36.4388 29.3358 36.5018 29.3021 36.5378 29.2638C36.5738 29.2256 36.6188 29.1963 36.6368 29.1963C36.657 29.1963 36.7043 29.1761 36.7403 29.1513C36.7785 29.1266 36.8235 29.1063 36.8415 29.1063C36.8618 29.1063 36.9113 29.0771 36.954 29.0411C37.0418 28.9691 37.1993 28.8813 37.2375 28.8813C37.251 28.8813 37.3275 28.8318 37.4063 28.7688C37.485 28.7081 37.5728 28.6563 37.5998 28.6563C37.6268 28.6563 37.6605 28.6361 37.6718 28.6136C37.6853 28.5911 37.7415 28.5483 37.7978 28.5213C37.854 28.4943 37.899 28.4651 37.899 28.4538C37.899 28.4448 37.9215 28.4313 37.9508 28.4223C37.9778 28.4156 38.0588 28.3593 38.1308 28.2963C38.2028 28.2356 38.277 28.1838 38.295 28.1838C38.313 28.1838 38.349 28.1591 38.376 28.1276C38.403 28.0961 38.4705 28.0443 38.5268 28.0106C38.5853 27.9768 38.6933 27.8981 38.772 27.8306C38.8508 27.7653 38.9228 27.7113 38.9318 27.7113C38.943 27.7113 39.0015 27.6663 39.06 27.6101C39.1208 27.5538 39.1928 27.5021 39.2198 27.4953C39.2468 27.4886 39.276 27.4638 39.2828 27.4413C39.2963 27.4008 39.4155 27.2838 39.447 27.2838C39.4583 27.2838 39.4965 27.2501 39.5325 27.2118C39.5685 27.1713 39.6675 27.0813 39.753 27.0138C39.8363 26.9463 39.9578 26.8383 40.023 26.7776C40.0883 26.7146 40.176 26.6336 40.2188 26.5931C40.2615 26.5526 40.3065 26.5076 40.32 26.4918C40.3335 26.4761 40.3695 26.4401 40.3988 26.4153C40.428 26.3883 40.518 26.2916 40.599 26.2016C40.68 26.1093 40.7835 25.9991 40.8308 25.9518C40.8758 25.9068 40.914 25.8573 40.914 25.8461C40.914 25.8348 40.9613 25.7741 41.022 25.7133C41.0805 25.6548 41.157 25.5626 41.1908 25.5131C41.2268 25.4613 41.274 25.4163 41.2988 25.4096C41.3235 25.4028 41.3573 25.3623 41.3753 25.3196C41.3933 25.2768 41.4473 25.2003 41.499 25.1508C41.5485 25.0991 41.589 25.0496 41.589 25.0383C41.589 25.0293 41.6363 24.9573 41.697 24.8786C41.7555 24.7998 41.832 24.6896 41.8658 24.6311C41.9018 24.5748 41.958 24.4961 41.994 24.4601C42.0278 24.4218 42.0638 24.3678 42.0728 24.3408C42.0818 24.3116 42.102 24.2711 42.12 24.2508C42.2393 24.1113 42.2843 24.0461 42.2978 23.9943C42.3068 23.9628 42.3563 23.8863 42.4125 23.8233C42.4665 23.7626 42.5115 23.7018 42.5115 23.6928C42.5115 23.6501 42.6555 23.3891 42.7028 23.3418C42.7343 23.3126 42.759 23.2631 42.759 23.2316C42.759 23.1978 42.7793 23.1461 42.804 23.1146C42.8288 23.0831 42.849 23.0448 42.849 23.0268C42.849 23.0088 42.8783 22.9616 42.9165 22.9188C42.9525 22.8761 42.9818 22.8221 42.984 22.7996C42.984 22.7456 43.1325 22.4373 43.1753 22.4013C43.1933 22.3878 43.2135 22.3383 43.2225 22.2911C43.2315 22.2461 43.2495 22.1943 43.2653 22.1763C43.281 22.1583 43.299 22.1088 43.3058 22.0683C43.3148 22.0278 43.3463 21.9603 43.3778 21.9198C43.4115 21.8748 43.443 21.7938 43.4543 21.7263C43.4655 21.6633 43.4835 21.6003 43.4993 21.5846C43.5128 21.5711 43.524 21.5441 43.524 21.5216C43.524 21.5013 43.5555 21.4248 43.5915 21.3528C43.6298 21.2808 43.6703 21.1751 43.6815 21.1188C43.7175 20.9366 43.794 20.6823 43.8503 20.5676C43.8795 20.5046 43.911 20.3898 43.92 20.3088C43.9268 20.2278 43.9493 20.1423 43.965 20.1176C43.983 20.0928 43.9965 20.0478 43.9965 20.0163C43.9965 19.9848 44.0258 19.8723 44.0618 19.7688C44.1023 19.6563 44.136 19.5033 44.1428 19.3976C44.1518 19.2986 44.172 19.1748 44.19 19.1208C44.208 19.0691 44.2215 18.9498 44.2215 18.8598C44.2215 18.7698 44.2328 18.6393 44.244 18.5741C44.2575 18.5066 44.2913 18.2906 44.3183 18.0926C44.3633 17.7641 44.3678 17.6426 44.3678 16.7201C44.3678 15.6783 44.3498 15.3948 44.253 14.8796C44.2373 14.7851 44.2215 14.6276 44.2215 14.5308C44.2215 14.4341 44.208 14.2991 44.19 14.2316C44.172 14.1641 44.1495 14.0178 44.1405 13.9076C44.1315 13.7951 44.1135 13.6803 44.0978 13.6488C44.082 13.6173 44.0528 13.5161 44.0303 13.4238C44.01 13.3316 43.9785 13.2191 43.9605 13.1763C43.9448 13.1336 43.9245 13.0256 43.9155 12.9401C43.9088 12.8523 43.8885 12.7601 43.8705 12.7331C43.8165 12.6476 43.6815 12.2268 43.6815 12.1458C43.6815 12.0986 43.6635 12.0468 43.6388 12.0198C43.6163 11.9928 43.5803 11.9208 43.5578 11.8601C43.5353 11.7971 43.5015 11.7273 43.4858 11.7026C43.47 11.6778 43.4565 11.6283 43.4565 11.5901C43.4565 11.5541 43.4205 11.4461 43.3755 11.3538C43.3305 11.2616 43.2788 11.1558 43.263 11.1221C43.245 11.0861 43.2315 11.0208 43.2315 10.9736C43.2315 10.9128 43.2158 10.8746 43.1753 10.8363C43.1438 10.8071 43.119 10.7711 43.119 10.7576C43.119 10.7418 43.0943 10.6923 43.0628 10.6473C43.0313 10.6023 42.9998 10.5236 42.993 10.4741C42.984 10.4246 42.9638 10.3706 42.948 10.3526C42.9323 10.3368 42.8963 10.2828 42.867 10.2311C42.8378 10.1793 42.8018 10.1141 42.7883 10.0871C42.7725 10.0601 42.759 10.0173 42.759 9.9903C42.759 9.96555 42.7388 9.92505 42.7163 9.9048C42.6915 9.8823 42.66 9.8328 42.6443 9.79455C42.6285 9.75405 42.597 9.6978 42.5745 9.66855C42.552 9.6393 42.534 9.5943 42.534 9.5718C42.534 9.54705 42.5048 9.4998 42.471 9.4683C42.39 9.38955 42.3203 9.2883 42.2978 9.2163C42.2888 9.1848 42.237 9.1083 42.183 9.0453C42.1313 8.9823 42.0795 8.9013 42.0705 8.8653C42.0638 8.8293 42.039 8.7843 42.0165 8.7663C41.9715 8.7258 41.8365 8.52555 41.8365 8.4963C41.8365 8.4873 41.787 8.41755 41.724 8.34555C41.6633 8.27355 41.607 8.18805 41.6003 8.15655C41.5935 8.12505 41.562 8.08455 41.535 8.0688C41.5058 8.05305 41.454 7.9878 41.4203 7.92255C41.3888 7.8573 41.31 7.7493 41.2493 7.6818C41.1885 7.61655 41.139 7.54905 41.139 7.53105C41.139 7.51305 41.0895 7.44555 41.0265 7.3803C40.9635 7.31505 40.914 7.2453 40.914 7.2273C40.914 7.2093 40.878 7.16655 40.8353 7.13505C40.7925 7.1013 40.7273 7.0248 40.689 6.96405C40.653 6.9033 40.6125 6.8538 40.6013 6.8538C40.5923 6.8538 40.5563 6.81555 40.527 6.7683C40.455 6.66255 40.2345 6.4173 39.9083 6.0843C39.8498 6.02355 39.4313 5.61855 39.3143 5.5083C39.2963 5.49255 39.2445 5.4408 39.1973 5.3958C38.9768 5.1798 38.8283 5.0448 38.7765 5.0133C38.7 4.9638 38.4165 4.71855 38.3648 4.6533C38.3423 4.6263 38.3108 4.6038 38.2973 4.6038C38.2568 4.6038 38.124 4.47555 38.124 4.4373C38.124 4.4193 38.0903 4.3923 38.0475 4.3788C38.0048 4.3653 37.9238 4.30905 37.8675 4.25505C37.8113 4.1988 37.7505 4.1538 37.7325 4.1538C37.7145 4.1538 37.6898 4.1403 37.6808 4.1223C37.6718 4.10655 37.62 4.06605 37.5683 4.0323C37.5143 4.0008 37.4715 3.9648 37.4715 3.95355C37.4715 3.9423 37.4423 3.92205 37.4063 3.9108C37.3725 3.89955 37.296 3.84105 37.2375 3.7848C37.1768 3.72855 37.1093 3.6813 37.0845 3.6813C37.0598 3.6813 37.0058 3.6543 36.9653 3.6183C36.8505 3.5238 36.774 3.47205 36.6615 3.4158C36.6053 3.38655 36.531 3.3348 36.4928 3.2988C36.4568 3.2628 36.3983 3.2268 36.3645 3.22005C36.3308 3.21105 36.2993 3.1908 36.2925 3.1728C36.2858 3.1548 36.2655 3.1413 36.2475 3.1413C36.2295 3.1413 36.171 3.10755 36.117 3.06705C36.063 3.02655 35.991 2.98155 35.9573 2.9658C35.9235 2.9523 35.8403 2.8983 35.7728 2.8488C35.7053 2.7993 35.6378 2.7588 35.622 2.7588C35.5725 2.7588 35.4173 2.6688 35.3453 2.59905C35.307 2.56305 35.253 2.5338 35.2238 2.5338C35.1945 2.5338 35.1473 2.51355 35.1158 2.4888C35.0843 2.46405 35.0438 2.4438 35.028 2.4438C35.0123 2.4438 34.965 2.41455 34.9245 2.37855C34.884 2.34255 34.8143 2.30655 34.7715 2.29755C34.7288 2.28855 34.677 2.2683 34.659 2.25255C34.641 2.2368 34.6005 2.21655 34.5713 2.20755C34.5398 2.19855 34.4768 2.16255 34.4273 2.12655C34.3778 2.09055 34.3148 2.0613 34.2878 2.0613C34.2585 2.0613 34.2248 2.04555 34.209 2.02755C34.1933 2.00955 34.164 1.9938 34.1438 1.9938C34.1235 1.9938 34.0515 1.9578 33.984 1.91505C33.9165 1.8723 33.8378 1.8363 33.8108 1.8363C33.7838 1.8363 33.7343 1.82055 33.6983 1.80255C33.6645 1.78455 33.5948 1.75305 33.5453 1.73055C33.4958 1.7103 33.4283 1.6743 33.3968 1.65405C33.3653 1.63155 33.2933 1.6068 33.2393 1.5978C33.1853 1.5888 33.084 1.5528 33.012 1.5168C32.9423 1.48305 32.8748 1.4538 32.8635 1.4538C32.8523 1.4538 32.8298 1.43805 32.814 1.42005C32.8005 1.4043 32.742 1.3818 32.6858 1.3728C32.6295 1.3638 32.5553 1.34355 32.5238 1.3278C32.4923 1.3098 32.454 1.2963 32.4383 1.2963C32.4248 1.2963 32.3843 1.2828 32.3483 1.2648C32.1795 1.18155 32.0738 1.1388 32.031 1.1388C32.004 1.1388 31.932 1.11855 31.869 1.0938C31.806 1.06905 31.7408 1.0488 31.7228 1.0488C31.7048 1.0488 31.6238 1.0173 31.5473 0.9813C31.4685 0.94305 31.374 0.913799 31.338 0.913799C31.302 0.913799 31.212 0.893551 31.1378 0.868801C31.0635 0.846298 30.9375 0.808048 30.8565 0.7878C30.7755 0.767548 30.6698 0.7383 30.6203 0.720299C30.5708 0.704548 30.4853 0.68655 30.4313 0.677551C30.375 0.670799 30.285 0.650551 30.2288 0.6348C30.1725 0.616798 30.0443 0.5853 29.9453 0.562798C29.8463 0.542549 29.7405 0.511051 29.709 0.4953C29.6775 0.479549 29.565 0.461548 29.4615 0.452549C29.3558 0.44355 29.2298 0.423298 29.1803 0.4053C29.1308 0.389549 29.0408 0.369301 28.9778 0.362549C28.917 0.35355 28.7483 0.317551 28.6065 0.283798C28.4265 0.241051 28.2645 0.218548 28.0755 0.209549C27.9248 0.202801 27.783 0.189301 27.7605 0.1758C27.7358 0.164551 27.5603 0.146549 27.369 0.139801C27.1778 0.130798 26.9303 0.11055 26.8178 0.0925484C26.7075 0.0745506 26.5298 0.0475502 26.424 0.03405C26.1945 0.00254822 24.5093 -0.0131989 24.1853 0.0137978Z" fill="white"/>
</svg>
