<svg width="23" height="35" viewBox="0 0 23 35" fill="none" xmlns="http://www.w3.org/2000/svg">
<path fill-rule="evenodd" clip-rule="evenodd" d="M4.84688 12.5006C4.21087 12.5006 3.58109 12.6259 2.99349 12.8693C2.4059 13.1127 1.872 13.4694 1.42227 13.9191C0.972545 14.3689 0.615803 14.9028 0.372413 15.4904C0.129023 16.078 0.00375244 16.7077 0.00375244 17.3438C0.00375244 17.9798 0.129023 18.6095 0.372413 19.1971C0.615803 19.7847 0.972545 20.3186 1.42227 20.7684C1.872 21.2181 2.4059 21.5748 2.99349 21.8182C3.58109 22.0616 4.21087 22.1869 4.84688 22.1869H9.69V12.5006H4.84688ZM9.69 9.68812H4.84688C3.56215 9.68812 2.33005 9.17777 1.42161 8.26933C0.51317 7.36089 0.00281456 6.12879 0.00281456 4.84406C0.00281456 3.55934 0.51317 2.32723 1.42161 1.41879C2.33005 0.510355 3.56215 0 4.84688 0H9.69V9.68812ZM12.5025 0V9.68812H17.3456C18.6138 9.66317 19.8217 9.14185 20.7098 8.23613C21.5979 7.33041 22.0953 6.11253 22.0953 4.84406C22.0953 3.57559 21.5979 2.35771 20.7098 1.45199C19.8217 0.546272 18.6138 0.0249524 17.3456 0H12.5025ZM17.3456 12.4988C16.0744 12.4986 14.854 12.9983 13.9479 13.89C13.0418 14.7817 12.5227 15.9939 12.5025 17.265V17.4206C12.518 18.375 12.8152 19.3035 13.3567 20.0895C13.8982 20.8755 14.6599 21.484 15.5462 21.8385C16.4324 22.1931 17.4036 22.2778 18.3378 22.0821C19.2721 21.8865 20.1276 21.4191 20.7971 20.7388C21.4666 20.0584 21.9201 19.1954 22.1007 18.2581C22.2812 17.3209 22.1808 16.3511 21.8121 15.4708C21.4433 14.5904 20.8226 13.8386 20.028 13.3098C19.2333 12.781 18.3001 12.4989 17.3456 12.4988ZM4.84688 24.9994C3.88855 24.999 2.95163 25.2828 2.15463 25.815C1.35763 26.3471 0.736339 27.1037 0.369345 27.989C0.00235057 28.8742 -0.0938648 29.8485 0.0928688 30.7884C0.279602 31.7284 0.740896 32.5919 1.41841 33.2696C2.09592 33.9474 2.95921 34.409 3.8991 34.5961C4.83899 34.7832 5.81325 34.6874 6.69867 34.3207C7.58409 33.9541 8.34088 33.3331 8.87334 32.5363C9.4058 31.7395 9.69 30.8027 9.69 29.8444V24.9994H4.84688Z" fill="white"/>
</svg>
