<svg width="133" height="157" viewBox="0 0 133 157" fill="none" xmlns="http://www.w3.org/2000/svg">
<path d="M46.0879 75.0078C31.2788 91.8738 44.8989 98.249 68.1591 121.105C88.9764 101.006 100.921 95.0982 86.4492 78.7441L108.287 81.0146C120.816 82.3175 126.256 97.5485 117.389 106.494L68.208 156.105L67.4472 155.345L67.3759 155.416L14.539 102.145C5.51705 93.0484 11.3145 77.5582 24.0918 76.6211L46.0879 75.0078Z" fill="url(#paint0_linear_264_6)"/>
<path d="M75.115 32.8781C82.0173 21.9744 78.9114 7.75116 68.5874 0.00853412L11.6946 81.7931C7.57386 87.7169 8.25493 95.7352 13.3158 100.879L35.0883 123.009C20.0787 100.053 46.382 78.2683 75.115 32.8781Z" fill="#181818"/>
<path d="M57.8773 81.2485L81.6098 49.9416L115.362 79.0736C124.319 86.8043 124.643 100.578 116.06 108.722L102.588 121.505C114.439 104.803 85.2537 65.4859 57.8773 81.2485Z" fill="#181818"/>
<path d="M57.8773 81.2485L81.6098 49.9416L116.408 80.0121C123.9 87.5042 109.945 114.148 102.588 121.505C114.439 104.803 85.2537 65.4859 57.8773 81.2485Z" fill="#181818"/>
<defs>
<linearGradient id="paint0_linear_264_6" x1="65.961" y1="75.0078" x2="65.961" y2="156.105" gradientUnits="userSpaceOnUse">
<stop stop-color="#FFF2BE"/>
<stop offset="1" stop-color="#9C6920"/>
</linearGradient>
</defs>
</svg>
