<svg width="133" height="157" viewBox="0 0 133 157" fill="none" xmlns="http://www.w3.org/2000/svg">
<path d="M46.0883 75.0078C31.279 91.874 44.8991 98.2487 68.1596 121.105C88.9766 101.006 100.921 95.098 86.4497 78.7441L108.288 81.0146C120.816 82.3177 126.256 97.5485 117.388 106.494L68.2075 156.105L67.4467 155.345L67.3764 155.416L14.5385 102.145C5.51656 93.0484 11.3141 77.5583 24.0913 76.6211L46.0883 75.0078Z" fill="url(#paint0_linear_265_6)"/>
<path d="M75.115 32.8781C82.0173 21.9744 78.9114 7.75116 68.5874 0.00853412L11.6946 81.7931C7.57386 87.7169 8.25493 95.7352 13.3158 100.879L35.0883 123.009C20.0787 100.053 46.382 78.2683 75.115 32.8781Z" fill="#181818"/>
<path d="M57.8773 81.2485L81.6098 49.9416L115.362 79.0736C124.319 86.8043 124.643 100.578 116.06 108.722L102.588 121.505C114.439 104.803 85.2537 65.4859 57.8773 81.2485Z" fill="#181818"/>
<path d="M57.8773 81.2485L81.6098 49.9416L116.408 80.0121C123.9 87.5042 109.945 114.148 102.588 121.505C114.439 104.803 85.2537 65.4859 57.8773 81.2485Z" fill="#181818"/>
<defs>
<linearGradient id="paint0_linear_265_6" x1="65.9607" y1="75.0078" x2="65.9607" y2="156.105" gradientUnits="userSpaceOnUse">
<stop stop-color="#ADAFFB"/>
<stop offset="1" stop-color="#6C3CDB"/>
</linearGradient>
</defs>
</svg>
