<svg width="43" height="42" viewBox="0 0 43 42" fill="none" xmlns="http://www.w3.org/2000/svg">
<path d="M42.1829 0.157937C42.1806 0.274937 42.1671 0.452687 42.1559 0.551687C42.1424 0.652937 42.1176 0.943187 42.0996 1.19969C42.0794 1.51019 42.0569 1.69244 42.0321 1.74869C41.9849 1.86569 41.9601 1.97369 41.9084 2.32919C41.8836 2.50919 41.8431 2.68244 41.8116 2.76119C41.7801 2.83544 41.7441 2.97044 41.7306 3.06269C41.7149 3.15944 41.6766 3.28769 41.6384 3.36644C41.6024 3.44069 41.5551 3.57119 41.5371 3.65894C41.5169 3.74444 41.4764 3.86369 41.4471 3.92219C41.4156 3.97844 41.3751 4.09319 41.3549 4.17644C41.3346 4.25969 41.2919 4.35644 41.2604 4.39469C41.2289 4.43069 41.1861 4.53193 41.1614 4.61968C41.1389 4.70743 41.0961 4.80868 41.0669 4.84243C41.0376 4.87618 41.0039 4.94818 40.9904 5.00218C40.9769 5.05618 40.9341 5.14393 40.8959 5.19568C40.8576 5.24743 40.8104 5.33968 40.7924 5.39818C40.7721 5.45668 40.7271 5.53768 40.6911 5.57593C40.6574 5.61643 40.6169 5.69068 40.6034 5.74018C40.5899 5.78968 40.5494 5.86393 40.5156 5.90443C40.4796 5.94268 40.4324 6.02143 40.4076 6.07768C40.3829 6.13393 40.3469 6.19243 40.3266 6.21043C40.3041 6.22618 40.2681 6.28243 40.2456 6.33418C40.2051 6.42868 40.0994 6.58618 39.9779 6.73018C39.9419 6.77293 39.8901 6.85168 39.8631 6.90343C39.8384 6.95518 39.8069 7.00468 39.7934 7.01143C39.7799 7.02043 39.7416 7.06768 39.7101 7.11943C39.6786 7.17118 39.6224 7.24993 39.5864 7.29268C39.5504 7.33543 39.4829 7.41868 39.4379 7.47718C39.1184 7.87993 38.9249 8.10943 38.7696 8.27368C38.6706 8.37718 38.5491 8.50768 38.4996 8.56393C38.3736 8.70793 37.9484 9.13318 37.8381 9.22768C37.6604 9.38068 37.4601 9.57643 37.4466 9.61468C37.4399 9.63493 37.3949 9.67318 37.3476 9.69793C37.3004 9.72043 37.1969 9.80368 37.1181 9.88018C37.0371 9.95668 36.9314 10.0467 36.8796 10.0827C36.8279 10.1187 36.7739 10.1637 36.7559 10.1839C36.7401 10.2042 36.6861 10.2402 36.6411 10.2649C36.5939 10.2874 36.5511 10.3257 36.5444 10.3482C36.5354 10.3707 36.4904 10.4134 36.4386 10.4404C36.3891 10.4697 36.3419 10.5079 36.3351 10.5237C36.3284 10.5417 36.2811 10.5777 36.2294 10.6047C36.1799 10.6294 36.0944 10.6879 36.0449 10.7329C35.9436 10.8207 35.8064 10.9197 35.6826 10.9962C35.6399 11.0209 35.5724 11.0749 35.5341 11.1132C35.4936 11.1537 35.4509 11.1852 35.4374 11.1852C35.4261 11.1852 35.3811 11.2144 35.3384 11.2504C35.2956 11.2842 35.2169 11.3359 35.1651 11.3607C35.1134 11.3877 35.0639 11.4214 35.0571 11.4349C35.0369 11.4642 34.7556 11.6532 34.6431 11.7094C34.5981 11.7342 34.5329 11.7814 34.4946 11.8152C34.4586 11.8512 34.3709 11.9052 34.3034 11.9344C34.2359 11.9659 34.1616 12.0109 34.1391 12.0357C34.1166 12.0604 34.0649 12.0942 34.0266 12.1099C33.9861 12.1257 33.8984 12.1774 33.8286 12.2247C33.7589 12.2719 33.6914 12.3102 33.6779 12.3102C33.6644 12.3102 33.6261 12.3349 33.5901 12.3642C33.5541 12.3957 33.4664 12.4452 33.3944 12.4767C33.3224 12.5082 33.2346 12.5599 33.1964 12.5914C33.1604 12.6229 33.1176 12.6477 33.1019 12.6477C33.0861 12.6477 33.0186 12.6882 32.9511 12.7354C32.8836 12.7849 32.7869 12.8344 32.7374 12.8479C32.6856 12.8614 32.6024 12.9042 32.5484 12.9424C32.4966 12.9807 32.4201 13.0234 32.3819 13.0369C32.3436 13.0482 32.2761 13.0864 32.2334 13.1224C32.1884 13.1562 32.1006 13.2012 32.0376 13.2214C31.9746 13.2417 31.8891 13.2844 31.8486 13.3137C31.8081 13.3429 31.7249 13.3834 31.6619 13.4037C31.5989 13.4239 31.5224 13.4644 31.4909 13.4937C31.4594 13.5229 31.3739 13.5657 31.3041 13.5904C31.2321 13.6152 31.1444 13.6579 31.1061 13.6849C31.0679 13.7119 30.9779 13.7502 30.9036 13.7727C30.8294 13.7952 30.7349 13.8379 30.6966 13.8694C30.6561 13.8987 30.5571 13.9459 30.4739 13.9729C30.3929 13.9999 30.3119 14.0359 30.2984 14.0539C30.2849 14.0719 30.1926 14.1124 30.0936 14.1439C29.9969 14.1777 29.9159 14.2114 29.9159 14.2227C29.9159 14.2452 29.7269 14.3262 29.6234 14.3464C29.5806 14.3554 29.4996 14.3914 29.4479 14.4274C29.3939 14.4612 29.2949 14.5017 29.2296 14.5152C29.1644 14.5287 29.0654 14.5692 29.0114 14.6052C28.9596 14.6389 28.8494 14.6862 28.7684 14.7064C28.6896 14.7267 28.5839 14.7672 28.5321 14.7964C28.4826 14.8257 28.3814 14.8662 28.3071 14.8864C28.2329 14.9067 28.1204 14.9517 28.0596 14.9877C27.9966 15.0214 27.8864 15.0619 27.8144 15.0799C27.7424 15.0957 27.6479 15.1317 27.6051 15.1609C27.5624 15.1902 27.4409 15.2329 27.3374 15.2577C27.2339 15.2824 27.1101 15.3274 27.0629 15.3589C27.0179 15.3882 26.9099 15.4287 26.8221 15.4489C26.7366 15.4692 26.6084 15.5097 26.5409 15.5389C26.4734 15.5682 26.3519 15.6109 26.2709 15.6289C26.1899 15.6492 26.0751 15.6942 26.0121 15.7302C25.9514 15.7662 25.8344 15.8067 25.7534 15.8202C25.6724 15.8337 25.5531 15.8719 25.4879 15.9012C25.4226 15.9327 25.2809 15.9754 25.1729 16.0002C25.0649 16.0227 24.9119 16.0722 24.8286 16.1082C24.7476 16.1464 24.6194 16.1869 24.5429 16.2027C24.4686 16.2162 24.3471 16.2522 24.2774 16.2837C24.2076 16.3152 24.0681 16.3557 23.9691 16.3737C23.8701 16.3939 23.7486 16.4277 23.7036 16.4524C23.5866 16.5109 23.4449 16.5559 23.3121 16.5739C23.2514 16.5829 23.1299 16.6167 23.0421 16.6527C22.9566 16.6864 22.8149 16.7269 22.7271 16.7404C22.6416 16.7562 22.5089 16.7922 22.4346 16.8214C22.2839 16.8799 22.0994 16.9317 21.9621 16.9564C21.9126 16.9654 21.8271 16.9924 21.7709 17.0172C21.7146 17.0419 21.5639 17.0824 21.4334 17.1072C21.3029 17.1319 21.1476 17.1747 21.0846 17.2039C21.0239 17.2309 20.9024 17.2669 20.8146 17.2827C20.6369 17.3142 20.4974 17.3547 20.3916 17.4087C20.3534 17.4289 20.2139 17.4649 20.0811 17.4874C19.9484 17.5099 19.7999 17.5482 19.7526 17.5729C19.7031 17.5977 19.5726 17.6337 19.4624 17.6539C19.3521 17.6742 19.1969 17.7192 19.1159 17.7552C19.0349 17.7912 18.8774 17.8339 18.7626 17.8542C18.6479 17.8722 18.4971 17.9127 18.4274 17.9442C18.3599 17.9757 18.2136 18.0184 18.1079 18.0364C17.9999 18.0567 17.8649 18.0972 17.8086 18.1264C17.7524 18.1557 17.6174 18.2029 17.5071 18.2277C17.3969 18.2524 17.2619 18.2952 17.2056 18.3199C17.1494 18.3447 17.0144 18.3852 16.9064 18.4077C16.7984 18.4324 16.6814 18.4729 16.6454 18.4977C16.6094 18.5247 16.5014 18.5652 16.4046 18.5899C16.3079 18.6147 16.1909 18.6552 16.1436 18.6777C16.0986 18.7024 15.9816 18.7429 15.8871 18.7677C15.7904 18.7947 15.6711 18.8397 15.6194 18.8689C15.5676 18.8982 15.4551 18.9432 15.3651 18.9679C15.2774 18.9904 15.1604 19.0377 15.1064 19.0669C15.0524 19.0984 14.9534 19.1344 14.8814 19.1502C14.8116 19.1637 14.7104 19.2042 14.6564 19.2402C14.6046 19.2739 14.4989 19.3212 14.4246 19.3414C14.3504 19.3639 14.2401 19.4089 14.1771 19.4427C14.1164 19.4764 14.0286 19.5124 13.9859 19.5214C13.8869 19.5417 13.7384 19.6159 13.7384 19.6452C13.7384 19.6564 13.6799 19.6834 13.6079 19.7037C13.5381 19.7239 13.4189 19.7734 13.3446 19.8139C13.2704 19.8544 13.1691 19.8994 13.1196 19.9152C13.0701 19.9309 13.0049 19.9669 12.9734 19.9962C12.9419 20.0254 12.8564 20.0704 12.7821 20.0952C12.7101 20.1199 12.6336 20.1559 12.6134 20.1739C12.5954 20.1919 12.5031 20.2347 12.4131 20.2729C12.3231 20.3089 12.2264 20.3607 12.1994 20.3832C12.1746 20.4079 12.1116 20.4394 12.0621 20.4552C12.0126 20.4709 11.9361 20.5137 11.8934 20.5474C11.8506 20.5834 11.7719 20.6262 11.7179 20.6442C11.6661 20.6622 11.5851 20.7072 11.5379 20.7432C11.4929 20.7792 11.4186 20.8219 11.3759 20.8377C11.3331 20.8557 11.2476 20.9029 11.1869 20.9434C11.1284 20.9839 11.0654 21.0177 11.0496 21.0177C11.0339 21.0177 10.9731 21.0582 10.9146 21.1054C10.8561 21.1549 10.7796 21.1999 10.7481 21.2089C10.7166 21.2179 10.6649 21.2472 10.6334 21.2764C10.6019 21.3057 10.5344 21.3529 10.4826 21.3822C10.3116 21.4767 10.1046 21.6094 10.0484 21.6589C10.0169 21.6882 9.95614 21.7287 9.91339 21.7489C9.87064 21.7714 9.80539 21.8142 9.76714 21.8434C9.68839 21.9064 9.50389 22.0347 9.40714 22.0909C9.37114 22.1134 9.31489 22.1584 9.28339 22.1899C9.25189 22.2214 9.19339 22.2642 9.15514 22.2844C9.11464 22.3069 9.05389 22.3497 9.02014 22.3812C8.98639 22.4149 8.91664 22.4667 8.86714 22.4982C8.76814 22.5589 8.63989 22.6669 8.51839 22.7862C8.47564 22.8289 8.42839 22.8627 8.41489 22.8627C8.40139 22.8627 8.37214 22.8852 8.34739 22.9099C8.32489 22.9369 8.25964 22.9887 8.20339 23.0269C8.14714 23.0652 8.09314 23.1079 8.07964 23.1237C8.06839 23.1394 7.98064 23.2137 7.88839 23.2879C7.65889 23.4724 7.44064 23.6817 6.73414 24.3859C5.96014 25.1622 5.78239 25.3444 5.75314 25.4007C5.73964 25.4254 5.70139 25.4749 5.66764 25.5132C5.63164 25.5492 5.55514 25.6414 5.49214 25.7179C5.43139 25.7967 5.33914 25.9092 5.28964 25.9699C5.24014 26.0307 5.15914 26.1297 5.10964 26.1927C5.06014 26.2557 4.97914 26.3547 4.92964 26.4154C4.88014 26.4762 4.81714 26.5594 4.79014 26.6022C4.61914 26.8564 4.57414 26.9172 4.54489 26.9284C4.52689 26.9352 4.48639 26.9892 4.45714 27.0454C4.42789 27.1039 4.38739 27.1647 4.36714 27.1827C4.34689 27.2007 4.30639 27.2592 4.27714 27.3154C4.25014 27.3717 4.20289 27.4392 4.17589 27.4639C4.14889 27.4887 4.11064 27.5382 4.09039 27.5764C4.07239 27.6124 4.02964 27.6799 3.99589 27.7227C3.96214 27.7654 3.92164 27.8374 3.90589 27.8802C3.89014 27.9229 3.84514 27.9949 3.80464 28.0377C3.76414 28.0804 3.71914 28.1502 3.70339 28.1929C3.68539 28.2334 3.64939 28.2964 3.62014 28.3302C3.59089 28.3662 3.55264 28.4314 3.53239 28.4809C3.51214 28.5282 3.46939 28.5957 3.43339 28.6339C3.39964 28.6699 3.35464 28.7532 3.33439 28.8184C3.31189 28.8814 3.28039 28.9467 3.26014 28.9647C3.23989 28.9804 3.19939 29.0479 3.17014 29.1154C3.14089 29.1829 3.08689 29.2774 3.05314 29.3292C3.01714 29.3809 2.98114 29.4462 2.97214 29.4777C2.96314 29.5092 2.92264 29.5834 2.88214 29.6464C2.84164 29.7072 2.80114 29.7837 2.79214 29.8152C2.78314 29.8467 2.74039 29.9344 2.69989 30.0132C2.65714 30.0919 2.62339 30.1729 2.62114 30.1932C2.62114 30.2134 2.59639 30.2719 2.56714 30.3214C2.46814 30.4879 2.27239 30.9087 2.25214 30.9964C2.24314 31.0324 2.19814 31.1337 2.15089 31.2214C2.10589 31.3069 2.05414 31.4284 2.04064 31.4914C2.02489 31.5522 1.98439 31.6534 1.94839 31.7164C1.91239 31.7772 1.87864 31.8694 1.86964 31.9189C1.86064 31.9684 1.82464 32.0629 1.78864 32.1282C1.75264 32.1934 1.70989 32.3037 1.69189 32.3757C1.67614 32.4454 1.63114 32.5737 1.59514 32.6614C1.55689 32.7469 1.51414 32.8752 1.49839 32.9427C1.48264 33.0102 1.43989 33.1317 1.40389 33.2127C1.36789 33.2937 1.32289 33.4399 1.30489 33.5367C1.28464 33.6357 1.24639 33.7617 1.21939 33.8179C1.19014 33.8742 1.14964 34.0182 1.12939 34.1352C1.10914 34.2522 1.06189 34.4097 1.02814 34.4839C0.989893 34.5649 0.953893 34.6954 0.935893 34.8102C0.922393 34.9159 0.881893 35.0869 0.845893 35.1927C0.809893 35.2984 0.764893 35.4919 0.744643 35.6269C0.724393 35.7597 0.683893 35.9217 0.654643 35.9869C0.618643 36.0679 0.589393 36.2007 0.564643 36.4189C0.544393 36.5922 0.512893 36.7654 0.497143 36.8059C0.458893 36.8959 0.400393 37.2672 0.371143 37.5822C0.359893 37.7149 0.335143 37.8634 0.317143 37.9084C0.265393 38.0457 0.220393 38.3517 0.193393 38.7252C0.179893 38.9164 0.155143 39.1617 0.137143 39.2719C0.119143 39.3799 0.103393 39.5059 0.103393 39.5554C0.103393 39.6027 0.0898935 39.6814 0.0718935 39.7309C0.0268935 39.8547 -0.0226065 41.1012 0.0111435 41.2744C0.0718935 41.6097 0.146143 41.5264 0.193393 41.0652C0.220393 40.8064 0.249643 40.6782 0.294643 40.6062C0.328393 40.5522 0.339643 40.5027 0.384643 40.2417C0.404893 40.1359 0.443143 40.0032 0.472393 39.9447C0.501643 39.8862 0.535393 39.7737 0.551143 39.6927C0.564643 39.6117 0.609643 39.4767 0.652393 39.3889C0.692893 39.3034 0.744643 39.1707 0.767143 39.0964C0.787393 39.0222 0.823393 38.9299 0.848143 38.8894C0.872893 38.8512 0.906643 38.7657 0.926893 38.6982C0.944893 38.6329 0.994393 38.5272 1.03714 38.4664C1.07764 38.4034 1.12264 38.3134 1.13839 38.2639C1.15414 38.2144 1.19014 38.1424 1.21939 38.1064C1.24639 38.0682 1.29139 37.9782 1.31614 37.9062C1.34089 37.8319 1.38814 37.7464 1.41739 37.7149C1.44664 37.6834 1.48939 37.6204 1.51414 37.5754C1.61539 37.3774 1.69639 37.2492 1.77064 37.1637C1.81564 37.1119 1.86964 37.0354 1.88989 36.9927C1.91014 36.9499 1.97989 36.8419 2.04514 36.7542C2.10814 36.6664 2.19589 36.5494 2.23864 36.4909C2.28139 36.4324 2.32414 36.3852 2.33539 36.3852C2.34439 36.3852 2.37589 36.3469 2.40514 36.2997C2.43664 36.2547 2.52439 36.1512 2.60089 36.0702C2.67964 35.9892 2.76064 35.8947 2.78314 35.8587C2.84389 35.7574 3.41314 35.1702 3.48514 35.1342C3.51889 35.1162 3.59764 35.0532 3.65839 34.9947C3.71689 34.9362 3.81364 34.8529 3.87214 34.8102C3.99814 34.7134 4.03189 34.6842 4.06789 34.6347C4.08364 34.6122 4.13539 34.5717 4.18264 34.5424C4.22764 34.5154 4.27939 34.4749 4.29514 34.4524C4.32439 34.4119 4.45714 34.3129 4.62364 34.2094C4.67764 34.1734 4.75864 34.1127 4.80589 34.0722C4.85314 34.0339 4.90039 34.0002 4.91389 34.0002C4.92739 34.0002 4.99039 33.9552 5.05339 33.8989C5.11639 33.8427 5.18164 33.7977 5.19964 33.7977C5.21539 33.7977 5.27614 33.7639 5.33014 33.7212C5.38639 33.6784 5.46514 33.6267 5.50789 33.6042C5.54839 33.5839 5.59339 33.5479 5.60914 33.5277C5.62489 33.5074 5.69014 33.4669 5.75539 33.4377C5.82064 33.4107 5.90839 33.3589 5.94889 33.3229C5.98939 33.2869 6.03889 33.2577 6.05689 33.2577C6.10639 33.2577 6.22564 33.1947 6.29089 33.1317C6.32239 33.1024 6.38989 33.0642 6.44389 33.0462C6.49564 33.0282 6.57214 32.9877 6.61264 32.9584C6.65089 32.9269 6.73639 32.8864 6.79714 32.8662C6.86014 32.8459 6.93889 32.8054 6.97489 32.7739C7.00864 32.7447 7.08964 32.7019 7.15489 32.6817C7.21789 32.6614 7.30114 32.6232 7.33714 32.5962C7.37539 32.5692 7.46764 32.5219 7.54414 32.4949C7.61839 32.4657 7.70164 32.4252 7.72639 32.4027C7.75114 32.3802 7.83664 32.3419 7.91539 32.3172C7.99639 32.2924 8.09764 32.2452 8.14489 32.2137C8.18989 32.1844 8.28664 32.1462 8.35639 32.1327C8.42839 32.1169 8.52739 32.0764 8.58139 32.0382C8.63539 31.9999 8.73664 31.9549 8.80639 31.9369C8.87614 31.9189 8.97514 31.8807 9.02464 31.8537C9.07414 31.8244 9.18664 31.7839 9.27214 31.7637C9.35989 31.7412 9.48589 31.6939 9.55339 31.6579C9.62089 31.6219 9.74014 31.5769 9.81889 31.5589C9.89539 31.5409 9.99889 31.5049 10.0484 31.4802C10.0979 31.4554 10.2059 31.4194 10.2891 31.4014C10.3746 31.3834 10.5029 31.3407 10.5771 31.3069C10.7751 31.2214 10.7909 31.2169 10.9259 31.1854C10.9934 31.1719 11.1014 31.1337 11.1666 31.1044C11.2341 31.0729 11.3669 31.0347 11.4659 31.0167C11.5649 31.0009 11.6931 30.9604 11.7516 30.9289C11.8124 30.8974 11.8731 30.8727 11.8911 30.8727C11.9609 30.8727 12.3186 30.7782 12.4334 30.7287C12.5009 30.6994 12.6426 30.6634 12.7439 30.6477C12.8474 30.6342 13.0049 30.5937 13.0926 30.5577C13.1826 30.5217 13.3109 30.4857 13.3784 30.4789C13.5246 30.4609 13.6664 30.4204 13.8059 30.3597C13.8621 30.3349 13.9836 30.3034 14.0759 30.2899C14.2874 30.2562 14.5394 30.1999 14.6271 30.1617C14.6654 30.1482 14.7756 30.1234 14.8746 30.1077C14.9736 30.0919 15.1559 30.0469 15.2796 30.0042C15.4034 29.9637 15.5924 29.9187 15.7004 29.9052C15.8084 29.8917 15.9861 29.8512 16.0941 29.8174C16.2021 29.7814 16.3889 29.7409 16.5059 29.7252C16.6251 29.7117 16.8006 29.6712 16.8996 29.6329C16.9986 29.5969 17.1876 29.5519 17.3181 29.5339C17.4486 29.5159 17.6241 29.4777 17.7051 29.4462C17.7861 29.4147 17.9729 29.3742 18.1191 29.3539C18.2766 29.3337 18.4544 29.2909 18.5534 29.2549C18.6456 29.2189 18.8346 29.1739 18.9719 29.1559C19.1114 29.1357 19.2779 29.0974 19.3431 29.0704C19.4106 29.0457 19.5794 29.0052 19.7189 28.9804C19.8584 28.9579 20.0136 28.9174 20.0631 28.8927C20.1126 28.8657 20.2724 28.8207 20.4164 28.7914C20.5604 28.7622 20.7449 28.7149 20.8259 28.6834C20.9069 28.6519 21.0284 28.6204 21.0959 28.6114C21.2826 28.5889 21.3929 28.5574 21.4604 28.5079C21.4941 28.4832 21.6246 28.4427 21.7506 28.4179C21.8766 28.3932 22.0274 28.3504 22.0836 28.3212C22.1399 28.2919 22.2636 28.2514 22.3559 28.2312C22.4481 28.2109 22.5584 28.1727 22.6011 28.1479C22.6416 28.1232 22.7721 28.0782 22.8891 28.0467C23.0061 28.0174 23.1389 27.9724 23.1839 27.9499C23.2289 27.9274 23.3414 27.8914 23.4314 27.8689C23.5214 27.8487 23.6294 27.8059 23.6744 27.7767C23.7171 27.7474 23.8206 27.7069 23.9039 27.6867C23.9871 27.6664 24.0951 27.6259 24.1446 27.5989C24.1941 27.5697 24.3089 27.5247 24.4011 27.4977C24.4934 27.4707 24.6059 27.4257 24.6531 27.3964C24.6981 27.3672 24.7994 27.3267 24.8781 27.3064C24.9569 27.2862 25.0604 27.2457 25.1121 27.2164C25.1616 27.1872 25.2629 27.1489 25.3371 27.1287C25.4114 27.1107 25.5126 27.0657 25.5621 27.0297C25.6116 26.9937 25.7039 26.9532 25.7646 26.9374C25.8276 26.9217 25.9221 26.8812 25.9784 26.8452C26.0346 26.8092 26.1224 26.7709 26.1764 26.7574C26.2304 26.7462 26.3271 26.7012 26.3924 26.6584C26.4554 26.6157 26.5431 26.5729 26.5859 26.5639C26.6714 26.5459 26.7794 26.4964 26.8334 26.4514C26.8514 26.4357 26.9189 26.4064 26.9796 26.3862C27.0426 26.3659 27.1371 26.3187 27.1911 26.2827C27.2451 26.2444 27.3036 26.2152 27.3194 26.2152C27.3509 26.2152 27.4836 26.1454 27.5759 26.0802C27.6074 26.0577 27.6726 26.0284 27.7221 26.0149C27.7716 26.0014 27.8684 25.9542 27.9359 25.9114C28.0034 25.8687 28.0709 25.8327 28.0866 25.8327C28.1181 25.8327 28.2666 25.7539 28.3184 25.7089C28.3364 25.6932 28.4061 25.6639 28.4714 25.6414C28.5366 25.6212 28.6176 25.5807 28.6514 25.5514C28.6874 25.5222 28.7706 25.4727 28.8404 25.4434C28.9079 25.4119 28.9731 25.3759 28.9821 25.3624C28.9911 25.3467 29.0654 25.3017 29.1464 25.2612C29.4591 25.1059 29.6099 25.0227 29.6549 24.9799C29.6819 24.9552 29.7426 24.9192 29.7921 24.8967C29.8416 24.8764 29.9136 24.8382 29.9496 24.8112C29.9879 24.7842 30.0531 24.7482 30.0959 24.7302C30.1386 24.7144 30.2061 24.6717 30.2421 24.6379C30.2804 24.6042 30.3659 24.5524 30.4334 24.5209C30.5009 24.4917 30.5706 24.4489 30.5886 24.4287C30.6066 24.4062 30.6629 24.3679 30.7124 24.3432C30.7641 24.3184 30.8339 24.2712 30.8699 24.2419C30.9036 24.2127 30.9689 24.1744 31.0116 24.1564C31.0544 24.1384 31.1196 24.0979 31.1579 24.0664C31.1961 24.0349 31.2569 23.9944 31.2974 23.9787C31.3356 23.9607 31.4009 23.9157 31.4414 23.8774C31.4819 23.8414 31.5606 23.7897 31.6146 23.7649C31.6709 23.7402 31.7159 23.7087 31.7159 23.6974C31.7159 23.6839 31.7654 23.6479 31.8239 23.6187C31.8846 23.5894 31.9746 23.5264 32.0286 23.4837C32.0826 23.4387 32.1366 23.4027 32.1524 23.4027C32.1681 23.4027 32.2131 23.3667 32.2559 23.3239C32.2986 23.2812 32.3459 23.2452 32.3594 23.2452C32.3751 23.2452 32.4359 23.2047 32.4921 23.1552C32.5506 23.1057 32.6361 23.0449 32.6834 23.0202C32.7306 22.9954 32.7779 22.9662 32.7846 22.9527C32.7936 22.9392 32.8409 22.9032 32.8926 22.8694C32.9444 22.8379 33.0096 22.7839 33.0389 22.7479C33.0681 22.7119 33.1064 22.6827 33.1244 22.6827C33.1424 22.6827 33.1941 22.6489 33.2391 22.6084C33.2864 22.5679 33.3606 22.5094 33.4034 22.4802C33.4461 22.4509 33.5204 22.3969 33.5654 22.3587C33.6126 22.3204 33.6869 22.2574 33.7319 22.2214C33.7769 22.1832 33.8331 22.1427 33.8534 22.1314C33.8759 22.1179 33.9726 22.0369 34.0694 21.9514C34.1639 21.8637 34.2741 21.7759 34.3124 21.7512C34.3506 21.7287 34.4226 21.6747 34.4721 21.6319C34.5576 21.5577 34.7219 21.4137 34.8636 21.2877C35.1021 21.0784 35.2394 20.9547 35.4711 20.7364C35.6151 20.5992 35.8041 20.4259 35.8896 20.3539C35.9774 20.2797 36.1686 20.1019 36.3171 19.9534C36.4656 19.8072 36.5984 19.6812 36.6119 19.6722C36.6254 19.6632 36.6681 19.6069 36.7041 19.5484C36.7424 19.4877 36.8864 19.3212 37.0281 19.1749C37.3881 18.8037 37.6424 18.5269 37.6536 18.4932C37.6581 18.4774 37.7234 18.4032 37.7976 18.3312C37.8696 18.2569 37.9551 18.1557 37.9866 18.1062C38.0181 18.0544 38.0856 17.9667 38.1374 17.9082C38.1891 17.8497 38.2656 17.7574 38.3084 17.6989C38.3511 17.6427 38.4321 17.5414 38.4884 17.4739C38.6436 17.2872 38.6976 17.2152 38.7584 17.1117C38.7899 17.0599 38.8416 16.9857 38.8754 16.9497C38.9091 16.9114 38.9496 16.8507 38.9699 16.8147C38.9879 16.7787 39.0194 16.7427 39.0374 16.7359C39.0554 16.7292 39.0936 16.6797 39.1206 16.6257C39.1476 16.5717 39.2084 16.4794 39.2556 16.4187C39.3051 16.3579 39.3434 16.2972 39.3434 16.2814C39.3434 16.2679 39.3636 16.2364 39.3906 16.2117C39.4176 16.1892 39.4581 16.1284 39.4829 16.0789C39.5076 16.0317 39.5684 15.9394 39.6156 15.8742C39.6651 15.8112 39.7034 15.7482 39.7034 15.7347C39.7034 15.7212 39.7326 15.6762 39.7686 15.6357C39.8024 15.5952 39.8541 15.5119 39.8789 15.4534C39.9059 15.3927 39.9531 15.3139 39.9824 15.2779C40.0139 15.2419 40.0454 15.1902 40.0544 15.1632C40.0634 15.1339 40.0949 15.0799 40.1264 15.0439C40.1579 15.0057 40.2074 14.9202 40.2366 14.8527C40.2681 14.7852 40.3154 14.7042 40.3446 14.6727C40.3716 14.6412 40.4031 14.5849 40.4121 14.5444C40.4189 14.5062 40.4571 14.4297 40.4954 14.3779C40.5314 14.3262 40.5809 14.2294 40.6034 14.1642C40.6281 14.0967 40.6709 14.0089 40.7001 13.9707C40.7294 13.9302 40.7699 13.8492 40.7901 13.7907C40.8104 13.7322 40.8509 13.6489 40.8824 13.6084C40.9139 13.5657 40.9611 13.4734 40.9859 13.4037C41.0106 13.3317 41.0534 13.2462 41.0849 13.2102C41.1141 13.1742 41.1456 13.0999 41.1546 13.0482C41.1726 12.9379 41.1974 12.8862 41.2694 12.8007C41.2964 12.7669 41.3369 12.6679 41.3549 12.5802C41.3751 12.4924 41.4156 12.3822 41.4471 12.3372C41.4764 12.2922 41.5169 12.1887 41.5371 12.1077C41.5574 12.0267 41.6001 11.9299 41.6294 11.8894C41.6609 11.8489 41.7014 11.7387 41.7284 11.6239C41.7531 11.5182 41.7936 11.3899 41.8184 11.3404C41.8454 11.2909 41.8814 11.1784 41.9016 11.0884C41.9219 11.0007 41.9646 10.8702 41.9984 10.8027C42.0344 10.7329 42.0771 10.5844 42.0996 10.4652C42.1199 10.3482 42.1604 10.1952 42.1919 10.1277C42.2211 10.0602 42.2661 9.87793 42.2909 9.72493C42.3179 9.57193 42.3584 9.40543 42.3809 9.35818C42.4214 9.27493 42.4484 9.12418 42.4821 8.81143C42.4911 8.73718 42.5181 8.62018 42.5406 8.55268C42.5856 8.42668 42.6351 8.10493 42.6621 7.76518C42.6801 7.53118 42.7589 7.00918 42.7881 6.93268C42.8106 6.86968 42.8624 5.41618 42.8601 4.88518C42.8579 4.19443 42.8084 2.92544 42.7836 2.87819C42.7701 2.85344 42.7499 2.76119 42.7409 2.67119C42.6981 2.31344 42.6486 1.89044 42.6261 1.65644C42.6126 1.51919 42.5834 1.34369 42.5586 1.26269C42.5361 1.18169 42.5069 1.01969 42.4934 0.902687C42.4619 0.621437 42.4281 0.434687 42.3966 0.344687C42.3741 0.281687 42.3629 0.272687 42.2864 0.272687H42.2031L42.1941 0.108437C42.1874 -0.0445631 42.1874 -0.0423131 42.1829 0.157937Z" fill="white"/>
</svg>
