<svg width="42" height="45" viewBox="0 0 42 45" fill="none" xmlns="http://www.w3.org/2000/svg">
<path d="M0 16.9256L14.4694 25.2281L14.4581 27.7031L6.22688 22.9819L1.04625 25.9256L14.4487 33.6506L14.4581 36.0319L0.0993751 27.7725C0.136875 28.74 1.01438 31.7213 2.6925 34.0294C4.39875 36.3675 6.34125 37.3594 6.34125 37.3594L19.6125 45V22.2169L0.0131251 10.9613L0 16.9256ZM41.37 9.80063L26.7225 1.35562C26.7225 1.35562 24.4012 0 20.7 0C16.845 0 14.61 1.39875 14.61 1.39875L1.0425 9.16125L21.6844 21.0262V45L35.2687 37.245C35.2687 37.245 37.6969 35.9044 39.5419 32.7188C41.1675 29.9138 41.37 27.2006 41.37 27.2006V9.80063ZM19.2806 13.7025C19.2806 13.7025 22.3087 13.1437 24.8681 14.6212L28.9388 16.965C28.9388 16.965 28.9444 19.0219 28.9444 22.095C28.9444 24.5569 26.8594 27.1088 26.8594 27.1088L26.8631 18.0788L19.2806 13.7025ZM31.2844 33.5063L26.8631 36.0431V33.6638L30.3037 31.695C33.5812 29.3325 34.1231 25.8506 34.1231 24.6431L34.11 13.9463L24.7237 8.54438C24.7237 8.54438 23.2987 7.60875 20.7319 7.60875C18.1687 7.60875 16.77 8.47313 16.77 8.47313L13.4738 10.3688L11.3925 9.16687L15.9469 6.5625C15.9469 6.5625 17.7281 5.57438 20.7169 5.57438C23.4581 5.57438 25.5919 6.645 25.5919 6.645L36.1913 12.7687L36.1781 24.4425C36.2531 26.2369 35.4169 30.6206 31.2844 33.5063Z" fill="white"/>
</svg>
