<svg width="281" height="262" viewBox="0 0 281 262" fill="none" xmlns="http://www.w3.org/2000/svg">
<path d="M265.762 52.0964C272.325 48.2412 280.594 52.9743 280.594 60.5861V170.016C280.594 176.962 276.934 183.395 270.964 186.944L148.731 259.6C147.758 260.178 146.721 260.438 145.712 260.436V260.465H139.805V148.625C139.805 134.661 147.199 121.741 159.24 114.668L265.762 52.0964Z" fill="url(#paint0_linear_255_78)"/>
<path d="M14.8315 52.0964C8.26826 48.2412 0 52.9743 0 60.5861V170.016C0 176.962 3.65954 183.395 9.63003 186.944L131.863 259.6C132.835 260.178 133.872 260.438 134.882 260.436V260.465H140.789V148.625C140.789 134.661 133.394 121.741 121.354 114.668L14.8315 52.0964Z" fill="url(#paint1_linear_255_78)"/>
<path d="M63.1312 144.049C56.0051 149.306 62.5588 156.632 73.7517 175.795C83.7687 170.41 89.5163 170.445 82.5526 157.338L93.0608 164.667C99.0893 168.871 101.707 178.845 97.4399 181.352L73.7747 195.254L73.4086 194.62L73.3748 194.64L47.9498 150.362C43.6085 142.802 46.3982 135.806 52.5465 138.835L63.1312 144.049Z" fill="white"/>
<path d="M77.0985 128.705C80.4198 124.564 78.9252 115.798 73.9575 108.628L46.5813 138.264C44.5984 140.411 44.9262 145.055 47.3614 149.319L57.8381 167.664C50.6156 150.739 63.2725 145.942 77.0985 128.705Z" fill="#F2F4FB"/>
<path d="M68.8038 150.792L80.2236 139.99L96.4648 165.553C100.775 172.337 100.931 180.081 96.8008 182.221L90.3183 185.581C96.0208 179.593 81.9771 149.639 68.8038 150.792Z" fill="#F2F4FB"/>
<path d="M68.8038 150.792L80.2236 139.99L96.9683 166.366C100.573 172.61 93.8584 183.537 90.3183 185.581C96.0208 179.593 81.9771 149.639 68.8038 150.792Z" fill="#F2F4FB"/>
<path d="M259.388 9.90544C264.858 4.43493 269.293 7.57294 269.293 16.9142V115.014C269.293 124.355 264.858 136.363 259.388 141.834L221.748 179.474C216.277 184.944 211.843 181.805 211.843 172.464V148.785L204.414 156.214C196.482 164.147 190.051 159.596 190.051 146.051C190.051 132.507 196.482 115.095 204.414 107.163L211.843 99.7335V74.3641C211.843 65.023 216.277 53.0163 221.748 47.5457L259.388 9.90544Z" fill="url(#paint2_linear_255_78)"/>
<path d="M197.255 72.1225C192.249 77.9766 188.339 89.0978 188.339 97.8681V123.239L180.91 130.668C172.979 138.601 166.548 156.01 166.548 169.554C166.549 183.099 172.979 187.649 180.911 179.717L188.339 172.289V195.968C188.339 204.738 192.249 208.038 197.255 203.881V203.967L144.757 256.464C142.022 259.199 139.805 257.63 139.805 252.96V146.403C139.805 137.061 144.24 125.054 149.71 119.583L197.255 72.0387V72.1225Z" fill="url(#paint3_linear_255_78)"/>
<defs>
<linearGradient id="paint0_linear_255_78" x1="282.556" y1="50.7254" x2="189.786" y2="325.494" gradientUnits="userSpaceOnUse">
<stop stop-color="#3E3B42"/>
<stop offset="0.817308" stop-color="#181818"/>
</linearGradient>
<linearGradient id="paint1_linear_255_78" x1="0" y1="50.7254" x2="141.774" y2="268.309" gradientUnits="userSpaceOnUse">
<stop stop-color="#181818"/>
<stop offset="1" stop-color="#58535A"/>
</linearGradient>
<linearGradient id="paint2_linear_255_78" x1="197.255" y1="138.003" x2="125.937" y2="138.003" gradientUnits="userSpaceOnUse">
<stop stop-color="#ADAFFB"/>
<stop offset="0.942308" stop-color="#635BFF"/>
</linearGradient>
<linearGradient id="paint3_linear_255_78" x1="197.255" y1="138.003" x2="125.937" y2="138.003" gradientUnits="userSpaceOnUse">
<stop stop-color="#ADAFFB"/>
<stop offset="0.942308" stop-color="#635BFF"/>
</linearGradient>
</defs>
</svg>
