<svg width="281" height="340" viewBox="0 0 281 340" fill="none" xmlns="http://www.w3.org/2000/svg">
<path d="M265.762 131.33C272.325 127.475 280.593 132.208 280.593 139.82V249.25C280.593 256.196 276.934 262.628 270.963 266.177L148.731 338.833C147.759 339.411 146.721 339.672 145.711 339.67V339.698H139.804V238.625L140.644 239.465L190.83 189.28C196.112 183.997 198.973 177.212 199.417 170.301L265.762 131.33Z" fill="url(#paint0_linear_255_66)"/>
<path d="M0 139.82C0 132.209 8.26875 127.475 14.832 131.33L81.6035 170.552C82.163 177.269 85.0101 183.831 90.1494 188.971L140.645 239.465L140.789 239.32V339.698H134.882V339.67C133.872 339.672 132.836 339.411 131.863 338.833L9.62988 266.178C3.65944 262.629 4.93801e-05 256.196 0 249.25V139.82Z" fill="url(#paint1_linear_255_66)"/>
<path d="M32.4894 141.774L67.9328 162.449L69.9019 233.336L52.1802 204.784L31.5049 217.727L32.4894 141.774Z" fill="white"/>
<path d="M112.638 100.377C92.8171 122.951 111.046 131.483 142.177 162.074C170.039 135.174 186.025 127.265 166.656 105.378L195.884 108.417C212.651 110.161 219.932 130.545 208.064 142.518L142.241 208.916L141.223 207.898L141.129 207.994L70.4122 136.696C58.3374 124.522 66.0966 103.791 83.1973 102.536L112.638 100.377Z" fill="#635BFF"/>
<path d="M151.486 43.9919C160.724 29.3987 156.567 10.3626 142.75 6.10352e-05L66.6059 109.459C61.0907 117.387 62.0023 128.118 68.7756 135.003L97.9154 164.62C77.8269 133.897 113.031 104.741 151.486 43.9919Z" fill="#181818"/>
<path d="M128.415 108.73L160.178 66.8292L205.351 105.819C217.339 116.165 217.773 134.6 206.286 145.5L188.256 162.608C204.117 140.254 165.055 87.6334 128.415 108.73Z" fill="#181818"/>
<path d="M128.415 108.73L160.178 66.8292L206.752 107.075C216.779 117.102 198.102 152.762 188.256 162.608C204.117 140.254 165.055 87.6334 128.415 108.73Z" fill="#181818"/>
<defs>
<linearGradient id="paint0_linear_255_66" x1="281.578" y1="129.959" x2="139.804" y2="340.651" gradientUnits="userSpaceOnUse">
<stop stop-color="#3E3B42"/>
<stop offset="0.817308" stop-color="#181818"/>
</linearGradient>
<linearGradient id="paint1_linear_255_66" x1="-2.10728e-06" y1="129.96" x2="141.773" y2="347.543" gradientUnits="userSpaceOnUse">
<stop stop-color="#181818"/>
<stop offset="1" stop-color="#58535A"/>
</linearGradient>
</defs>
</svg>
