<svg width="191" height="262" viewBox="0 0 191 262" fill="none" xmlns="http://www.w3.org/2000/svg">
<path d="M0 19.6908C0 8.81586 8.81587 0 19.6908 0H171.31C182.185 0 191.001 8.81587 191.001 19.6908V232.351C191.001 234.526 189.237 236.289 187.062 236.289H19.6908C8.81588 236.289 0 227.474 0 216.599V19.6908Z" fill="url(#paint0_linear_255_86)"/>
<path d="M11.8145 200.846C11.8145 189.971 20.6303 181.155 31.5052 181.155H191.001V222.506C191.001 224.681 189.237 226.444 187.062 226.444H27.5671C18.8672 226.444 11.8145 219.391 11.8145 210.691V200.846Z" fill="#D9D9D9"/>
<path d="M172.294 194.939C177.188 194.939 181.155 198.906 181.155 203.8C181.155 208.694 177.188 212.661 172.294 212.661H68.917V261.887L49.2266 248.104L29.5361 261.887V204.785C29.5361 199.347 33.9435 194.939 39.3809 194.939H172.294Z" fill="url(#paint1_linear_255_86)"/>
<path d="M80.8786 81.6529C69.8099 94.2588 79.9895 99.0236 97.3747 116.107C112.934 101.085 121.861 96.6684 111.045 84.4454L127.367 86.1424C136.73 87.1163 140.796 98.4999 134.168 105.186L97.4105 142.266L96.8419 141.697L96.7894 141.75L57.2981 101.935C50.555 95.1365 54.8881 83.559 64.4379 82.8586L80.8786 81.6529Z" fill="#635BFF"/>
<path d="M102.573 50.1649C107.732 42.0155 105.411 31.385 97.6944 25.5981L55.1725 86.7242C52.0926 91.1517 52.6016 97.1446 56.3842 100.989L72.657 117.529C61.4388 100.372 81.098 84.0897 102.573 50.1649Z" fill="white"/>
<path d="M89.6895 86.3172L107.427 62.9183L132.654 84.6916C139.348 90.4696 139.591 100.764 133.176 106.851L123.107 116.405C131.964 103.922 110.151 74.5362 89.6895 86.3172Z" fill="white"/>
<path d="M89.6895 86.3172L107.427 62.9183L133.436 85.3931C139.036 90.9927 128.605 110.906 123.107 116.405C131.964 103.922 110.151 74.5362 89.6895 86.3172Z" fill="white"/>
<defs>
<linearGradient id="paint0_linear_255_86" x1="95.5003" y1="0" x2="95.5003" y2="236.289" gradientUnits="userSpaceOnUse">
<stop stop-color="#524E54"/>
<stop offset="1" stop-color="#1E1E1E"/>
</linearGradient>
<linearGradient id="paint1_linear_255_86" x1="110.268" y1="194.939" x2="110.268" y2="257.949" gradientUnits="userSpaceOnUse">
<stop stop-color="#282829"/>
<stop offset="1" stop-color="#1F1F1F"/>
</linearGradient>
</defs>
</svg>
