<svg width="354" height="430" viewBox="0 0 354 430" fill="none" xmlns="http://www.w3.org/2000/svg">
<path d="M173.465 11.0567C175.651 6.56225 182.052 6.55341 184.25 11.0418L248.723 142.694C249.717 144.722 249.487 147.137 248.129 148.941L183.653 234.608C181.248 237.804 176.448 237.796 174.053 234.592L110.031 148.928C108.687 147.13 108.459 144.732 109.441 142.712L173.465 11.0567Z" fill="url(#paint0_linear_267_78)"/>
<path d="M173.465 11.0567C175.651 6.56225 182.052 6.55341 184.25 11.0418L248.723 142.694C249.717 144.722 249.487 147.137 248.129 148.941L183.653 234.608C181.248 237.804 176.448 237.796 174.053 234.592L110.031 148.928C108.687 147.13 108.459 144.732 109.441 142.712L173.465 11.0567Z" fill="url(#paint1_linear_267_78)"/>
<path d="M90.2302 165.311C92.5536 161.976 97.4508 161.867 99.9196 165.096L163.658 248.454C165.465 250.817 165.267 254.148 163.193 256.281L100.908 320.333C98.8531 322.446 95.5683 322.754 93.1569 321.06L23.2322 271.935C20.5283 270.036 19.8693 266.308 21.7582 263.596L90.2302 165.311Z" fill="url(#paint2_linear_267_78)"/>
<path d="M90.2302 165.311C92.5536 161.976 97.4508 161.867 99.9196 165.096L163.658 248.454C165.465 250.817 165.267 254.148 163.193 256.281L100.908 320.333C98.8531 322.446 95.5683 322.754 93.1569 321.06L23.2322 271.935C20.5283 270.036 19.8693 266.308 21.7582 263.596L90.2302 165.311Z" fill="url(#paint3_linear_267_78)"/>
<path d="M254.934 164.926C257.368 161.748 262.172 161.8 264.537 165.028L336.62 263.42C338.646 266.185 337.947 270.082 335.088 271.972L260.516 321.242C258.098 322.84 254.885 322.481 252.879 320.39L191.369 256.283C189.318 254.146 189.134 250.832 190.935 248.48L223.804 205.568L254.934 164.926Z" fill="url(#paint4_linear_267_78)"/>
<path d="M254.934 164.926C257.368 161.748 262.172 161.8 264.537 165.028L336.62 263.42C338.646 266.185 337.947 270.082 335.088 271.972L260.516 321.242C258.098 322.84 254.885 322.481 252.879 320.39L191.369 256.283C189.318 254.146 189.134 250.832 190.935 248.48L223.804 205.568L254.934 164.926Z" fill="url(#paint5_linear_267_78)"/>
<path d="M173.338 265.222C175.739 262.657 179.82 262.695 182.173 265.304L239.317 328.668C241.606 331.206 241.316 335.14 238.679 337.315L182.583 383.576C180.395 385.381 177.242 385.407 175.024 383.638L115.662 336.292C112.925 334.109 112.631 330.056 115.024 327.5L173.338 265.222Z" fill="url(#paint6_linear_267_78)"/>
<defs>
<linearGradient id="paint0_linear_267_78" x1="239.031" y1="62.9638" x2="118.653" y2="178.036" gradientUnits="userSpaceOnUse">
<stop stop-color="#FFDE59"/>
<stop offset="1" stop-color="#F47C00"/>
</linearGradient>
<linearGradient id="paint1_linear_267_78" x1="239.031" y1="62.9638" x2="118.653" y2="178.036" gradientUnits="userSpaceOnUse">
<stop stop-color="#FFDE59"/>
<stop offset="1" stop-color="#F47C00"/>
</linearGradient>
<linearGradient id="paint2_linear_267_78" x1="267.124" y1="166.226" x2="86.0449" y2="339.324" gradientUnits="userSpaceOnUse">
<stop stop-color="#FFDE59"/>
<stop offset="1" stop-color="#F47C00"/>
</linearGradient>
<linearGradient id="paint3_linear_267_78" x1="267.124" y1="166.226" x2="86.0449" y2="339.324" gradientUnits="userSpaceOnUse">
<stop stop-color="#FFDE59"/>
<stop offset="1" stop-color="#F47C00"/>
</linearGradient>
<linearGradient id="paint4_linear_267_78" x1="267.124" y1="166.226" x2="86.0449" y2="339.324" gradientUnits="userSpaceOnUse">
<stop stop-color="#FFDE59"/>
<stop offset="1" stop-color="#F47C00"/>
</linearGradient>
<linearGradient id="paint5_linear_267_78" x1="267.124" y1="166.226" x2="86.0449" y2="339.324" gradientUnits="userSpaceOnUse">
<stop stop-color="#FFDE59"/>
<stop offset="1" stop-color="#F47C00"/>
</linearGradient>
<linearGradient id="paint6_linear_267_78" x1="212.447" y1="295.102" x2="142.946" y2="364.604" gradientUnits="userSpaceOnUse">
<stop stop-color="#FFDE59"/>
<stop offset="1" stop-color="#F47C00"/>
</linearGradient>
</defs>
</svg>
