<svg width="320" height="394" viewBox="0 0 320 394" fill="none" xmlns="http://www.w3.org/2000/svg">
<path d="M157.435 2.08886C159.429 -0.696288 163.571 -0.696288 165.565 2.08886L192.229 39.3232C193.168 40.6343 194.682 41.4121 196.295 41.4121H248C250.761 41.4121 253 43.6508 253 46.4121V69.4121H285L285.903 69.4238C304.816 69.903 320 85.3842 320 104.412V358.412L319.988 359.315C319.509 378.228 304.028 393.412 285 393.412H35C15.9721 393.412 0.49085 378.228 0.0117188 359.315L0 358.412V104.412C9.92158e-05 85.0822 15.6701 69.4121 35 69.4121H69V46.4121C69.0001 43.6508 71.2386 41.4121 74 41.4121H126.705C128.318 41.4121 129.832 40.6343 130.771 39.3232L157.435 2.08886ZM35 94.4121C29.4772 94.4121 25.0001 98.8893 25 104.412V358.412C25 363.935 29.4772 368.412 35 368.412H285C290.523 368.412 295 363.935 295 358.412V104.412C295 98.8893 290.523 94.4121 285 94.4121H35ZM164.555 29.0303C162.559 26.2649 158.441 26.2649 156.445 29.0303L133.744 60.4863C131.358 63.7931 133.721 68.4121 137.799 68.4121H183.201C187.279 68.4121 189.642 63.7931 187.256 60.4863L164.555 29.0303Z" fill="url(#paint0_linear_2234_262)"/>
<path d="M124 302.412L126 278.212H149V205.412L125.6 196.012V186.212L161.6 168.212H177V278.212H199.2L197.2 302.412H124Z" fill="url(#paint1_linear_2234_262)"/>
<defs>
<linearGradient id="paint0_linear_2234_262" x1="160" y1="0" x2="160" y2="393.412" gradientUnits="userSpaceOnUse">
<stop stop-color="#A0DB81"/>
<stop offset="1" stop-color="#6DB770"/>
</linearGradient>
<linearGradient id="paint1_linear_2234_262" x1="160" y1="93.4121" x2="160" y2="393.412" gradientUnits="userSpaceOnUse">
<stop stop-color="#A0DB81"/>
<stop offset="1" stop-color="#6DB770"/>
</linearGradient>
</defs>
</svg>
