<svg width="216" height="265" viewBox="0 0 216 265" fill="none" xmlns="http://www.w3.org/2000/svg">
<path d="M106.435 2.08886C108.429 -0.696288 112.571 -0.696288 114.565 2.08886L141.229 39.3232C142.168 40.6343 143.682 41.4121 145.295 41.4121H197C199.761 41.4121 202 43.6507 202 46.4121V77.998C210.501 84.3835 216 94.5494 216 106V230C216 249.33 200.33 265 181 265H35L34.0967 264.988C15.1842 264.509 0 249.028 0 230V106C0 92.8402 7.26395 81.3787 18 75.4014V46.4121C18 43.6507 20.2386 41.4121 23 41.4121H75.7051C77.3177 41.4121 78.8316 40.6343 79.7705 39.3232L106.435 2.08886ZM35 96C29.4772 96 25 100.477 25 106V230C25 235.523 29.4772 240 35 240H61.2998C61.103 239.031 61 238.027 61 237V191C61 182.716 67.7157 176 76 176H140C148.284 176 155 182.716 155 191V237C155 238.027 154.897 239.031 154.7 240H181C186.523 240 191 235.523 191 230V106C191 100.477 186.523 96 181 96H35ZM113.555 29.0303C111.559 26.2649 107.441 26.2649 105.445 29.0303L82.7441 60.4863C80.358 63.7931 82.7209 68.4121 86.7988 68.4121H132.201C136.279 68.4121 138.642 63.7931 136.256 60.4863L113.555 29.0303Z" fill="url(#paint0_linear_2206_1515)"/>
<defs>
<linearGradient id="paint0_linear_2206_1515" x1="108" y1="0" x2="108" y2="265" gradientUnits="userSpaceOnUse">
<stop stop-color="#B2F39D"/>
<stop offset="1" stop-color="#51B56B"/>
</linearGradient>
</defs>
</svg>
