<svg width="285" height="285" viewBox="0 0 285 285" fill="none" xmlns="http://www.w3.org/2000/svg">
<path d="M142.5 0C221.201 0 285 63.7994 285 142.5C285 179.381 270.989 212.988 248 238.292V237C248 228.716 241.284 222 233 222H229.02C248.254 201.078 260 173.161 260 142.5C260 77.6065 207.393 25 142.5 25C77.6065 25 25 77.6065 25 142.5C25 173.376 36.9089 201.469 56.3838 222.439C49.8465 224.058 45 229.963 45 237V246.42C17.303 220.424 0 183.483 0 142.5C0 63.7994 63.7994 0 142.5 0ZM143 46C196.019 46 239 88.9807 239 142C239 167.807 228.816 191.233 212.249 208.484C209.179 200.198 204.347 192.767 198.207 186.647C208.083 174.451 214 158.917 214 142C214 102.788 182.212 71 143 71C103.788 71 72 102.788 72 142C72 158.916 77.9161 174.451 87.792 186.647C81.6518 192.767 76.8197 200.198 73.75 208.484C57.1836 191.233 47 167.806 47 142C47 88.9807 89.9807 46 143 46Z" fill="url(#paint0_linear_256_104)"/>
<path d="M142.5 104C163.763 104 181 120.789 181 141.5C181 162.211 163.763 179 142.5 179C121.237 179 104 162.211 104 141.5C104 120.789 121.237 104 142.5 104Z" fill="url(#paint1_linear_256_104)"/>
<path d="M0.447266 131.147C6.23266 57.7541 67.621 3.05176e-05 142.5 3.05176e-05C180.211 3.05176e-05 214.498 14.6504 239.986 38.5674C261.16 60.5719 274 89.417 274 121C274 148.369 264.358 173.683 248.007 194.271C255.686 178.652 260 161.08 260 142.5C260 77.6066 207.393 25 142.5 25C77.6065 25 25 77.6066 25 142.5C25 172.914 36.5554 200.63 55.5156 221.495C24.6269 200.611 3.70543 168.153 0.447266 131.147ZM47 142C47 88.9807 89.9807 46 143 46C196.019 46 239 88.9807 239 142C239 167.807 228.816 191.233 212.249 208.484C209.179 200.198 204.347 192.767 198.207 186.647C208.083 174.451 214 158.917 214 142C214 102.788 182.212 71 143 71C103.788 71 72 102.788 72 142C72 158.916 77.9161 174.451 87.792 186.647C81.6518 192.767 76.8197 200.198 73.75 208.484C57.1836 191.233 47 167.806 47 142Z" fill="url(#paint2_linear_256_104)"/>
<path d="M61 124.5C61 103.194 68.5209 83.709 80.96 68.7383C97.6923 54.5548 119.347 46.0001 143 46.0001C168.288 46.0001 191.291 55.7782 208.438 71.7589C219.439 86.2873 226 104.6 226 124.5C226 149.493 215.651 171.981 199.153 187.614C198.841 187.289 198.526 186.966 198.207 186.648C208.083 174.451 214 158.917 214 142C214 102.788 182.212 71.0001 143 71.0001C103.788 71.0001 72 102.788 72 142C72 158.916 77.9161 174.451 87.792 186.648C87.6355 186.804 87.48 186.961 87.3252 187.118C71.1305 171.507 61 149.23 61 124.5Z" fill="url(#paint3_linear_256_104)"/>
<path d="M42.8291 72.1852C75.5302 13.8359 147.434 -9.10061 209.249 16.57C254.312 40.505 285 87.9178 285 142.5C285 179.38 270.989 212.988 248 238.292V237C248 228.716 241.284 222 233 222H229.02C248.254 201.077 260 173.161 260 142.5C260 118.631 252.882 96.4252 240.654 77.8874C230.751 62.6116 217.118 49.47 200.169 39.9713C189.986 34.2645 179.306 30.2648 168.455 27.8776C160.105 25.9949 151.419 24.9997 142.5 24.9997C86.0856 24.9998 38.959 64.7581 27.6064 117.783C29.6906 102.16 34.6894 86.7092 42.8291 72.1852Z" fill="url(#paint4_linear_256_104)"/>
<path d="M230.101 222C230.519 221.146 230.929 220.283 231.33 219.41C249.19 198.8 260 171.913 260 142.5C260 121.044 254.247 100.932 244.203 83.6199C258.792 103.229 268 131.97 268 164C268 192.179 260.873 217.814 249.225 236.924C248.819 237.382 248.412 237.839 248 238.292V237C248 228.716 241.285 222 233 222H230.101Z" fill="url(#paint5_linear_256_104)"/>
<path d="M61 124.5C61 103.194 68.5209 83.709 80.96 68.7383C97.6923 54.5548 119.347 46.0001 143 46.0001C168.288 46.0001 191.291 55.7782 208.438 71.7589C219.439 86.2873 226 104.6 226 124.5C226 149.493 215.651 171.981 199.153 187.614C198.841 187.289 198.526 186.966 198.207 186.648C208.083 174.451 214 158.917 214 142C214 102.788 182.212 71.0001 143 71.0001C103.788 71.0001 72 102.788 72 142C72 158.916 77.9161 174.451 87.792 186.648C87.6355 186.804 87.48 186.961 87.3252 187.118C71.1305 171.507 61 149.23 61 124.5Z" fill="url(#paint6_linear_256_104)"/>
<path d="M160.5 59C180.4 59 198.713 65.5601 213.241 76.5615C229.222 93.7079 239 116.712 239 142C239 165.659 230.438 187.317 216.248 204.051C214.825 205.233 213.361 206.371 211.858 207.462C208.777 199.587 204.094 192.514 198.207 186.647C208.083 174.451 214 158.917 214 142C214 102.788 182.212 71 143 71C122.033 71 103.188 80.0885 90.1914 94.541C105.627 73.0639 131.362 59 160.5 59Z" fill="url(#paint7_linear_256_104)"/>
<path d="M218.431 191.641C216.972 197.344 215.071 202.784 212.793 207.911C212.612 208.103 212.432 208.295 212.249 208.485C209.179 200.198 204.347 192.767 198.207 186.647C208.083 174.45 214.001 158.916 214.001 142C214.001 136.795 213.441 131.72 212.378 126.833C221.701 144.618 224.49 167.963 218.431 191.641Z" fill="url(#paint8_linear_256_104)"/>
<path d="M187.985 173.51C190.33 172.076 193.286 173.836 193.286 176.667V217.363C193.286 219.946 191.978 222.338 189.844 223.658L146.157 250.678C145.81 250.893 145.439 250.99 145.078 250.989V251H142.967V209.408C142.967 204.215 145.61 199.41 149.913 196.78L187.985 173.51Z" fill="url(#paint9_linear_256_104)"/>
<path d="M98.3009 173.51C95.9551 172.076 93 173.836 93 176.667V217.363C93 219.946 94.3079 222.339 96.4418 223.658L140.129 250.678C140.476 250.893 140.847 250.99 141.208 250.989V251H143.319V209.408C143.319 204.215 140.676 199.41 136.373 196.78L98.3009 173.51Z" fill="url(#paint10_linear_256_104)"/>
<path d="M215.553 234.088C223.068 234.902 228.918 241.268 228.918 249V270C228.918 278.284 222.202 285 213.918 285H75.918C67.6337 285 60.918 278.284 60.918 270V249C60.918 242.646 64.8679 237.215 70.4463 235.028C70.6788 235.191 70.9185 235.348 71.166 235.494L134.239 272.824C136.236 274.758 138.971 275.925 141.842 276H142.994C145.864 275.924 148.598 274.757 150.595 272.824L213.67 235.494C214.356 235.088 214.986 234.615 215.553 234.088Z" fill="url(#paint11_linear_256_104)"/>
<defs>
<linearGradient id="paint0_linear_256_104" x1="29" y1="50.1606" x2="246.207" y2="219.304" gradientUnits="userSpaceOnUse">
<stop stop-color="#94D480"/>
<stop offset="0.538364" stop-color="#439959"/>
<stop offset="1" stop-color="#87D190"/>
</linearGradient>
<linearGradient id="paint1_linear_256_104" x1="111.835" y1="119.267" x2="175.624" y2="163.362" gradientUnits="userSpaceOnUse">
<stop stop-color="#94D480"/>
<stop offset="1" stop-color="#439959"/>
</linearGradient>
<linearGradient id="paint2_linear_256_104" x1="25.5" y1="162" x2="91.5" y2="84" gradientUnits="userSpaceOnUse">
<stop stop-color="#A0DB81"/>
<stop offset="1" stop-color="#439959"/>
</linearGradient>
<linearGradient id="paint3_linear_256_104" x1="60.8844" y1="123.116" x2="212.208" y2="123.116" gradientUnits="userSpaceOnUse">
<stop stop-color="#A0DB81"/>
<stop offset="1" stop-color="#439959"/>
</linearGradient>
<linearGradient id="paint4_linear_256_104" x1="61.1099" y1="122.624" x2="226.112" y2="122.624" gradientUnits="userSpaceOnUse">
<stop stop-color="#A0DB81"/>
<stop offset="1" stop-color="#439959"/>
</linearGradient>
<linearGradient id="paint5_linear_256_104" x1="251.726" y1="145.044" x2="225.717" y2="247.575" gradientUnits="userSpaceOnUse">
<stop stop-color="#A0DB81"/>
<stop offset="1" stop-color="#439959"/>
</linearGradient>
<linearGradient id="paint6_linear_256_104" x1="60.8844" y1="123.116" x2="212.208" y2="123.116" gradientUnits="userSpaceOnUse">
<stop stop-color="#A0DB81"/>
<stop offset="1" stop-color="#439959"/>
</linearGradient>
<linearGradient id="paint7_linear_256_104" x1="159.87" y1="58.8877" x2="159.87" y2="205.942" gradientUnits="userSpaceOnUse">
<stop stop-color="#A0DB81"/>
<stop offset="1" stop-color="#439959"/>
</linearGradient>
<linearGradient id="paint8_linear_256_104" x1="222.552" y1="164.668" x2="64.2177" y2="124.152" gradientUnits="userSpaceOnUse">
<stop stop-color="#A0DB81"/>
<stop offset="1" stop-color="#439959"/>
</linearGradient>
<linearGradient id="paint9_linear_256_104" x1="193.637" y1="173" x2="140.155" y2="249.385" gradientUnits="userSpaceOnUse">
<stop offset="0.046071" stop-color="#A0DB81"/>
<stop offset="1" stop-color="#6DB770"/>
</linearGradient>
<linearGradient id="paint10_linear_256_104" x1="93" y1="173" x2="146.541" y2="251.971" gradientUnits="userSpaceOnUse">
<stop stop-color="#8FD180"/>
<stop offset="1" stop-color="#419A58"/>
</linearGradient>
<linearGradient id="paint11_linear_256_104" x1="144.918" y1="234.088" x2="144.918" y2="285" gradientUnits="userSpaceOnUse">
<stop stop-color="#8FD180"/>
<stop offset="1" stop-color="#439959"/>
</linearGradient>
</defs>
</svg>
