<svg width="192" height="190" viewBox="0 0 192 190" fill="none" xmlns="http://www.w3.org/2000/svg">
<path d="M100.144 83C89.9707 83 80.9979 88.1334 75.6709 95.9502C78.9028 100.693 80.793 106.424 80.793 112.596V160.404C80.793 166.576 78.9026 172.306 75.6709 177.049C80.9979 184.866 89.9704 190 100.144 190C116.489 190 129.739 176.75 129.739 160.404V112.596C129.739 96.2504 116.489 83 100.144 83Z" fill="url(#paint0_linear_267_47)"/>
<path d="M161.904 83C151.731 83 142.759 88.1334 137.432 95.9502C140.664 100.693 142.553 106.424 142.553 112.596V160.404C142.553 166.576 140.663 172.306 137.432 177.049C142.759 184.866 151.731 190 161.904 190C178.25 190 191.5 176.75 191.5 160.404V112.596C191.5 96.2505 178.25 83 161.904 83Z" fill="url(#paint1_linear_267_47)"/>
<circle cx="34" cy="34" r="34" fill="url(#paint2_linear_267_47)"/>
<path d="M98.5 0C110.799 0 121.57 6.53041 127.54 16.3125C130.334 20.8915 126.389 26 121.024 26C117.8 25.9998 114.983 24.014 112.873 21.5752C109.389 17.5482 104.243 15 98.5 15C88.0066 15 79.5 23.5066 79.5 34C79.5 44.4934 88.0066 53 98.5 53C104.54 53 109.92 50.1819 113.4 45.7891C115.481 43.1628 118.368 41 121.719 41C126.905 41.0003 130.795 45.8551 128.291 50.3965C122.503 60.8907 111.332 68 98.5 68C86.5638 68 76.0664 61.8478 70 52.543C73.4771 47.2096 75.5 40.8415 75.5 34C75.5 27.1582 73.4774 20.7895 70 15.4561C76.0665 6.15156 86.5641 0 98.5 0Z" fill="url(#paint3_linear_267_47)"/>
<path d="M159.5 0C171.799 0 182.57 6.53041 188.54 16.3125C191.334 20.8915 187.389 26 182.024 26C178.8 25.9998 175.983 24.014 173.873 21.5752C170.389 17.5482 165.243 15 159.5 15C149.007 15 140.5 23.5066 140.5 34C140.5 44.4934 149.007 53 159.5 53C165.54 53 170.92 50.1819 174.4 45.7891C176.481 43.1628 179.368 41 182.719 41C187.905 41.0003 191.795 45.8551 189.291 50.3965C183.503 60.8907 172.332 68 159.5 68C147.564 68 137.066 61.8478 131 52.543C134.477 47.2096 136.5 40.8415 136.5 34C136.5 27.1582 134.477 20.7895 131 15.4561C137.066 6.15156 147.564 0 159.5 0Z" fill="url(#paint4_linear_267_47)"/>
<rect x="9.5" y="83.5" width="59" height="106" rx="29.5" fill="url(#paint5_linear_267_47)" stroke="#A0DB81"/>
<defs>
<linearGradient id="paint0_linear_267_47" x1="102.705" y1="83" x2="102.705" y2="190" gradientUnits="userSpaceOnUse">
<stop stop-color="#439959"/>
<stop offset="1" stop-color="#A0DB81"/>
</linearGradient>
<linearGradient id="paint1_linear_267_47" x1="164.466" y1="83" x2="164.466" y2="190" gradientUnits="userSpaceOnUse">
<stop stop-color="#439959"/>
<stop offset="1" stop-color="#A0DB81"/>
</linearGradient>
<linearGradient id="paint2_linear_267_47" x1="34" y1="0" x2="34" y2="68" gradientUnits="userSpaceOnUse">
<stop stop-color="#439959"/>
<stop offset="1" stop-color="#A0DB81"/>
</linearGradient>
<linearGradient id="paint3_linear_267_47" x1="99.5351" y1="0" x2="99.5351" y2="68" gradientUnits="userSpaceOnUse">
<stop stop-color="#439959"/>
<stop offset="1" stop-color="#A0DB81"/>
</linearGradient>
<linearGradient id="paint4_linear_267_47" x1="160.535" y1="0" x2="160.535" y2="68" gradientUnits="userSpaceOnUse">
<stop stop-color="#439959"/>
<stop offset="1" stop-color="#A0DB81"/>
</linearGradient>
<linearGradient id="paint5_linear_267_47" x1="39" y1="83" x2="39" y2="190" gradientUnits="userSpaceOnUse">
<stop stop-color="#439959"/>
<stop offset="1" stop-color="#A0DB81"/>
</linearGradient>
</defs>
</svg>
