<svg width="318" height="378" viewBox="0 0 318 378" fill="none" xmlns="http://www.w3.org/2000/svg">
<path d="M127.146 292.319C127.172 292.343 127.198 292.367 127.225 292.391L150.464 312.516C154.973 316.42 161.666 316.421 166.175 312.516L189.414 292.391C189.441 292.367 189.467 292.343 189.493 292.319H192.782L218.636 320.987C220.925 323.525 220.635 327.459 217.998 329.634L161.901 375.896C159.713 377.7 156.56 377.726 154.343 375.957L94.9814 328.611C92.2444 326.428 91.95 322.375 94.3428 319.819L120.092 292.319H127.146ZM234.253 157.245C236.687 154.068 241.491 154.119 243.856 157.348L315.939 255.739C317.965 258.504 317.266 262.402 314.406 264.291L239.835 313.562C237.418 315.159 234.204 314.8 232.198 312.71L212.634 292.319H242.319C247.842 292.319 252.319 287.842 252.319 282.319V186.319C252.319 180.797 247.842 176.32 242.319 176.319H231.27C230.922 172.815 228.764 169.844 225.745 168.352L234.253 157.245ZM69.5498 157.63C71.8732 154.295 76.7694 154.187 79.2383 157.415L89.1387 170.362C87.6121 171.938 86.5982 174.013 86.3691 176.319H76.3193C70.7965 176.319 66.3193 180.796 66.3193 186.319V282.319C66.3193 287.842 70.7965 292.319 76.3193 292.319H99.999L80.2266 312.652C78.172 314.765 74.887 315.073 72.4756 313.379L2.55176 264.255C-0.152105 262.355 -0.811667 258.626 1.07715 255.915L69.5498 157.63ZM152.784 3.37598C154.97 -1.11845 161.37 -1.12704 163.568 3.36133L228.042 135.014C229.035 137.042 228.805 139.456 227.447 141.261L210.795 163.385C207.184 137.911 185.29 118.32 158.819 118.319C131.976 118.319 109.837 138.466 106.7 164.464L89.3496 141.248C88.0055 139.45 87.7779 137.05 88.7598 135.031L152.784 3.37598Z" fill="url(#paint0_linear_267_49)"/>
<line x1="80.3188" y1="186.319" x2="80.3188" y2="284.319" stroke="url(#paint1_linear_267_49)" stroke-width="10"/>
<line x1="237.319" y1="186.319" x2="237.319" y2="284.319" stroke="url(#paint2_linear_267_49)" stroke-width="10"/>
<path d="M79.3188 279.319H132.662C134.69 279.319 136.643 280.09 138.125 281.475L153.295 295.656C156.395 298.554 161.218 298.527 164.285 295.596L179 281.535C180.488 280.113 182.468 279.319 184.527 279.319H238.319" stroke="url(#paint3_linear_267_49)" stroke-width="10"/>
<path d="M104.402 176.319C105.867 203.084 126.823 224.657 153.319 227.09V272.139C149.243 268.229 146.379 266.578 140.961 265.526L139.819 265.319H95.3188V176.319H104.402ZM222.319 265.319H177.319L176.738 265.422C171.197 266.441 168.257 268.223 164.319 271.929V226.988C190.341 224.112 210.789 202.746 212.236 176.319H222.319V265.319Z" fill="url(#paint4_linear_267_49)"/>
<path d="M158.819 127.319C183.396 127.319 203.319 147.243 203.319 171.819C203.319 196.396 183.396 216.319 158.819 216.319C134.242 216.319 114.319 196.396 114.319 171.819C114.319 147.243 134.242 127.319 158.819 127.319ZM154.319 166.319V196.319H164.319V166.319H154.319ZM154.319 146.319V157.319H164.319V146.319H154.319Z" fill="url(#paint5_linear_267_49)"/>
<defs>
<linearGradient id="paint0_linear_267_49" x1="158.55" y1="0" x2="158.55" y2="377.266" gradientUnits="userSpaceOnUse">
<stop stop-color="#FFDE59"/>
<stop offset="1" stop-color="#F47C00"/>
</linearGradient>
<linearGradient id="paint1_linear_267_49" x1="75.3188" y1="235.319" x2="74.3188" y2="235.319" gradientUnits="userSpaceOnUse">
<stop stop-color="#FFDE59"/>
<stop offset="1" stop-color="#F47C00"/>
</linearGradient>
<linearGradient id="paint2_linear_267_49" x1="232.319" y1="235.319" x2="231.319" y2="235.319" gradientUnits="userSpaceOnUse">
<stop stop-color="#FFDE59"/>
<stop offset="1" stop-color="#F47C00"/>
</linearGradient>
<linearGradient id="paint3_linear_267_49" x1="158.819" y1="279.319" x2="158.819" y2="300.819" gradientUnits="userSpaceOnUse">
<stop stop-color="#FFDE59"/>
<stop offset="1" stop-color="#F47C00"/>
</linearGradient>
<linearGradient id="paint4_linear_267_49" x1="158.819" y1="176.319" x2="158.819" y2="272.139" gradientUnits="userSpaceOnUse">
<stop stop-color="#FFDE59"/>
<stop offset="1" stop-color="#F47C00"/>
</linearGradient>
<linearGradient id="paint5_linear_267_49" x1="158.819" y1="127.319" x2="158.819" y2="216.319" gradientUnits="userSpaceOnUse">
<stop stop-color="#FFDE59"/>
<stop offset="1" stop-color="#F47C00"/>
</linearGradient>
</defs>
</svg>
