<svg width="366" height="360" viewBox="0 0 366 360" fill="none" xmlns="http://www.w3.org/2000/svg">
<path d="M0.0257061 216.879C-0.598615 204.495 10.2412 194.624 22.513 196.401L26.387 196.961V273.347C26.3872 281.237 30.4961 288.544 37.1995 292.576L148.73 359.647L21.0511 335.315C12.1302 333.615 5.52909 326.034 5.0716 316.964L0.0257061 216.879ZM343.063 196.593C355.423 194.725 366.372 204.698 365.664 217.178L359.997 317.098C359.486 326.106 352.919 333.614 344.06 335.319L219.771 359.241L330.627 292.576C337.331 288.544 341.44 281.237 341.44 273.347V196.838L343.063 196.593ZM184 219.782C185.912 220.059 187.854 220.053 189.764 219.764L194.82 219C189.086 225.399 185.271 233.385 183.913 242.001C182.489 232.961 178.358 224.613 172.146 218.065L184 219.782Z" fill="url(#paint0_linear_267_222)"/>
<path d="M311.837 147.083C318.401 143.228 326.669 147.961 326.669 155.572V265.003C326.669 271.948 323.01 278.381 317.04 281.93L194.806 354.586C193.834 355.164 192.797 355.425 191.788 355.423V355.451H185.88V284.415L273.323 196.973C281.772 188.524 284.031 176.23 280.102 165.724L311.837 147.083Z" fill="url(#paint1_linear_267_222)"/>
<path d="M46.0757 155.572C46.0759 147.961 54.3445 143.228 60.9077 147.083L90.7544 164.615C86.4903 175.258 88.6674 187.881 97.2876 196.501L185.542 284.754L186.865 283.431V355.451H180.958V355.423C179.948 355.425 178.911 355.164 177.939 354.586L55.7056 281.93C49.7354 278.381 46.0758 271.948 46.0757 265.003V155.572Z" fill="url(#paint2_linear_267_222)"/>
<path d="M150.697 116.02C127.787 142.112 148.856 151.974 184.84 187.333C217.043 156.24 235.521 147.099 213.134 121.8L246.916 125.313C266.297 127.328 274.712 150.89 260.994 164.728L184.914 241.475L183.737 240.298L183.628 240.408L101.89 158C87.9339 143.928 96.9023 119.966 116.668 118.516L150.697 116.02Z" fill="#635BFF"/>
<path d="M195.599 50.8477C206.277 33.9802 201.472 11.9775 185.501 0L97.4909 126.517C91.1163 135.681 92.1699 148.085 99.9988 156.042L133.68 190.275C110.461 154.764 151.151 121.064 195.599 50.8477Z" fill="white"/>
<path d="M168.933 125.674L205.646 77.2441L257.859 122.31C271.715 134.269 272.217 155.577 258.94 168.175L238.099 187.95C256.432 162.112 211.283 101.29 168.933 125.674Z" fill="white"/>
<path d="M168.933 125.674L205.646 77.2441L259.478 123.762C271.068 135.352 249.48 176.569 238.099 187.95C256.432 162.112 211.283 101.29 168.933 125.674Z" fill="white"/>
<defs>
<linearGradient id="paint0_linear_267_222" x1="182.93" y1="192.972" x2="182.93" y2="366.25" gradientUnits="userSpaceOnUse">
<stop stop-color="#4C484E"/>
<stop offset="1" stop-color="white"/>
</linearGradient>
<linearGradient id="paint1_linear_267_222" x1="327.654" y1="145.712" x2="185.881" y2="356.403" gradientUnits="userSpaceOnUse">
<stop stop-color="#3E3B42"/>
<stop offset="0.817308" stop-color="white"/>
</linearGradient>
<linearGradient id="paint2_linear_267_222" x1="46.0757" y1="145.712" x2="187.849" y2="363.295" gradientUnits="userSpaceOnUse">
<stop stop-color="white"/>
<stop offset="1" stop-color="#58535A"/>
</linearGradient>
</defs>
</svg>
