<svg width="281" height="340" viewBox="0 0 281 340" fill="none" xmlns="http://www.w3.org/2000/svg">
<path d="M265.763 131.33C272.326 127.475 280.594 132.208 280.594 139.819V249.25C280.594 256.196 276.934 262.628 270.964 266.177L148.731 338.833C147.759 339.411 146.721 339.672 145.712 339.67V339.698H139.805V238.625L140.645 239.465L190.83 189.279C196.112 183.997 198.974 177.212 199.418 170.301L265.763 131.33Z" fill="url(#paint0_linear_267_236)"/>
<path d="M0 139.82C0 132.208 8.26875 127.475 14.832 131.33L81.6035 170.552C82.163 177.269 85.0101 183.831 90.1494 188.971L140.645 239.465L140.789 239.32V339.698H134.882V339.67C133.872 339.672 132.836 339.411 131.863 338.833L9.62988 266.178C3.65944 262.629 4.93801e-05 256.195 0 249.25V139.82Z" fill="url(#paint1_linear_267_236)"/>
<path d="M32.4894 141.774L67.9328 162.449L69.9019 233.336L52.1802 204.784L31.5049 217.727L32.4894 141.774Z" fill="#181818"/>
<path d="M112.638 100.377C92.8176 122.951 111.046 131.483 142.178 162.074C170.039 135.174 186.025 127.265 166.657 105.378L195.884 108.417C212.652 110.161 219.933 130.545 208.064 142.518L142.242 208.916L141.224 207.898L141.13 207.994L70.4127 136.696C58.3379 124.522 66.0971 103.791 83.1978 102.536L112.638 100.377Z" fill="#635BFF"/>
<path d="M151.487 43.9919C160.724 29.3987 156.568 10.3626 142.75 6.10352e-05L66.6064 109.459C61.0912 117.387 62.0027 128.118 68.7761 135.003L97.9159 164.62C77.8274 133.897 113.031 104.741 151.487 43.9919Z" fill="white"/>
<path d="M128.416 108.73L160.179 66.8292L205.352 105.819C217.34 116.165 217.774 134.6 206.287 145.5L188.256 162.608C204.117 140.254 165.056 87.6334 128.416 108.73Z" fill="white"/>
<path d="M128.416 108.73L160.179 66.8292L206.752 107.075C216.78 117.102 198.103 152.762 188.256 162.608C204.117 140.254 165.056 87.6334 128.416 108.73Z" fill="white"/>
<defs>
<linearGradient id="paint0_linear_267_236" x1="281.578" y1="129.959" x2="139.805" y2="340.651" gradientUnits="userSpaceOnUse">
<stop stop-color="#3E3B42"/>
<stop offset="0.817308" stop-color="white"/>
</linearGradient>
<linearGradient id="paint1_linear_267_236" x1="-2.10728e-06" y1="129.96" x2="141.773" y2="347.543" gradientUnits="userSpaceOnUse">
<stop stop-color="white"/>
<stop offset="1" stop-color="#58535A"/>
</linearGradient>
</defs>
</svg>
