<svg width="318" height="378" viewBox="0 0 318 378" fill="none" xmlns="http://www.w3.org/2000/svg">
<path d="M152.784 3.37601C154.97 -1.11842 161.371 -1.12727 163.569 3.36111L228.042 135.013C229.036 137.042 228.806 139.456 227.448 141.26L196.508 182.369L170.416 151.342C164.397 144.184 153.366 144.219 147.393 151.416L120.851 183.397L89.3497 141.248C88.0057 139.449 87.7781 137.051 88.76 135.032L152.784 3.37601Z" fill="white"/>
<path d="M109.533 197.034L79.2388 157.415C76.77 154.187 71.8728 154.295 69.5494 157.63L1.07742 255.916C-0.811505 258.627 -0.152516 262.355 2.5514 264.255L72.4761 313.379C74.8876 315.073 78.1723 314.765 80.2268 312.652L110.26 281.767L81.1003 252.607C75.6227 247.129 75.2172 238.382 80.1644 232.421L109.533 197.034Z" fill="white"/>
<path d="M120.441 291.947L94.3427 319.82C91.9497 322.375 92.2441 326.428 94.9812 328.611L154.343 375.957C156.561 377.726 159.714 377.7 161.902 375.896L217.998 329.634C220.635 327.46 220.925 323.525 218.636 320.987L194.738 294.488L169.466 319.76C163.609 325.618 154.111 325.618 148.253 319.76L120.441 291.947Z" fill="white"/>
<path d="M204.933 284.293L232.198 312.71C234.204 314.8 237.417 315.159 239.835 313.562L314.407 264.291C317.267 262.401 317.965 258.504 315.939 255.739L243.856 157.348C241.491 154.119 236.687 154.068 234.253 157.245L206.19 193.883L238.058 231.781C243.068 237.738 242.689 246.538 237.185 252.041L204.933 284.293Z" fill="white"/>
<path fill-rule="evenodd" clip-rule="evenodd" d="M151.299 187.104C155.397 182.45 162.965 182.428 167.094 187.057L205.724 230.368C209.161 234.221 208.9 239.911 205.124 243.471L166.396 279.979C162.377 283.767 155.862 283.767 151.843 279.979L113.491 243.825C109.733 240.283 109.455 234.625 112.849 230.77L151.299 187.104ZM147.937 236.329C147.937 241.151 144.028 245.059 139.207 245.059C134.385 245.059 130.477 241.151 130.477 236.329C130.477 231.508 134.385 227.599 139.207 227.599C144.028 227.599 147.937 231.508 147.937 236.329ZM179.115 245.26C183.937 245.26 187.845 241.352 187.845 236.53C187.845 231.709 183.937 227.8 179.115 227.8C174.294 227.8 170.385 231.709 170.385 236.53C170.385 241.352 174.294 245.26 179.115 245.26Z" fill="white"/>
<path d="M147.504 294.97C147.095 296.047 148.734 297.216 149.56 296.412L177.135 269.545C177.751 268.945 177.372 267.899 176.515 267.832L158.022 266.394C157.632 266.364 157.26 266.562 157.076 266.907C152.559 275.347 150.985 285.815 147.504 294.97Z" fill="white"/>
<path fill-rule="evenodd" clip-rule="evenodd" d="M151.299 187.104C155.397 182.45 162.965 182.428 167.094 187.057L205.724 230.368C209.161 234.221 208.9 239.911 205.124 243.471L166.396 279.979C162.377 283.767 155.862 283.767 151.843 279.979L113.491 243.825C109.733 240.283 109.455 234.625 112.849 230.77L151.299 187.104ZM147.937 236.329C147.937 241.151 144.028 245.059 139.207 245.059C134.385 245.059 130.477 241.151 130.477 236.329C130.477 231.508 134.385 227.599 139.207 227.599C144.028 227.599 147.937 231.508 147.937 236.329ZM179.115 245.26C183.937 245.26 187.845 241.352 187.845 236.53C187.845 231.709 183.937 227.8 179.115 227.8C174.294 227.8 170.385 231.709 170.385 236.53C170.385 241.352 174.294 245.26 179.115 245.26Z" fill="white"/>
<path d="M147.504 294.97C147.095 296.047 148.734 297.216 149.56 296.412L177.135 269.545C177.751 268.945 177.372 267.899 176.515 267.832L158.022 266.394C157.632 266.364 157.26 266.562 157.076 266.907C152.559 275.347 150.985 285.815 147.504 294.97Z" fill="white"/>
</svg>
