<svg width="320" height="397" viewBox="0 0 320 397" fill="none" xmlns="http://www.w3.org/2000/svg">
<path d="M64 310C69.5227 310 73.9998 314.477 74 320V344C74 349.523 69.5228 354 64 354C58.4772 354 54 349.523 54 344V320C54.0002 314.477 58.4773 310 64 310Z" fill="white"/>
<path d="M253 310C258.523 310 263 314.477 263 320V344C263 349.523 258.523 354 253 354C247.477 354 243 349.523 243 344V320C243 314.477 247.477 310 253 310Z" fill="white"/>
<path d="M203.094 262.05C208.616 262.103 213.051 266.623 212.998 272.146C212.946 277.495 208.703 281.824 203.417 282.041L202.902 282.049L117.906 281.231C112.384 281.178 107.949 276.658 108.002 271.136C108.055 265.613 112.575 261.18 118.098 261.232L203.094 262.05Z" fill="white"/>
<path d="M64 260.78C69.5228 260.78 74 265.257 74 270.78C73.9999 276.303 69.5228 280.78 64 280.78C58.4772 280.78 54.0001 276.303 54 270.78C54 265.257 58.4772 260.78 64 260.78Z" fill="white"/>
<path d="M253 260.78C258.523 260.78 263 265.257 263 270.78C263 276.303 258.523 280.78 253 280.78C247.477 280.78 243 276.303 243 270.78C243 265.257 247.477 260.78 253 260.78Z" fill="white"/>
<path d="M203.094 221.232C208.616 221.286 213.051 225.806 212.998 231.328C212.946 236.678 208.703 241.006 203.417 241.224L202.902 241.231L117.906 240.414C112.384 240.361 107.949 235.841 108.002 230.318C108.055 224.796 112.575 220.362 118.098 220.415L203.094 221.232Z" fill="white"/>
<path d="M64 220.78C69.5228 220.78 74 225.257 74 230.78C73.9999 236.303 69.5228 240.78 64 240.78C58.4772 240.78 54.0001 236.303 54 230.78C54 225.257 58.4772 220.78 64 220.78Z" fill="white"/>
<path d="M253 220.78C258.523 220.78 263 225.257 263 230.78C263 236.303 258.523 240.78 253 240.78C247.477 240.78 243 236.303 243 230.78C243 225.257 247.477 220.78 253 220.78Z" fill="white"/>
<path d="M64 180.78C69.5228 180.78 74 185.257 74 190.78C73.9999 196.303 69.5228 200.78 64 200.78C58.4772 200.78 54.0001 196.303 54 190.78C54 185.257 58.4772 180.78 64 180.78Z" fill="white"/>
<path d="M253 180.78C258.523 180.78 263 185.257 263 190.78C263 196.303 258.523 200.78 253 200.78C247.477 200.78 243 196.303 243 190.78C243 185.257 247.477 180.78 253 180.78Z" fill="white"/>
<path d="M203.094 180.415C208.616 180.468 213.051 184.988 212.998 190.511C212.946 195.861 208.703 200.189 203.417 200.406L202.902 200.414L117.906 199.597C112.384 199.544 107.949 195.023 108.002 189.501C108.055 183.979 112.575 179.545 118.098 179.598L203.094 180.415Z" fill="white"/>
<path d="M64 140.78C69.5228 140.78 74 145.257 74 150.78C73.9999 156.303 69.5228 160.78 64 160.78C58.4772 160.78 54.0001 156.303 54 150.78C54 145.257 58.4772 140.78 64 140.78Z" fill="white"/>
<path d="M253 140.78C258.523 140.78 263 145.257 263 150.78C263 156.303 258.523 160.78 253 160.78C247.477 160.78 243 156.303 243 150.78C243 145.257 247.477 140.78 253 140.78Z" fill="white"/>
<path d="M203.094 139.598L203.608 139.616C208.889 139.935 213.049 144.343 212.998 149.693C212.946 155.043 208.703 159.372 203.417 159.589L202.902 159.597L117.906 158.78L117.392 158.762C112.111 158.443 107.951 154.034 108.002 148.685C108.055 143.162 112.575 138.727 118.098 138.78L203.094 139.598Z" fill="white"/>
<path fill-rule="evenodd" clip-rule="evenodd" d="M161.25 0.128933C161.373 -0.0422115 161.627 -0.0424031 161.75 0.128933L192.23 42.6905C193.169 44.0014 194.682 44.7792 196.295 44.7793H248.001C250.762 44.7796 253.001 47.0181 253.001 49.7793V72.7803H285L285.903 72.792C304.816 73.2712 320 88.7524 320 107.78V361.78L319.988 362.684C319.509 381.596 304.028 396.78 285 396.78H35C15.9721 396.78 0.490985 381.596 0.0117188 362.684L0 361.78V107.78C4.38124e-06 88.4503 15.67 72.7803 35 72.7803H69.001V49.7793C69.0011 47.018 71.2396 44.7793 74.001 44.7793H125.705C127.318 44.7792 128.831 44.0014 129.77 42.6905L160.251 0.127957C160.374 -0.0426542 160.627 -0.0426501 160.75 0.127957C160.872 0.298899 161.127 0.299516 161.25 0.128933ZM35 97.7803C29.4772 97.7803 25 102.257 25 107.78V361.78C25.0001 367.303 29.4772 371.78 35 371.78H108V322.78C108 314.496 114.716 307.78 123 307.78H197C205.284 307.78 212 314.496 212 322.78V371.78H285C290.523 371.78 295 367.303 295 361.78V107.78C295 102.257 290.523 97.7803 285 97.7803H35ZM164.554 32.3985C162.558 29.6333 158.441 29.6333 156.445 32.3985L133.744 63.8545C131.358 67.1613 133.721 71.7803 137.799 71.7803H183.201C187.279 71.7803 189.642 67.1613 187.256 63.8545L164.554 32.3985Z" fill="white"/>
<path d="M256 310C250.477 310 246 314.477 246 320V344C246 349.523 250.477 354 256 354C261.523 354 266 349.523 266 344V320C266 314.477 261.523 310 256 310Z" fill="white"/>
<path d="M67 310C61.4773 310 57.0002 314.477 57 320V344C57 349.523 61.4772 354 67 354C72.5228 354 77 349.523 77 344V320C76.9998 314.477 72.5227 310 67 310Z" fill="white"/>
<path d="M116.906 262.05C111.384 262.103 106.949 266.623 107.002 272.146C107.054 277.495 111.297 281.824 116.583 282.041L117.098 282.049L202.094 281.231C207.616 281.178 212.051 276.658 211.998 271.136C211.945 265.613 207.425 261.18 201.902 261.232L116.906 262.05Z" fill="white"/>
<path d="M256 260.78C250.477 260.78 246 265.257 246 270.78C246 276.303 250.477 280.78 256 280.78C261.523 280.78 266 276.303 266 270.78C266 265.257 261.523 260.78 256 260.78Z" fill="white"/>
<path d="M67 260.78C61.4772 260.78 57 265.257 57 270.78C57.0001 276.303 61.4772 280.78 67 280.78C72.5228 280.78 76.9999 276.303 77 270.78C77 265.257 72.5228 260.78 67 260.78Z" fill="white"/>
<path d="M116.906 221.232C111.384 221.286 106.949 225.806 107.002 231.328C107.054 236.678 111.297 241.006 116.583 241.224L117.098 241.231L202.094 240.414C207.616 240.361 212.051 235.841 211.998 230.318C211.945 224.796 207.425 220.362 201.902 220.415L116.906 221.232Z" fill="white"/>
<path d="M256 220.78C250.477 220.78 246 225.257 246 230.78C246 236.303 250.477 240.78 256 240.78C261.523 240.78 266 236.303 266 230.78C266 225.257 261.523 220.78 256 220.78Z" fill="white"/>
<path d="M67 220.78C61.4772 220.78 57 225.257 57 230.78C57.0001 236.303 61.4772 240.78 67 240.78C72.5228 240.78 76.9999 236.303 77 230.78C77 225.257 72.5228 220.78 67 220.78Z" fill="white"/>
<path d="M256 180.78C250.477 180.78 246 185.257 246 190.78C246 196.303 250.477 200.78 256 200.78C261.523 200.78 266 196.303 266 190.78C266 185.257 261.523 180.78 256 180.78Z" fill="white"/>
<path d="M67 180.78C61.4772 180.78 57 185.257 57 190.78C57.0001 196.303 61.4772 200.78 67 200.78C72.5228 200.78 76.9999 196.303 77 190.78C77 185.257 72.5228 180.78 67 180.78Z" fill="white"/>
<path d="M116.906 180.415C111.384 180.468 106.949 184.988 107.002 190.511C107.054 195.861 111.297 200.189 116.583 200.406L117.098 200.414L202.094 199.597C207.616 199.544 212.051 195.023 211.998 189.501C211.945 183.979 207.425 179.545 201.902 179.598L116.906 180.415Z" fill="white"/>
<path d="M256 140.78C250.477 140.78 246 145.257 246 150.78C246 156.303 250.477 160.78 256 160.78C261.523 160.78 266 156.303 266 150.78C266 145.257 261.523 140.78 256 140.78Z" fill="white"/>
<path d="M67 140.78C61.4772 140.78 57 145.257 57 150.78C57.0001 156.303 61.4772 160.78 67 160.78C72.5228 160.78 76.9999 156.303 77 150.78C77 145.257 72.5228 140.78 67 140.78Z" fill="white"/>
<path d="M116.906 139.598L116.392 139.616C111.111 139.935 106.951 144.343 107.002 149.693C107.054 155.043 111.297 159.372 116.583 159.589L117.098 159.597L202.094 158.78L202.608 158.762C207.889 158.443 212.049 154.034 211.998 148.685C211.945 143.162 207.425 138.727 201.902 138.78L116.906 139.598Z" fill="white"/>
<path fill-rule="evenodd" clip-rule="evenodd" d="M158.75 0.128933C158.627 -0.0422115 158.373 -0.0424031 158.25 0.128933L127.77 42.6905C126.831 44.0014 125.318 44.7792 123.705 44.7793H71.999C69.2379 44.7796 66.9991 47.0181 66.999 49.7793V72.7803H35L34.0967 72.792C15.1842 73.2712 4.59819e-07 88.7524 0 107.78V361.78L0.0117188 362.684C0.490985 381.596 15.9721 396.78 35 396.78H285C304.028 396.78 319.509 381.596 319.988 362.684L320 361.78V107.78C320 88.4503 304.33 72.7803 285 72.7803H250.999V49.7793C250.999 47.018 248.76 44.7793 245.999 44.7793H194.295C192.682 44.7792 191.169 44.0014 190.23 42.6905L159.749 0.127957C159.626 -0.0426542 159.373 -0.0426501 159.25 0.127957C159.128 0.298899 158.873 0.299516 158.75 0.128933ZM285 97.7803C290.523 97.7803 295 102.257 295 107.78V361.78C295 367.303 290.523 371.78 285 371.78H212V322.78C212 314.496 205.284 307.78 197 307.78H123C114.716 307.78 108 314.496 108 322.78V371.78H35C29.4772 371.78 25.0001 367.303 25 361.78V107.78C25 102.257 29.4772 97.7803 35 97.7803H285ZM155.446 32.3985C157.442 29.6333 161.559 29.6333 163.555 32.3985L186.256 63.8545C188.642 67.1613 186.279 71.7803 182.201 71.7803H136.799C132.721 71.7803 130.358 67.1613 132.744 63.8545L155.446 32.3985Z" fill="white"/>
</svg>
