<svg width="313" height="202" viewBox="0 0 313 202" fill="none" xmlns="http://www.w3.org/2000/svg">
<circle cx="41" cy="41" r="33.5" stroke="white" stroke-width="15"/>
<path d="M141.721 0.0136719C156.512 0.388523 169.345 8.63531 176.19 20.7208C178.814 25.353 174.937 30.4473 169.613 30.4473C166.387 30.4473 163.559 28.4648 161.686 25.8381C157.009 19.2782 149.338 15.0002 140.668 15C126.419 15 114.868 26.5511 114.868 40.7998C114.868 55.0484 126.419 66.5996 140.668 66.5996C149.339 66.5994 157.01 62.321 161.687 55.7606C163.56 53.1338 166.388 51.1514 169.614 51.1514C174.938 51.1514 178.814 56.2451 176.191 60.8771C169.184 73.2495 155.902 81.5994 140.668 81.5996L139.614 81.5859C117.918 81.036 100.431 63.5488 99.8818 41.8525L99.8682 40.7998C99.8682 18.2668 118.135 0 140.668 0L141.721 0.0136719Z" fill="white"/>
<path d="M244.023 0.0136719C258.815 0.388365 271.648 8.63519 278.494 20.7208C281.117 25.353 277.241 30.4473 271.917 30.4473C268.691 30.4473 265.862 28.4648 263.99 25.8381C259.312 19.2781 251.641 15.0001 242.971 15C228.722 15.0002 217.171 26.5512 217.171 40.7998C217.171 55.0483 228.722 66.5994 242.971 66.5996C251.642 66.5995 259.312 62.3212 263.99 55.7608C265.862 53.1339 268.691 51.1514 271.917 51.1514C277.241 51.1514 281.118 56.2454 278.494 60.8777C271.487 73.2499 258.204 81.5995 242.971 81.5996L241.917 81.5859C220.221 81.0359 202.734 63.5487 202.185 41.8525L202.171 40.7998C202.171 18.2669 220.438 0.000166362 242.971 0L244.023 0.0136719Z" fill="white"/>
<path d="M43 91.5C50.4558 91.5 56.5 97.5442 56.5 105V185C56.5 192.456 50.4558 198.5 43 198.5H38C30.5442 198.5 24.5 192.456 24.5 185V91.5H43Z" fill="white" stroke="white"/>
<path d="M107.043 96.9358L112.329 100.359L91.3168 132.809C87.2642 139.067 78.9056 140.855 72.6473 136.803L67.361 133.38L88.3737 100.93C92.4262 94.6715 100.785 92.8833 107.043 96.9358Z" fill="white" stroke="white"/>
<path d="M104.5 147.5V167.5H82C73.9919 167.5 67.5 161.008 67.5 153V147.5H104.5Z" fill="white" stroke="white"/>
<path d="M104.5 163.5V198.5H100C91.9919 198.5 85.5 192.008 85.5 184V163.5H104.5Z" fill="white" stroke="white"/>
<path d="M139 93.5C146.456 93.5 152.5 99.5442 152.5 107V186C152.5 193.456 146.456 199.5 139 199.5H135C127.544 199.5 121.5 193.456 121.5 186V93.5H139Z" fill="white" stroke="white"/>
<path d="M203.257 98.1537L208.543 101.577L187.531 134.027C183.478 140.285 175.119 142.073 168.861 138.021L163.575 134.598L184.588 102.148C188.64 95.8894 196.999 94.1012 203.257 98.1537Z" fill="white" stroke="white"/>
<path d="M200.5 149.5V168.5H178C169.992 168.5 163.5 162.008 163.5 154V149.5H200.5Z" fill="white" stroke="white"/>
<path d="M200.5 164.5V199.5H196C187.992 199.5 181.5 193.008 181.5 185V164.5H200.5Z" fill="white" stroke="white"/>
<path d="M242 93.5C250.008 93.5 256.5 99.9919 256.5 108V199.5H238C229.992 199.5 223.5 193.008 223.5 185V93.5H242Z" fill="white" stroke="white"/>
<path d="M298 93.5C306.008 93.5 312.5 99.9919 312.5 108V152.5H294C285.992 152.5 279.5 146.008 279.5 138V93.5H298Z" fill="white" stroke="white"/>
<path d="M298 164.5C306.008 164.5 312.5 170.992 312.5 179V201.5H279C270.992 201.5 264.5 195.008 264.5 187V164.5H298Z" fill="white" stroke="white"/>
</svg>
