<svg width="318" height="378" viewBox="0 0 318 378" fill="none" xmlns="http://www.w3.org/2000/svg">
<path d="M127.146 292.319C127.172 292.343 127.198 292.367 127.225 292.391L150.464 312.516C154.973 316.42 161.666 316.421 166.175 312.516L189.414 292.391C189.441 292.367 189.467 292.343 189.493 292.319H192.782L218.636 320.987C220.925 323.525 220.635 327.459 217.998 329.634L161.901 375.895C159.713 377.7 156.56 377.725 154.343 375.957L94.9814 328.611C92.2444 326.428 91.95 322.375 94.3428 319.819L120.092 292.319H127.146ZM234.253 157.245C236.687 154.067 241.491 154.119 243.856 157.348L315.939 255.739C317.965 258.504 317.266 262.401 314.406 264.291L239.835 313.561C237.418 315.158 234.204 314.8 232.198 312.71L212.634 292.319H242.319C247.842 292.319 252.319 287.842 252.319 282.319V186.319C252.319 180.797 247.842 176.319 242.319 176.319H231.27C230.922 172.815 228.764 169.844 225.745 168.351L234.253 157.245ZM69.5498 157.63C71.8732 154.295 76.7694 154.187 79.2383 157.415L89.1387 170.362C87.6121 171.938 86.5982 174.012 86.3691 176.319H76.3193C70.7965 176.319 66.3193 180.796 66.3193 186.319V282.319C66.3193 287.842 70.7965 292.319 76.3193 292.319H99.999L80.2266 312.652C78.172 314.765 74.887 315.073 72.4756 313.379L2.55176 264.255C-0.152105 262.355 -0.811667 258.626 1.07715 255.915L69.5498 157.63ZM152.784 3.37588C154.97 -1.11855 161.37 -1.12714 163.568 3.36123L228.042 135.014C229.035 137.042 228.805 139.456 227.447 141.261L210.795 163.385C207.184 137.911 185.29 118.319 158.819 118.319C131.976 118.319 109.837 138.466 106.7 164.464L89.3496 141.248C88.0055 139.45 87.7779 137.05 88.7598 135.031L152.784 3.37588Z" fill="white"/>
<line x1="80.3184" y1="186.319" x2="80.3184" y2="284.319" stroke="white" stroke-width="10"/>
<line x1="237.318" y1="186.319" x2="237.318" y2="284.319" stroke="white" stroke-width="10"/>
<path d="M79.3184 279.319H132.661C134.69 279.319 136.643 280.09 138.125 281.475L153.295 295.656C156.395 298.554 161.217 298.527 164.285 295.596L178.999 281.535C180.488 280.113 182.467 279.319 184.526 279.319H238.318" stroke="white" stroke-width="10"/>
<path d="M104.401 176.319C105.867 203.084 126.822 224.657 153.318 227.09V272.139C149.243 268.229 146.379 266.578 140.961 265.526L139.818 265.319H95.3184V176.319H104.401ZM222.318 265.319H177.318L176.737 265.422C171.197 266.441 168.257 268.223 164.318 271.929V226.988C190.34 224.112 210.788 202.746 212.235 176.319H222.318V265.319Z" fill="white"/>
<path d="M158.818 127.319C183.395 127.319 203.318 147.243 203.318 171.819C203.318 196.396 183.395 216.319 158.818 216.319C134.242 216.319 114.318 196.396 114.318 171.819C114.318 147.243 134.242 127.319 158.818 127.319ZM154.318 166.319V196.319H164.318V166.319H154.318ZM154.318 146.319V157.319H164.318V146.319H154.318Z" fill="white"/>
</svg>
